<?xml version="1.0" encoding="UTF-8"?>
<svg width="717px" height="140px" viewBox="0 0 717 140" version="1.1" xmlns="http://www.w3.org/2000/svg" xmlns:xlink="http://www.w3.org/1999/xlink">
    <!-- Generator: Sketch 45.2 (43514) - http://www.bohemiancoding.com/sketch -->
    <title>Connecting Science logo - new</title>
    <desc>Created with Sketch.</desc>
    <defs></defs>
    <g id="Page-1" stroke="none" stroke-width="1" fill="none" fill-rule="evenodd">
        <g id="Connecting-Science-logo---new" fill-rule="nonzero" fill="#000000">
            <path d="M30.8,8.7 C39.8,8.7 44.8,13.9 48.1,24.6 L56.7,22 C53.4,8.7 44.3,0 30.8,0 C22.1,0 15,3.2 9.3,9.5 C3.7,15.8 0.9,25 0.9,37 C0.9,49 3.7,58.2 9.3,64.5 C10.9,66.3 12.7,67.9 14.6,69.2 C13.8,69.7 13.1,70.3 12.4,71 C8.5,74.7 6.5,79.6 6.5,85.5 C6.9,94.2 9.9,98.7 15.7,101.7 C19.8,103.8 22.3,104.5 27.4,105.7 C32.7,106.9 34.5,107.6 37.7,108.9 C39.4,109.5 40.5,110.1 41.2,110.9 C42.5,112.2 43.8,114.5 43.8,117.5 C43.8,126.1 38,130.6 28.9,130.6 C19.4,130.6 13.2,125.2 10.4,114.5 L1.9,117.8 C4.7,131.7 14.9,139.3 28.8,139.3 C43.4,139.3 52.8,131.6 52.8,116.3 C52.5,108.8 49.8,104.6 44.1,101.7 C40.3,99.6 37.5,98.8 32.2,97.5 C26.3,96 22.1,94.4 19.4,92.9 C16.8,91.4 15.5,88.8 15.5,85.3 C15.5,78.3 20.6,74.1 28.5,74.1 C35.1,74.1 40,77.7 43.2,84.9 L51.2,80.9 C49.7,76.9 47.3,73.4 44,70.7 C50.2,67 54.6,60.5 56.6,52.2 L48,49.6 C44.7,60.3 39.6,65.5 30.7,65.5 C17.9,65.5 10.3,56.3 10.3,37.2 C10.4,17.9 18,8.7 30.8,8.7" id="Shape"></path>
            <path d="M160.1,17.4 L185.7,64.5 L160.1,64.5 L160.1,17.4 Z M191.1,0.9 L191.1,56.7 L160.8,0.9 L151,0.9 L151,73.2 L171.1,73.2 L171.1,130.6 L153.7,130.6 L153.7,138.4 L197.7,138.4 L197.7,130.6 L180.3,130.6 L180.3,73.2 L200.3,73.2 L200.3,0.9 L191.1,0.9 Z" id="Shape"></path>
            <path d="M233.4,17.4 L259,64.5 L233.4,64.5 L233.4,17.4 Z M264.5,0.9 L264.5,56.7 L234.2,0.9 L224.3,0.9 L224.3,138.4 L273.2,138.4 L273.2,129.7 L233.3,129.7 L233.3,104.2 L267,104.2 L267,95.5 L233.3,95.5 L233.3,73.2 L273.5,73.2 L273.5,0.9 L264.5,0.9 Z" id="Shape"></path>
            <path d="M311.5,73.2 L337.9,73.2 L337.9,121.9 L311.5,73.2 Z M297.6,0.9 L297.6,138.4 L306.8,138.4 L306.8,82.6 L337.1,138.4 L347,138.4 L347,64.5 L306.8,64.5 L306.8,39 L340.5,39 L340.5,30.3 L306.8,30.3 L306.8,9.5 L345.6,9.5 L345.6,0.8 L297.6,0.8 L297.6,0.9 Z" id="Shape"></path>
            <path d="M397.6,8.7 C406.6,8.7 411.6,13.9 414.9,24.6 L423.5,22 C420.2,8.7 411.1,0 397.6,0 C388.9,0 381.8,3.2 376.1,9.5 C370.5,15.8 367.7,25 367.7,37 C367.7,49 370.5,58.2 376.1,64.5 C377.9,66.5 379.9,68.3 382.1,69.6 C380,71 378,72.7 376.1,74.7 C370.5,81 367.7,90.2 367.7,102.2 C367.7,114.2 370.5,123.4 376.1,129.7 C381.8,136 388.9,139.2 397.6,139.2 C411.1,139.2 420.2,130.5 423.5,117.2 L414.9,114.6 C411.6,125.3 406.5,130.5 397.6,130.5 C384.8,130.5 377.2,121.3 377.2,102.2 C377.2,83.4 384.6,74.2 397,73.9 C397.2,73.9 397.4,73.9 397.6,73.9 C397.8,73.9 398,73.9 398.2,73.9 C406.8,74.1 411.7,79.3 415,89.8 L423.6,87.2 C421.7,79.5 417.8,73.4 412.3,69.6 C417.8,65.8 421.7,59.7 423.6,52 L415,49.4 C411.8,59.9 406.8,65.1 398.2,65.3 C398,65.3 397.8,65.3 397.6,65.3 C397.4,65.3 397.2,65.3 397,65.3 C384.6,65 377.2,55.8 377.2,37 C377.2,17.9 384.8,8.7 397.6,8.7" id="Shape"></path>
            <polygon id="Shape" points="442 0.9 442 9.6 464.5 9.6 464.5 64.5 446.4 64.5 446.4 138.4 493.3 138.4 493.3 129.7 455.5 129.7 455.5 104.2 487.1 104.2 487.1 95.5 455.5 95.5 455.5 73.2 492.3 73.2 492.3 64.5 473.6 64.5 473.6 9.6 496.1 9.6 496.1 0.9"></polygon>
            <polygon id="Shape" points="520.4 0.9 520.4 8.7 537.9 8.7 537.9 65.3 520.4 65.3 520.4 73.2 564.4 73.2 564.4 65.3 546.9 65.3 546.9 8.7 564.4 8.7 564.4 0.9"></polygon>
            <polygon id="Shape" points="631.3 0.9 631.3 56.7 601 0.9 591.1 0.9 591.1 73.2 600.2 73.2 600.2 17.4 630.5 73.2 640.4 73.2 640.4 0.9"></polygon>
            <g id="Group" transform="translate(73.000000, 0.000000)">
                <path d="M618.1,45.4 L634.3,45.4 C633.4,58.7 627.9,65.3 618.1,65.3 C605.3,65.3 597.7,56.1 597.7,37 C597.7,17.9 605.3,8.7 618.1,8.7 C627.1,8.7 632.1,13.9 635.4,24.6 L644,22 C640.7,8.5 631.7,-5.68434189e-14 618.1,-5.68434189e-14 C609.4,-5.68434189e-14 602.3,3.2 596.6,9.5 C591,15.8 588.2,25 588.2,37 C588.2,48.9 591,58.1 596.6,64.5 C602.2,70.8 609.1,74 617.5,74 C625.5,74 632.5,70.4 635.7,63.5 L636.2,73.2 L643.7,73.2 L643.7,36.8 L618.1,36.8 L618.1,45.4 Z" id="Shape"></path>
                <path d="M16.2,58.5 C12.8,53.9 11.1,46.7 11.1,37 C11.1,27.3 12.8,20.2 16.2,15.6 C19.6,11 24.2,8.7 29.8,8.7 C35.5,8.7 40,11 43.4,15.6 C46.8,20.1 48.5,27.3 48.5,37 C48.5,46.7 46.8,53.8 43.4,58.5 C40.1,62.8 35.8,65.1 30.5,65.3 C30.4,65.3 30.4,65.3 30.3,65.3 C30,65.3 29.6,65.3 29.3,65.3 C23.9,65.2 19.5,62.9 16.2,58.5 M29.6,74 C29.7,74 29.8,74 29.9,74 C30.3,74 30.6,74 31,74 C39.7,74.2 44.6,79.3 47.9,89.9 L56.5,87.3 C54.6,79.5 50.6,73.3 45,69.5 C46.9,68.1 48.7,66.5 50.3,64.6 C55.6,58.2 58.1,49 58.1,37.1 C58.1,25.2 55.5,16 50.3,9.7 C45,3.3 38.3,0.1 30.1,0.1 C21.8,0.1 15.1,3.3 9.9,9.7 C4.6,16 2.1,25.2 2.1,37.1 C2.1,49 4.7,58.2 9.9,64.6 C11.6,66.6 13.4,68.3 15.4,69.7 C13.2,71.1 11.2,72.8 9.3,74.9 C3.7,81.2 0.9,90.4 0.9,102.4 C0.9,114.4 3.7,123.6 9.3,129.9 C15,136.2 22.1,139.4 30.8,139.4 C44.3,139.4 53.4,130.7 56.7,117.4 L48.1,114.8 C44.8,125.5 39.7,130.7 30.8,130.7 C18,130.7 10.4,121.5 10.4,102.4 C10,83.6 17.3,74.4 29.6,74" id="Shape"></path>
            </g>
        </g>
    </g>
</svg>