<svg viewBox="0 0 187 42" width="187" height="42" xmlns="http://www.w3.org/2000/svg"><g fill="#FFF" fill-rule="nonzero"><path d="M6 15.3c1.9 0 2.9 1 3.6 3.2l1.7-.5c-.7-2.7-2.5-4.4-5.3-4.4-1.7 0-3.2.6-4.3 1.9A8.3 8.3 0 0 0 0 21.1c0 2.4.6 4.2 1.7 5.5l1 1-.4.3a4 4 0 0 0-1.2 3c.1 1.7.7 2.6 1.9 3.2.8.5 1.3.6 2.4.9 1 .2 1.4.3 2 .6l.8.4c.2.3.5.7.5 1.3 0 1.8-1.2 2.7-3 2.7-2 0-3.2-1-3.8-3.3l-1.7.7c.6 2.8 2.6 4.4 5.5 4.4 3 0 4.8-1.6 4.8-4.7 0-1.5-.6-2.4-1.7-3-.8-.4-1.4-.5-2.4-.8-1.2-.3-2-.6-2.6-1-.6-.3-.8-.8-.8-1.5 0-1.4 1-2.3 2.6-2.3 1.3 0 2.3.8 3 2.2l1.6-.8a5 5 0 0 0-1.5-2 6 6 0 0 0 2.6-3.9l-1.7-.5c-.7 2.1-1.7 3.2-3.6 3.2-2.5 0-4.1-1.9-4.1-5.7 0-4 1.6-5.8 4.1-5.8v.1zM38.5 25l-6.1-11.3h-2v14.7h4V40H31v1.6h9V40h-3.6V28.4h4V13.7h-1.8V25h-.1zm-6.3 1.6v-9.5l5.2 9.5h-5.2zM53.4 25l-6.1-11.3h-2v27.9h9.9v-1.8H47v-5.1h6.8v-1.8H47v-4.5h8.1V13.7h-1.8V25h.1zM47 26.6v-9.5l5.2 9.5H47zm23.1 0H62v-5.2h6.8v-1.7H62v-4.2h7.8v-1.8h-9.7v27.9H62V30.3l6 11.3h2v-15h.1zM63 28.4h5.4v9.8L63 28.4zm17.4-13.1c1.8 0 2.8 1 3.5 3.2l1.7-.5c-.7-2.7-2.5-4.4-5.2-4.4-1.8 0-3.2.6-4.4 1.9a8.3 8.3 0 0 0-1.7 5.6c0 2.4.6 4.2 1.7 5.5.4.4.8.8 1.2 1a6 6 0 0 0-1.2 1.1 8.3 8.3 0 0 0-1.7 5.6c0 2.4.6 4.3 1.7 5.5 1.2 1.3 2.6 2 4.4 2 2.7 0 4.5-1.8 5.2-4.5l-1.7-.5c-.7 2.1-1.7 3.2-3.5 3.2-2.6 0-4.2-1.9-4.2-5.7 0-3.8 1.5-5.7 4-5.8h.2c1.8 0 2.8 1.1 3.5 3.3l1.7-.6a6 6 0 0 0-2.3-3.5 6 6 0 0 0 2.3-3.6l-1.7-.5c-.7 2-1.7 3.1-3.4 3.2H80.2c-2.5 0-4-2-4-5.7 0-4 1.6-5.8 4.2-5.8zm8.9.2h4.6v11.1h-3.7v15h9.5v-1.8h-7.6v-5.1h6.4v-1.8H92v-4.5h7.4v-1.8h-3.8V15.5h4.6v-1.8h-11l.1 1.8zm15.9-.2h3.6v11.5h-3.6v1.6h9v-1.6h-3.6V15.3h3.5v-1.6h-8.9v1.6zm22.5 9.7l-6.1-11.3h-2v14.7h1.8V17l6.1 11.3h2V13.7h-1.8V25zm12.1-2.3h3.3c-.2 2.7-1.3 4-3.3 4-2.6 0-4.1-1.8-4.1-5.6 0-4 1.5-5.8 4.1-5.8 1.8 0 2.9 1 3.5 3.2l1.8-.5c-.7-2.7-2.5-4.4-5.3-4.4-1.7 0-3.2.6-4.3 1.9-1.2 1.3-1.7 3.1-1.7 5.6 0 2.4.5 4.2 1.7 5.5 1 1.3 2.5 2 4.2 2a4 4 0 0 0 3.7-2.2v2h1.6V21h-5.2v1.7zM20.6 28.5h.2c1.8 0 2.8 1.1 3.5 3.3l1.7-.6a6 6 0 0 0-2.3-3.6l1-1c1.1-1.3 1.6-3.1 1.6-5.5 0-2.5-.5-4.3-1.6-5.6a5 5 0 0 0-4-2 5 5 0 0 0-4.2 2 8.9 8.9 0 0 0-1.6 5.6c0 2.4.6 4.2 1.6 5.5.4.4.7.8 1.1 1a6 6 0 0 0-1.2 1.1 8.3 8.3 0 0 0-1.7 5.6c0 2.4.6 4.3 1.7 5.5 1.1 1.3 2.6 2 4.3 2 2.8 0 4.6-1.8 5.3-4.5l-1.7-.5c-.7 2.1-1.7 3.2-3.6 3.2-2.5 0-4.1-1.9-4.1-5.7 0-3.8 1.5-5.7 4-5.8zm-2.7-3.1c-.7-1-1-2.4-1-4.3 0-2 .3-3.5 1-4.4a3 3 0 0 1 2.7-1.4c1.2 0 2.1.5 2.8 1.4.7 1 1 2.4 1 4.4 0 2-.3 3.4-1 4.3-.7.9-1.5 1.3-2.6 1.4h-.3c-1 0-2-.5-2.6-1.4zM66.5.4l-1.3 5L63.8 1h-.4L62 5.4l-1.3-5h-.5l1.5 5.8h.6l1.3-4.3 1.3 4.3h.6L67.1.4h-.6zm2.5 0v5.8h3.3v-.5h-2.8V3.4h2.2v-.5h-2.2v-2h2.7V.4H69zm5.2 0v5.8h3.3v-.5h-2.7V.4h-.6zm5 0v5.8h3.3v-.5h-2.7V.4h-.6zM88.5 4.6c-.3 1-1 1.7-2.2 1.7-.7 0-1.3-.3-1.8-.8s-.7-1.2-.7-2.2c0-1 .3-1.8.8-2.2.5-.5 1-.7 1.7-.7 1.1 0 2 .6 2.2 1.6l-.5.2c-.3-.9-.8-1.3-1.7-1.3-.6 0-1 .2-1.4.6-.4.4-.6 1-.6 1.8s.2 1.4.6 1.8c.4.4.8.7 1.4.7.9 0 1.4-.5 1.7-1.3l.5.1zM92.7.9c-.6 0-1 .2-1.4.6-.4.4-.6 1-.6 1.8s.2 1.4.6 1.8c.4.4.8.7 1.4.7.6 0 1-.3 1.4-.7.4-.4.6-1 .6-1.8s-.2-1.4-.6-1.8c-.4-.4-.8-.6-1.4-.6zm0-.5c.7 0 1.3.2 1.8.8.5.5.8 1.2.8 2.1a3 3 0 0 1-.8 2.2c-.5.5-1 .8-1.8.8-.7 0-1.3-.3-1.8-.8-.5-.6-.7-1.3-.7-2.2 0-.9.2-1.6.7-2.1.5-.6 1.1-.8 1.8-.8zm4.6 0h.7l1.7 4.4 1.7-4.4h.7v5.8h-.5V1.5l-1.7 4.2h-.4l-1.7-4.2v4.7h-.5V.4zm7 0h3.3v.5h-2.8v2h2.3v.5h-2.3v2.3h2.8v.5h-3.3V.4zm12.4 5.8v-.9c-.4.6-1 1-1.8 1-.7 0-1.3-.3-1.8-.8a3 3 0 0 1-.7-2.2c0-1 .2-1.6.7-2.2.5-.5 1.1-.7 1.8-.7 1.1 0 2 .6 2.2 1.6l-.5.2c-.3-.9-.9-1.3-1.7-1.3-.6 0-1 .2-1.4.6-.4.4-.6 1-.6 1.8s.2 1.4.6 1.8c.3.4.8.7 1.4.7 1.1 0 1.7-.7 1.7-2h-1.3v-.5h1.9v3h-.5v-.1zm2.6-5.8h3.2v.5h-2.7v2h2.2v.5h-2.2v2.3h2.8v.5h-3.3V.4zm8.7 0h.6v5.8h-.7l-2.8-4.9v5h-.6V.4h.7l2.8 5v-5zm5.2.5c-.6 0-1 .2-1.4.6-.4.4-.6 1-.6 1.8s.2 1.4.6 1.8c.3.4.8.7 1.4.7.5 0 1-.3 1.4-.7.3-.4.5-1 .5-1.8a3 3 0 0 0-.5-1.8 2 2 0 0 0-1.4-.6zm0-.5c.7 0 1.3.2 1.8.8.5.5.7 1.2.7 2.1a3 3 0 0 1-.7 2.2c-.5.5-1.1.8-1.8.8s-1.3-.3-1.8-.8c-.5-.6-.8-1.3-.8-2.2 0-.9.3-1.6.8-2.1.5-.6 1-.8 1.8-.8zm4.6 0h.6l1.8 4.4 1.7-4.4h.7v5.8h-.6V1.5l-1.7 4.2h-.3l-1.7-4.2v4.7h-.5V.4zm6.9 0h3.3v.5h-2.7v2h2.2v.5h-2.2v2.3h2.8v.5h-3.4V.4zm12.9 4.2c-.3 1-1.1 1.7-2.2 1.7-.7 0-1.3-.3-1.8-.8a3 3 0 0 1-.8-2.2c0-1 .3-1.8.8-2.2.5-.5 1.1-.7 1.8-.7 1 0 1.9.6 2.2 1.6l-.6.2c-.2-.9-.8-1.3-1.6-1.3a2 2 0 0 0-1.5.6 3 3 0 0 0-.5 1.8c0 .8.2 1.4.5 1.8.4.4.9.7 1.5.7.8 0 1.4-.5 1.6-1.3l.6.1zm3.5-3.4l-1 2.8h2l-1-2.8zm-.2-.8h.5l2 5.8h-.5l-.6-1.6H160l-.5 1.6h-.6l2-5.8zm4.1 0h.8l1.7 4.4 1.7-4.4h.7v5.8h-.6V1.5l-1.6 4.2h-.4l-1.7-4.2v4.7h-.5L165 .4zm9 2.7c.8 0 1.1-.4 1.1-1 0-.7-.3-1.2-1-1.2h-1.5v2.2h1.4zm-1.4.5v2.6h-.5V.4h2c1 0 1.6.6 1.6 1.6s-.6 1.6-1.7 1.6h-1.4zm5-3.2h.5v4c0 .8.5 1.4 1.4 1.4 1 0 1.5-.6 1.5-1.4v-4h.5v4c0 .6-.2 1-.6 1.4a2 2 0 0 1-1.4.5 2 2 0 0 1-1.4-.5c-.4-.4-.5-.8-.5-1.4v-4zm8.4 1.1c-.3-.4-.6-.6-1-.6-.5 0-.8.4-.8.8 0 .5.4.9.9 1l.7.4c.5.3.9.8.9 1.5 0 .5-.2.9-.5 1.2-.3.3-.7.5-1.2.5-.9 0-1.5-.7-1.7-1.6l.4-.3c.3.9.6 1.4 1.3 1.4.7 0 1.1-.5 1.1-1.2 0-.5-.4-.9-.9-1.1-.7-.3-1.6-.7-1.6-1.7 0-.4.2-.8.4-1 .3-.3.6-.4 1-.4h.7c.3.3.5.4.7.8l-.5.3h.1z"/></g></svg>