
<svg width="187px" height="42px" viewBox="0 0 187 42" version="1.1" xmlns="http://www.w3.org/2000/svg" xmlns:xlink="http://www.w3.org/1999/xlink">
    <!-- Generator: Sketch 50.2 (55047) - http://www.bohemiancoding.com/sketch -->
    <desc>Created with Sketch.</desc>
    <defs></defs>
    <g id="Symbols" stroke="none" stroke-width="1" fill="none" fill-rule="evenodd">
        <g id="footer/" transform="translate(-109.000000, -81.000000)" fill="#1D1D1B">
            <g id="cs-footer-logo" transform="translate(80.000000, 41.000000)">
                <g id="logo" transform="translate(29.000000, 40.000000)">
                    <g id="Group-21" transform="translate(0.000000, 13.516588)">
                        <path d="M6.04588235,1.80208235 C7.86564706,1.80208235 8.89094118,2.84784706 9.56011765,5.02372941 L11.2965882,4.50067059 C10.6270588,1.80208235 8.78647059,0.0447882353 6.04588235,0.0447882353 C4.28858824,0.0447882353 2.84505882,0.693141176 1.69447059,1.96937647 C0.565058824,3.24525882 0,5.10737647 0,7.53384706 C0,9.96067059 0.565058824,11.8224353 1.69447059,13.0986706 C2.02658824,13.4671412 2.38411765,13.7812588 2.76564706,14.0449059 C2.61035294,14.1550235 2.46,14.2732588 2.322,14.4073765 C1.52717647,15.1605529 1.12976471,16.1438471 1.12976471,17.3360824 C1.21341176,19.0933765 1.81976471,20.0138471 2.99152941,20.6205529 C3.82835294,21.0387882 4.33058824,21.1852588 5.35552941,21.4365529 C6.42211765,21.6874941 6.79870588,21.8131412 7.44741176,22.0849059 C7.782,22.2105529 8.01211765,22.3358471 8.15858824,22.4823176 C8.43070588,22.7544353 8.68164706,23.2146706 8.68164706,23.8213765 C8.68164706,25.5574941 7.50988235,26.4779647 5.66929412,26.4779647 C3.74435294,26.4779647 2.48964706,25.3902 1.92458824,23.2146706 L0.209294118,23.8838471 C0.774,26.7080824 2.84505882,28.2352588 5.66929412,28.2352588 C8.61882353,28.2352588 10.5225882,26.6664353 10.5225882,23.5700824 C10.4597647,22.0432588 9.91588235,21.2064353 8.76529412,20.6205529 C7.99129412,20.2019647 7.42623529,20.0346706 6.35964706,19.7629059 C5.16705882,19.4491412 4.30941176,19.1353765 3.76552941,18.8216118 C3.24282353,18.5078471 2.97070588,17.9847882 2.97070588,17.2732588 C2.97070588,15.8509059 3.99564706,15.0140824 5.60647059,15.0140824 C6.94517647,15.0140824 7.92847059,15.7464353 8.57717647,17.2107882 L10.1876471,16.3947882 C9.88411765,15.5879647 9.39776471,14.8693765 8.73811765,14.3226706 C10.0034118,13.5705529 10.8783529,12.2523176 11.2965882,10.5673765 L9.56011765,10.0443176 C8.89094118,12.2198471 7.86564706,13.2659647 6.04588235,13.2659647 C3.45176471,13.2659647 1.90376471,11.4042 1.90376471,7.53384706 C1.90376471,3.66384706 3.45176471,1.80208235 6.04588235,1.80208235" id="Fill-1"></path>
                        <path d="M38.5237059,11.5086706 L32.3941765,0.212082353 L30.3855882,0.212082353 L30.3855882,14.8556118 L34.4652353,14.8580824 L34.4652353,26.4779647 L30.9298235,26.4779647 L30.9298235,28.0679647 L39.8412353,28.0679647 L39.8412353,26.4779647 L36.3061765,26.4779647 L36.3061765,14.8580824 L40.3646471,14.8580824 L40.3646471,0.212082353 L38.5237059,0.212082353 L38.5237059,11.5086706 Z M32.2265294,13.1007882 L32.2265294,3.55937647 L37.4038235,13.1007882 L32.2265294,13.1007882 Z" id="Fill-3"></path>
                        <path d="M53.3868706,11.5086706 L47.2576941,0.212082353 L45.2491059,0.212082353 L45.2491059,28.0679647 L55.1649882,28.0679647 L55.1649882,26.3106706 L47.0900471,26.3106706 L47.0900471,21.1436118 L53.9099294,21.1436118 L53.9099294,19.3863176 L47.0900471,19.3863176 L47.0900471,14.8580824 L55.2278118,14.8580824 L55.2278118,0.212082353 L53.3868706,0.212082353 L53.3868706,11.5086706 Z M47.0900471,13.1007882 L47.0900471,3.55937647 L52.2673412,13.1007882 L47.0900471,13.1007882 Z" id="Fill-5"></path>
                        <path d="M70.1060824,13.0986353 L61.9644353,13.0986353 L61.9644353,7.93157647 L68.7885529,7.93157647 L68.7885529,6.17428235 L61.9644353,6.17428235 L61.9644353,1.96934118 L69.8339647,1.96934118 L69.8339647,0.212047059 L60.0977294,0.212047059 L60.0977294,28.0679294 L61.9683176,28.0679294 L61.9683176,16.7713412 L68.0982,28.0679294 L70.1060824,28.0679294 L70.1060824,13.0986353 Z M62.9124353,14.8559294 L68.2651412,14.8559294 L68.2651412,24.7209882 L62.9124353,14.8559294 Z" id="Fill-7"></path>
                        <path d="M80.3627294,1.80208235 C82.1824941,1.80208235 83.2081412,2.84784706 83.8773176,5.02372941 L85.6134353,4.50067059 C84.9439059,1.80208235 83.1033176,0.0447882353 80.3627294,0.0447882353 C78.6054353,0.0447882353 77.1622588,0.693141176 76.0116706,1.96937647 C74.8819059,3.24525882 74.3172,5.10737647 74.3172,7.53384706 C74.3172,9.96067059 74.8819059,11.8224353 76.0116706,13.0986706 C76.3847294,13.5123176 76.7888471,13.8589059 77.2243765,14.1402 C76.7888471,14.4211412 76.3847294,14.7677294 76.0116706,15.1813765 C74.8819059,16.4576118 74.3172,18.3193765 74.3172,20.7462 C74.3172,23.1726706 74.8819059,25.0344353 76.0116706,26.3106706 C77.1622588,27.5869059 78.6054353,28.2352588 80.3627294,28.2352588 C83.1033176,28.2352588 84.9439059,26.4779647 85.6134353,23.7793765 L83.8773176,23.2566706 C83.2081412,25.4322 82.1824941,26.4779647 80.3627294,26.4779647 C77.7686118,26.4779647 76.2209647,24.6162 76.2209647,20.7462 C76.2209647,16.9418471 77.7192,15.0822 80.2346118,15.0200824 C80.2773176,15.0207882 80.3196706,15.0229059 80.3627294,15.0229059 C80.4019059,15.0229059 80.4393176,15.0190235 80.4777882,15.0183176 C82.2248471,15.0627882 83.2226118,16.1071412 83.8773176,18.2357294 L85.6134353,17.7130235 C85.2269647,16.1547882 84.4476706,14.9134941 83.3327294,14.1402 C84.4476706,13.3665529 85.2269647,12.1256118 85.6134353,10.5673765 L83.8773176,10.0443176 C83.2226118,12.1729059 82.2248471,13.2172588 80.4777882,13.2617294 C80.4393176,13.2606706 80.4019059,13.2571412 80.3627294,13.2571412 C80.3196706,13.2571412 80.2773176,13.2589059 80.2346118,13.2599647 C77.7192,13.1978471 76.2209647,11.3385529 76.2209647,7.53384706 C76.2209647,3.66384706 77.7686118,1.80208235 80.3627294,1.80208235" id="Fill-9"></path>
                        <polygon id="Fill-11" points="89.3479059 1.96944706 93.9082588 1.96944706 93.9082588 13.1008588 90.2475529 13.1008588 90.2475529 28.0680353 99.7448471 28.0680353 99.7448471 26.3107412 92.0884941 26.3107412 92.0884941 21.1436824 98.4894353 21.1436824 98.4894353 19.3863882 92.0884941 19.3863882 92.0884941 14.8581529 99.5355529 14.8581529 99.5355529 13.1008588 95.7495529 13.1008588 95.7495529 1.96944706 100.309906 1.96944706 100.309906 0.212152941 89.3479059 0.212152941"></polygon>
                        <polygon id="Fill-13" points="105.236118 1.80208235 108.771882 1.80208235 108.771882 13.2659647 105.236118 13.2659647 105.236118 14.8556118 114.147882 14.8556118 114.147882 13.2659647 110.612471 13.2659647 110.612471 1.80208235 114.147882 1.80208235 114.147882 0.212082353 105.236118 0.212082353"></polygon>
                        <polygon id="Fill-15" points="127.703718 11.5086706 121.574541 0.212082353 119.565953 0.212082353 119.565953 14.8556118 121.407247 14.8556118 121.407247 3.55937647 127.536424 14.8556118 129.545012 14.8556118 129.545012 0.212082353 127.703718 0.212082353"></polygon>
                        <path d="M139.816447,9.22849412 L143.100918,9.22849412 C142.912447,11.9270824 141.803859,13.2657882 139.816447,13.2657882 C137.222329,13.2657882 135.674682,11.4040235 135.674682,7.53402353 C135.674682,3.66367059 137.222329,1.80190588 139.816447,1.80190588 C141.636212,1.80190588 142.661859,2.84802353 143.331035,5.02355294 L145.067153,4.50049412 C144.397624,1.76025882 142.577859,0.0446117647 139.816447,0.0446117647 C138.059153,0.0446117647 136.615976,0.693317647 135.465388,1.96955294 C134.335624,3.24543529 133.770565,5.1072 133.770565,7.53402353 C133.770565,9.93967059 134.335624,11.8014353 135.465388,13.0984941 C136.5948,14.3747294 137.996682,15.0230824 139.691153,15.0230824 C141.301976,15.0230824 142.724329,14.2910824 143.372682,12.8895529 L143.477506,14.8557882 L145.004329,14.8557882 L145.004329,7.4712 L139.816447,7.4712 L139.816447,9.22849412 Z" id="Fill-17"></path>
                        <path d="M20.5805647,15.0218824 C20.5982118,15.0218824 20.6151529,15.0229412 20.6320941,15.0229412 C20.7048,15.0229412 20.7753882,15.0204706 20.8463294,15.018 C22.6029176,15.0564706 23.6045647,16.1008235 24.2613882,18.2357647 L25.9978588,17.7130588 C25.6043294,16.128 24.8045647,14.8715294 23.6582118,14.1014118 C24.0443294,13.8275294 24.4025647,13.4932941 24.7329176,13.0987059 C25.7991529,11.8012941 26.3225647,9.93988235 26.3225647,7.53388235 C26.3225647,5.12823529 25.7991529,3.26647059 24.7329176,1.99023529 C23.6656235,0.693176471 22.3060941,0.0448235294 20.6320941,0.0448235294 C18.9588,0.0448235294 17.5989176,0.693176471 16.5319765,1.99023529 C15.4653882,3.26647059 14.9423294,5.12823529 14.9423294,7.53388235 C14.9423294,9.93988235 15.4653882,11.8012941 16.5319765,13.0987059 C16.8704471,13.5035294 17.2385647,13.8444706 17.6366824,14.1222353 C17.1909176,14.4067059 16.7769176,14.7589412 16.3957412,15.1814118 C15.2659765,16.4576471 14.7012706,18.3194118 14.7012706,20.7462353 C14.7012706,23.1727059 15.2659765,25.0344706 16.3957412,26.3107059 C17.5459765,27.5869412 18.9895059,28.2352941 20.7468,28.2352941 C23.4870353,28.2352941 25.3279765,26.478 25.9978588,23.7794118 L24.2613882,23.2567059 C23.5918588,25.4322353 22.5669176,26.478 20.7468,26.478 C18.1530353,26.478 16.6046824,24.6162353 16.6046824,20.7462353 C16.6046824,16.9609412 18.0884471,15.1016471 20.5805647,15.0218824 M17.8710353,11.8852941 C17.1806824,10.944 16.8457412,9.50047059 16.8457412,7.53388235 C16.8457412,5.56729412 17.1806824,4.12411765 17.8710353,3.20364706 C18.5613882,2.26235294 19.4818588,1.80211765 20.6320941,1.80211765 C21.7826824,1.80211765 22.7035059,2.26235294 23.3938588,3.20364706 C24.0842118,4.12411765 24.4188,5.56729412 24.4188,7.53388235 C24.4188,9.50047059 24.0842118,10.944 23.3938588,11.8852941 C22.7338588,12.7651765 21.8606824,13.2197647 20.7799765,13.2582353 C20.7686824,13.2582353 20.7580941,13.2571765 20.7468,13.2571765 C20.6797412,13.2571765 20.6144471,13.2596471 20.5484471,13.2617647 C19.4380941,13.2391765 18.5440941,12.7828235 17.8710353,11.8852941" id="Fill-19"></path>
                    </g>
                    <polygon id="Fill-22" points="66.4936941 0.419329412 65.1793412 5.36297647 63.8484 1.03097647 63.3606353 1.03097647 62.0296941 5.36297647 60.7153412 0.419329412 60.1531059 0.419329412 61.7402824 6.2058 62.2944 6.2058 63.6006353 1.87415294 64.9149882 6.2058 65.4687529 6.2058 67.0559294 0.419329412"></polygon>
                    <polygon id="Fill-23" points="68.9468824 0.419329412 68.9468824 6.2058 72.2948824 6.2058 72.2948824 5.69368235 69.4925294 5.69368235 69.4925294 3.37838824 71.7160588 3.37838824 71.7160588 2.86627059 69.4925294 2.86627059 69.4925294 0.9318 72.2122941 0.9318 72.2122941 0.419329412"></polygon>
                    <polygon id="Fill-24" points="74.2280824 0.419329412 74.2280824 6.2058 77.4853765 6.2058 77.4853765 5.69368235 74.7737294 5.69368235 74.7737294 0.419329412"></polygon>
                    <polygon id="Fill-25" points="79.2446824 0.419329412 79.2446824 6.2058 82.5019765 6.2058 82.5019765 5.69368235 79.7903294 5.69368235 79.7903294 0.419329412"></polygon>
                    <g id="Group-58" transform="translate(83.647059, 0.104824)">
                        <path d="M4.86349412,4.51387059 C4.56596471,5.53881176 3.7722,6.1674 2.68125882,6.1674 C1.97855294,6.1674 1.37502353,5.91081176 0.870670588,5.39834118 C0.374788235,4.88587059 0.126670588,4.15845882 0.126670588,3.20763529 C0.126670588,2.24057647 0.432670588,1.43869412 0.920435294,0.975988235 C1.40784706,0.504811765 2.01984706,0.248223529 2.68125882,0.248223529 C3.7722,0.248223529 4.56596471,0.876458824 4.86349412,1.90175294 L4.32631765,2.05881176 C4.10290588,1.23187059 3.54067059,0.760694118 2.68125882,0.760694118 C2.08584706,0.760694118 1.60655294,0.975988235 1.24267059,1.40551765 C0.878788235,1.8354 0.697023529,2.43892941 0.697023529,3.20763529 C0.697023529,3.97669412 0.878788235,4.57987059 1.24267059,5.00975294 C1.60655294,5.43963529 2.08584706,5.65457647 2.68125882,5.65457647 C3.54067059,5.65457647 4.10290588,5.18375294 4.32631765,4.35681176 L4.86349412,4.51387059 Z" id="Fill-26"></path>
                        <path d="M9.06981176,0.760764706 C8.49945882,0.760764706 8.02792941,0.975705882 7.65628235,1.40558824 C7.28428235,1.827 7.10216471,2.43052941 7.10216471,3.20770588 C7.10216471,3.98488235 7.28428235,4.58841176 7.65628235,5.01829412 C8.02792941,5.43970588 8.49945882,5.65464706 9.06981176,5.65464706 C9.64016471,5.65464706 10.1028706,5.43970588 10.4752235,5.01829412 C10.8472235,4.58841176 11.0371059,3.98488235 11.0371059,3.20770588 C11.0371059,2.43052941 10.8472235,1.827 10.4752235,1.40558824 C10.1028706,0.975705882 9.64016471,0.760764706 9.06981176,0.760764706 M9.06981176,0.248294118 C9.77251765,0.248294118 10.3760471,0.521117647 10.8638118,1.06676471 C11.3596941,1.60394118 11.6078118,2.32323529 11.6078118,3.20770588 C11.6078118,4.09217647 11.3596941,4.81147059 10.8638118,5.35676471 C10.3760471,5.89429412 9.77251765,6.16711765 9.06981176,6.16711765 C8.36710588,6.16711765 7.76357647,5.89429412 7.26769412,5.35676471 C6.77992941,4.81147059 6.53181176,4.09217647 6.53181176,3.20770588 C6.53181176,2.32323529 6.77992941,1.60394118 7.26769412,1.06676471 C7.76357647,0.521117647 8.36710588,0.248294118 9.06981176,0.248294118" id="Fill-28"></path>
                        <polygon id="Fill-30" points="13.6561765 0.314435294 14.3341765 0.314435294 16.0533529 4.67114118 17.7728824 0.314435294 18.4508824 0.314435294 18.4508824 6.10090588 17.9052353 6.10090588 17.9052353 1.37255294 16.227 5.57184706 15.8797059 5.57184706 14.2018235 1.37255294 14.2018235 6.10090588 13.6561765 6.10090588"></polygon>
                        <polygon id="Fill-32" points="20.6481176 0.314435294 23.9135294 0.314435294 23.9135294 0.826905882 21.1937647 0.826905882 21.1937647 2.76137647 23.4176471 2.76137647 23.4176471 3.27384706 21.1937647 3.27384706 21.1937647 5.58843529 23.9957647 5.58843529 23.9957647 6.10090588 20.6481176 6.10090588"></polygon>
                        <path d="M33.0462,6.10108235 L32.9802,5.20849412 C32.6738471,5.80355294 32.0212588,6.16708235 31.2606706,6.16708235 C30.5576118,6.16708235 29.9625529,5.91084706 29.4666706,5.38990588 C28.9704353,4.86931765 28.7226706,4.14190588 28.7226706,3.20767059 C28.7226706,2.27343529 28.9704353,1.54637647 29.4666706,1.02543529 C29.9625529,0.504847059 30.5576118,0.248258824 31.2606706,0.248258824 C32.3929059,0.248258824 33.2029059,0.884964706 33.4923176,1.93461176 L32.9551412,2.08355294 C32.6904353,1.23190588 32.0953765,0.760729412 31.2606706,0.760729412 C30.6733765,0.760729412 30.1940824,0.976023529 29.8305529,1.40555294 C29.4747882,1.83543529 29.2926706,2.43896471 29.2926706,3.20767059 C29.2926706,3.97637647 29.4747882,4.57990588 29.8305529,5.00978824 C30.1940824,5.43967059 30.6733765,5.65461176 31.2606706,5.65461176 C32.3597294,5.65461176 32.9717294,4.97661176 32.9802,3.69578824 L31.6407882,3.69578824 L31.6407882,3.18296471 L33.5254941,3.18296471 L33.5254941,6.10108235 L33.0462,6.10108235 Z" id="Fill-34"></path>
                        <polygon id="Fill-36" points="35.6071059 0.314435294 38.8725176 0.314435294 38.8725176 0.826905882 36.1527529 0.826905882 36.1527529 2.76137647 38.3762824 2.76137647 38.3762824 3.27384706 36.1527529 3.27384706 36.1527529 5.58843529 38.9551059 5.58843529 38.9551059 6.10090588 35.6071059 6.10090588"></polygon>
                        <polygon id="Fill-38" points="44.3934 0.314435294 44.9390471 0.314435294 44.9390471 6.10090588 44.2942235 6.10090588 41.4258706 1.19890588 41.4258706 6.10090588 40.8798706 6.10090588 40.8798706 0.314435294 41.5246941 0.314435294 44.3934 5.23302353"></polygon>
                        <path d="M49.5255176,0.760764706 C48.9548118,0.760764706 48.4836353,0.975705882 48.1116353,1.40558824 C47.7392824,1.827 47.5578706,2.43052941 47.5578706,3.20770588 C47.5578706,3.98488235 47.7392824,4.58841176 48.1116353,5.01829412 C48.4836353,5.43970588 48.9548118,5.65464706 49.5255176,5.65464706 C50.0955176,5.65464706 50.5589294,5.43970588 50.9302235,5.01829412 C51.3025765,4.58841176 51.4928118,3.98488235 51.4928118,3.20770588 C51.4928118,2.43052941 51.3025765,1.827 50.9302235,1.40558824 C50.5589294,0.975705882 50.0955176,0.760764706 49.5255176,0.760764706 M49.5255176,0.248294118 C50.2278706,0.248294118 50.8314,0.521117647 51.3191647,1.06676471 C51.8150471,1.60394118 52.0628118,2.32323529 52.0628118,3.20770588 C52.0628118,4.09217647 51.8150471,4.81147059 51.3191647,5.35676471 C50.8314,5.89429412 50.2278706,6.16711765 49.5255176,6.16711765 C48.8224588,6.16711765 48.2192824,5.89429412 47.7230471,5.35676471 C47.2356353,4.81147059 46.9875176,4.09217647 46.9875176,3.20770588 C46.9875176,2.32323529 47.2356353,1.60394118 47.7230471,1.06676471 C48.2192824,0.521117647 48.8224588,0.248294118 49.5255176,0.248294118" id="Fill-40"></path>
                        <polygon id="Fill-42" points="54.1117059 0.314435294 54.7893529 0.314435294 56.5092353 4.67114118 58.2284118 0.314435294 58.9064118 0.314435294 58.9064118 6.10090588 58.3607647 6.10090588 58.3607647 1.37255294 56.6825294 5.57184706 56.3355882 5.57184706 54.6573529 1.37255294 54.6573529 6.10090588 54.1117059 6.10090588"></polygon>
                        <polygon id="Fill-44" points="61.0953882 0.314435294 64.3608 0.314435294 64.3608 0.826905882 61.6410353 0.826905882 61.6410353 2.76137647 63.8645647 2.76137647 63.8645647 3.27384706 61.6410353 3.27384706 61.6410353 5.58843529 64.4433882 5.58843529 64.4433882 6.10090588 61.0953882 6.10090588"></polygon>
                        <path d="M73.9150235,4.51387059 C73.6174941,5.53881176 72.8237294,6.1674 71.7324353,6.1674 C71.0300824,6.1674 70.4265529,5.91081176 69.9222,5.39834118 C69.4263176,4.88587059 69.1782,4.15845882 69.1782,3.20763529 C69.1782,2.24057647 69.4838471,1.43869412 69.9719647,0.975988235 C70.4597294,0.504811765 71.0713765,0.248223529 71.7324353,0.248223529 C72.8237294,0.248223529 73.6174941,0.876458824 73.9150235,1.90175294 L73.3778471,2.05881176 C73.1547882,1.23187059 72.5925529,0.760694118 71.7324353,0.760694118 C71.1373765,0.760694118 70.6577294,0.975988235 70.2942,1.40551765 C69.9306706,1.8354 69.7485529,2.43892941 69.7485529,3.20763529 C69.7485529,3.97669412 69.9306706,4.57987059 70.2942,5.00975294 C70.6577294,5.43963529 71.1373765,5.65457647 71.7324353,5.65457647 C72.5925529,5.65457647 73.1547882,5.18375294 73.3778471,4.35681176 L73.9150235,4.51387059 Z" id="Fill-46"></path>
                        <path d="M77.4761294,1.05857647 L76.4593059,3.94351765 L78.4933059,3.94351765 L77.4761294,1.05857647 Z M77.2364824,0.314576471 L77.7161294,0.314576471 L79.8073059,6.10104706 L79.2454235,6.10104706 L78.6666,4.45598824 L76.2860118,4.45598824 L75.7071882,6.10104706 L75.1453059,6.10104706 L77.2364824,0.314576471 Z" id="Fill-48"></path>
                        <polygon id="Fill-50" points="81.4346471 0.314435294 82.1126471 0.314435294 83.8321765 4.67114118 85.5517059 0.314435294 86.2293529 0.314435294 86.2293529 6.10090588 85.6837059 6.10090588 85.6837059 1.37255294 84.0058235 5.57184706 83.6585294 5.57184706 81.9802941 1.37255294 81.9802941 6.10090588 81.4346471 6.10090588"></polygon>
                        <path d="M90.3943412,2.99287059 C91.1464588,2.99287059 91.4856353,2.57145882 91.4856353,1.91004706 C91.4856353,1.24863529 91.1464588,0.826870588 90.3943412,0.826870588 L88.9638706,0.826870588 L88.9638706,2.99287059 L90.3943412,2.99287059 Z M88.9638706,3.50534118 L88.9638706,6.10122353 L88.4182235,6.10122353 L88.4182235,0.3144 L90.3862235,0.3144 C91.4192824,0.3144 92.0559882,0.917929412 92.0559882,1.91004706 C92.0559882,2.90181176 91.4192824,3.50534118 90.3862235,3.50534118 L88.9638706,3.50534118 Z" id="Fill-52"></path>
                        <path d="M93.9061765,0.314435294 L94.4518235,0.314435294 L94.4518235,4.29878824 C94.4518235,5.06784706 94.9642941,5.65478824 95.8900588,5.65478824 C96.8158235,5.65478824 97.3282941,5.06784706 97.3282941,4.29878824 L97.3282941,0.314435294 L97.8739412,0.314435294 L97.8739412,4.24937647 C97.8739412,4.85255294 97.6840588,5.32372941 97.2954706,5.66290588 C96.915,6.00172941 96.4438235,6.16725882 95.8900588,6.16725882 C95.3362941,6.16725882 94.8651176,6.00172941 94.4765294,5.66290588 C94.0960588,5.32372941 93.9061765,4.85255294 93.9061765,4.24937647 L93.9061765,0.314435294 Z" id="Fill-54"></path>
                        <path d="M102.287153,1.42221176 C102.055976,0.984211765 101.733388,0.7608 101.328212,0.7608 C100.823859,0.7608 100.526682,1.16562353 100.526682,1.60397647 C100.526682,2.12491765 100.923388,2.45562353 101.419271,2.6868 C101.667035,2.79444706 101.915153,2.91832941 102.155153,3.04256471 C102.651035,3.28221176 103.047741,3.76962353 103.047741,4.47232941 C103.047741,4.98515294 102.890682,5.39844706 102.576565,5.70444706 C102.270565,6.01009412 101.873859,6.16715294 101.394565,6.16715294 C100.460329,6.16715294 99.8239765,5.53891765 99.6252706,4.60468235 L100.096447,4.32374118 C100.327976,5.15032941 100.6668,5.65468235 101.394565,5.65468235 C102.047506,5.65468235 102.477388,5.24138824 102.477388,4.48891765 C102.477388,3.95985882 102.0888,3.6048 101.592918,3.37291765 C100.890212,3.05068235 99.9644471,2.67021176 99.9810353,1.66997647 C99.9810353,1.24856471 100.113035,0.909741176 100.369271,0.645035294 C100.633624,0.380682353 100.956212,0.248329412 101.328212,0.248329412 C101.592918,0.248329412 101.815976,0.289623529 102.006212,0.380682353 C102.3948,0.553976471 102.510565,0.744211765 102.733624,1.14091765 L102.287153,1.42221176 Z" id="Fill-56"></path>
                    </g>
                </g>
            </g>
        </g>
    </g>
</svg>