<?xml version="1.0" encoding="UTF-8"?>
<svg width="40px" height="40px" viewBox="0 0 40 40" version="1.1" xmlns="http://www.w3.org/2000/svg" xmlns:xlink="http://www.w3.org/1999/xlink">
    <!-- Generator: Sketch 45.2 (43514) - http://www.bohemiancoding.com/sketch -->
    <title>Group 2</title>
    <desc>Created with Sketch.</desc>
    <defs></defs>
    <g id="Event-Listing---Courses" stroke="none" stroke-width="1" fill="none" fill-rule="evenodd">
        <g id="event-listing-courses" transform="translate(-279.000000, -800.000000)">
            <g id="BODY" transform="translate(96.000000, 472.000000)">
                <g id="course-types" transform="translate(84.000000, 289.000000)">
                    <g id="Icon-key" transform="translate(99.000000, 39.000000)">
                        <g id="Group-2">
                            <rect id="40-square-copy-2" fill="#FFFFFF" x="0" y="0" width="40" height="40"></rect>
                            <g id="noun_816611" transform="translate(5.000000, 5.000000)" fill-rule="nonzero" fill="#001871">
                                <path d="M23.94496,16.54432 L23.04,17.44928 L23.04,19.47936 C23.04,20.9872 21.98784,22.03936 20.48,22.03936 C19.77216,22.03936 19.2,21.46592 19.2,20.75936 C19.2,20.05536 19.76704,19.48448 20.46976,19.47936 L20.48,16.91936 C20.48,16.58016 20.6144,16.25376 20.85504,16.0144 L21.23008,15.63936 L20.85504,15.26432 C20.6144,15.02496 20.48,14.69856 20.48,14.35936 L20.48,11.80576 C19.81696,11.752 19.25248,11.19648 19.25248,10.52448 C19.25248,9.81792 19.77216,9.23936 20.48,9.23936 C21.98784,9.23936 23.04,10.29152 23.04,11.79936 L23.04,13.82944 L23.94496,14.7344 C24.44544,15.23488 24.44544,16.04384 23.94496,16.54432 L23.94496,16.54432 Z M17.8816,10.8304 L15.3216,21.0704 C15.17568,21.65152 14.65472,22.03936 14.08128,22.03936 C13.97888,22.03936 13.87392,22.02784 13.77024,22.00096 C13.08416,21.82944 12.6656,21.1344 12.8384,20.44832 L15.3984,10.20832 C15.56864,9.52352 16.26112,9.10368 16.94976,9.27776 C17.63584,9.44928 18.05312,10.14432 17.8816,10.8304 L17.8816,10.8304 Z M9.86496,16.0144 C10.10432,16.25376 10.24,16.58016 10.24,16.91936 L10.24,19.47296 C10.90304,19.52672 11.46752,20.08224 11.46752,20.75424 C11.46752,21.4608 10.94784,22.03936 10.24,22.03936 C8.73216,22.03936 7.68,20.9872 7.68,19.47936 L7.68,17.44928 L6.77504,16.54432 C6.27456,16.04384 6.27456,15.23488 6.77504,14.7344 L7.68,13.82944 L7.68,11.79936 C7.68,10.29152 8.73216,9.23936 10.24,9.23936 C10.94784,9.23936 11.52,9.8128 11.52,10.51936 C11.52,11.22336 10.95296,11.79424 10.25024,11.79936 L10.24,14.35936 C10.24,14.69856 10.10432,15.02496 9.86496,15.26432 L9.48992,15.63936 L9.86496,16.0144 Z M25.60384,0.27936 L5.11616,0.27936 C2.29504,0.27936 0,2.5744 0,5.39552 L0,25.8832 C0,28.70432 2.29504,30.99936 5.11616,30.99936 L25.60384,30.99936 C28.42496,30.99936 30.72,28.70432 30.72,25.8832 L30.72,5.39552 C30.72,2.5744 28.42496,0.27936 25.60384,0.27936 L25.60384,0.27936 Z" id="Shape"></path>
                            </g>
                        </g>
                    </g>
                </g>
            </g>
        </g>
    </g>
</svg>