<?xml version="1.0" encoding="UTF-8"?>
<svg width="40px" height="40px" viewBox="0 0 40 40" version="1.1" xmlns="http://www.w3.org/2000/svg" xmlns:xlink="http://www.w3.org/1999/xlink">
    <!-- Generator: Sketch 45.2 (43514) - http://www.bohemiancoding.com/sketch -->
    <title>discuss square icon copy</title>
    <desc>Created with Sketch.</desc>
    <defs></defs>
    <g id="Event-Listing---Courses" stroke="none" stroke-width="1" fill="none" fill-rule="evenodd">
        <g id="event-listing-courses" transform="translate(-472.000000, -800.000000)">
            <g id="BODY" transform="translate(96.000000, 472.000000)">
                <g id="course-types" transform="translate(84.000000, 289.000000)">
                    <g id="Icon-key" transform="translate(99.000000, 39.000000)">
                        <g id="discuss-square-icon-copy" transform="translate(193.000000, 0.000000)">
                            <rect id="Rectangle" fill="#FFFFFF" x="0" y="0" width="40" height="40"></rect>
                            <g id="discuss-1-copy" transform="translate(6.000000, 4.000000)" fill-rule="nonzero" fill="#E75153">
                                <path d="M9.6,4.60487805 C9.6,2.14634146 11.5902439,0.156097561 14.0487805,0.156097561 C16.5073171,0.156097561 18.497561,2.14634146 18.497561,4.60487805 C18.497561,7.06341463 16.5073171,9.01463415 14.0487805,9.01463415 C11.5902439,9.01463415 9.6,7.02439024 9.6,4.60487805 Z M16.195122,12.0585366 C16.2341463,11.0829268 16.5853659,10.1853659 17.0926829,9.44390244 C16.702439,9.36585366 16.3121951,9.32682927 15.9219512,9.32682927 L12.1756098,9.32682927 C11.7853659,9.32682927 11.395122,9.36585366 11.004878,9.44390244 C11.5902439,10.2243902 11.902439,11.2 11.902439,12.2536585 C12.604878,11.8634146 13.3853659,11.6682927 14.2439024,11.6682927 C14.9463415,11.6292683 15.5707317,11.7853659 16.195122,12.0585366 Z M16.9365854,12.4487805 C18.2243902,13.2682927 19.1219512,14.6341463 19.2780488,16.195122 C19.7853659,16.4292683 20.3707317,16.5853659 20.995122,16.5853659 C23.2585366,16.5853659 25.0926829,14.7512195 25.0926829,12.4878049 C25.0926829,10.2243902 23.2585366,8.3902439 20.995122,8.3902439 C18.7707317,8.42926829 16.9756098,10.2243902 16.9365854,12.4487805 Z M14.2439024,20.8 C16.5073171,20.8 18.3414634,18.9658537 18.3414634,16.702439 C18.3414634,14.4390244 16.5073171,12.604878 14.2439024,12.604878 C11.9804878,12.604878 10.1463415,14.4390244 10.1463415,16.702439 C10.1463415,18.9658537 11.9804878,20.8 14.2439024,20.8 Z M16,21.0731707 L12.5268293,21.0731707 C9.63902439,21.0731707 7.29756098,23.4146341 7.29756098,26.302439 L7.29756098,30.5560976 L7.29756098,30.6341463 L7.57073171,30.7121951 C10.302439,31.5707317 12.7219512,31.8439024 14.6731707,31.8439024 C18.497561,31.8439024 20.7219512,30.7512195 20.8780488,30.6731707 L21.1512195,30.5170732 L21.1902439,30.5170732 L21.1902439,26.302439 C21.2292683,23.4146341 18.8487805,21.0731707 16,21.0731707 Z M22.7512195,16.8585366 L19.3170732,16.8585366 C19.2780488,18.2243902 18.6926829,19.4731707 17.7560976,20.3707317 C20.3317073,21.1512195 22.204878,23.4926829 22.204878,26.302439 L22.204878,27.5902439 C25.6,27.4731707 27.5512195,26.497561 27.6682927,26.4585366 L27.9414634,26.302439 L27.9804878,26.302439 L27.9804878,22.0878049 C27.9804878,19.2 25.6390244,16.8585366 22.7512195,16.8585366 Z M7.10243902,16.5853659 C7.88292683,16.5853659 8.62439024,16.3512195 9.28780488,15.9609756 C9.48292683,14.6731707 10.1853659,13.502439 11.2,12.7219512 C11.2,12.6439024 11.2,12.5658537 11.2,12.4878049 C11.2,10.2243902 9.36585366,8.3902439 7.10243902,8.3902439 C4.83902439,8.3902439 3.00487805,10.2243902 3.00487805,12.4878049 C3.00487805,14.7512195 4.83902439,16.5853659 7.10243902,16.5853659 Z M10.7707317,20.3707317 C9.83414634,19.4731707 9.24878049,18.2634146 9.2097561,16.897561 C9.09268293,16.897561 8.97560976,16.897561 8.8195122,16.897561 L5.34634146,16.897561 C2.45853659,16.897561 0.117073171,19.2390244 0.117073171,22.1268293 L0.117073171,26.3804878 L0.117073171,26.4585366 L0.390243902,26.5365854 C2.61463415,27.2390244 4.56585366,27.5512195 6.28292683,27.6292683 L6.28292683,26.3414634 C6.32195122,23.4926829 8.19512195,21.1121951 10.7707317,20.3707317 Z" id="Shape"></path>
                            </g>
                        </g>
                    </g>
                </g>
            </g>
        </g>
    </g>
</svg>