<?xml version="1.0" encoding="UTF-8"?>
<svg width="40px" height="40px" viewBox="0 0 40 40" version="1.1" xmlns="http://www.w3.org/2000/svg" xmlns:xlink="http://www.w3.org/1999/xlink">
    <!-- Generator: Sketch 45.2 (43514) - http://www.bohemiancoding.com/sketch -->
    <title>lab square icon copy</title>
    <desc>Created with Sketch.</desc>
    <defs></defs>
    <g id="Event-Listing---Courses" stroke="none" stroke-width="1" fill="none" fill-rule="evenodd">
        <g id="event-listing-courses" transform="translate(-702.000000, -800.000000)">
            <g id="BODY" transform="translate(96.000000, 472.000000)">
                <g id="course-types" transform="translate(84.000000, 289.000000)">
                    <g id="Icon-key" transform="translate(99.000000, 39.000000)">
                        <g id="lab-square-icon-copy" transform="translate(423.000000, 0.000000)">
                            <rect id="40-square" fill="#FFFFFF" x="0" y="0" width="40" height="40"></rect>
                            <g id="lab-4" transform="translate(4.000000, 4.000000)" fill-rule="nonzero" fill="#E75153">
                                <path d="M28.3197419,25.3851613 C28.2810323,25.4458065 28.1945806,25.5477419 28.0590968,25.5477419 L21.792,25.5477419 C21.8113548,25.5077419 21.8242581,25.4651613 21.8436129,25.4251613 C21.9468387,25.2006452 22.0371613,24.9709677 22.1261935,24.74 C22.1778065,24.6045161 22.2332903,24.4716129 22.2784516,24.3348387 C22.352,24.1167742 22.4100645,23.8935484 22.4694194,23.6690323 C22.5094194,23.5206452 22.5545806,23.3735484 22.588129,23.2225806 C22.6410323,22.9825806 22.6745806,22.736129 22.712,22.4909677 C22.7313548,22.3554839 22.7610323,22.2225806 22.7752258,22.0858065 C22.8165161,21.7025806 22.8397419,21.3141935 22.8397419,20.9206452 C22.8397419,20.7103226 22.832,20.5025806 22.8178065,20.296129 C22.7829677,19.8058065 22.7042581,19.3322581 22.5997419,18.8703226 C22.5894194,18.8277419 22.5829677,18.7851613 22.5726452,18.7425806 C22.4668387,18.3064516 22.3261935,17.8845161 22.1636129,17.4741935 C22.1403871,17.4148387 22.1184516,17.3541935 22.0939355,17.296129 C21.9287742,16.9 21.7365161,16.5193548 21.5249032,16.1503226 C21.4887742,16.0870968 21.4526452,16.0251613 21.4152258,15.9619355 C21.1971613,15.6019355 20.9610323,15.2535484 20.7055484,14.9206452 C20.6616774,14.863871 20.6165161,14.8083871 20.5713548,14.7529032 C20.308129,14.4212903 20.0294194,14.103871 19.7339355,13.8032258 C19.6913548,13.7580645 19.6461935,13.7154839 19.6023226,13.6729032 C19.2939355,13.3683871 18.9752258,13.0767742 18.6423226,12.8058065 C18.6113548,12.7812903 18.5803871,12.7580645 18.5494194,12.7335484 C18.1997419,12.4548387 17.8410323,12.1916129 17.4732903,11.9503226 C17.468129,11.9477419 17.4629677,11.943871 17.4578065,11.94 C17.0874839,11.6987097 16.7094194,11.4819355 16.3274839,11.2806452 C16.3016774,11.2677419 16.2784516,11.2509677 16.2526452,11.2380645 C16.2797419,11.2290323 16.2990968,11.2109677 16.3249032,11.2019355 C16.5507097,11.1232258 16.7636129,11.0212903 16.955871,10.8870968 C16.9803871,10.8703226 16.9997419,10.8496774 17.0242581,10.8316129 C17.1997419,10.6987097 17.3545806,10.5451613 17.4913548,10.3735484 C17.5171613,10.3412903 17.5455484,10.3116129 17.5700645,10.2780645 C17.7068387,10.0883871 17.8152258,9.88064516 17.8965161,9.65741935 C17.9145806,9.61096774 17.9261935,9.56451613 17.9403871,9.51677419 C18.0126452,9.27935484 18.0629677,9.03419355 18.0629677,8.77483871 L18.0629677,7.48322581 L20.6449032,7.48322581 L20.6449032,10.063871 C20.6449032,10.2741935 20.6965161,10.4793548 20.7932903,10.6651613 L28.3713548,25.0780645 C28.4100645,25.183871 28.3713548,25.3051613 28.3197419,25.3851613 L28.3197419,25.3851613 Z M15.4771613,7.48322581 L15.4823226,7.48322581 L15.4836129,8.77354839 L14.1932903,8.77354839 L9.032,8.77354839 C9.032,8.77354839 9.03070968,8.77483871 9.02941935,8.77483871 L7.74167742,8.77483871 L7.74167742,7.48322581 L15.4771613,7.48322581 Z M23.2242581,3.61225806 L23.2268387,4.90258065 L21.9365161,4.90387097 L21.9352258,4.90258065 L15.4836129,4.90258065 L15.4836129,3.61225806 L23.2242581,3.61225806 Z M30.7055484,23.9774194 C30.6965161,23.9580645 30.6861935,23.9387097 30.6771613,23.9193548 L23.2255484,9.74516129 L23.2255484,7.48322581 C24.6474839,7.48322581 25.8049032,6.32580645 25.8049032,4.90387097 L25.8049032,3.61225806 C25.8049032,2.18903226 24.6474839,1.0316129 23.2255484,1.0316129 L15.4836129,1.0316129 C14.0603871,1.0316129 12.9029677,2.18903226 12.9029677,3.61225806 L12.9029677,4.90258065 L7.74167742,4.90258065 C6.31845161,4.90258065 5.16103226,6.06 5.16103226,7.48322581 L5.16103226,8.77483871 C5.16103226,9.93096774 5.93135484,10.9 6.98167742,11.2277419 C3.29909677,13.1 -0.000258064516,16.7283871 -0.000258064516,20.9206452 C-0.000258064516,27.0290323 5.12232258,31.9993548 11.4203871,31.9993548 C14.8797419,31.9993548 17.9778065,30.4935484 20.0745806,28.1283871 L28.0590968,28.1283871 C29.0423226,28.1283871 29.952,27.6225806 30.4939355,26.776129 C31.0410323,25.9206452 31.1197419,24.8741935 30.7055484,23.9774194 L30.7055484,23.9774194 Z" id="Shape"></path>
                            </g>
                        </g>
                    </g>
                </g>
            </g>
        </g>
    </g>
</svg>