<?xml version="1.0" encoding="UTF-8" standalone="no"?>
<svg width="20px" height="20px" viewBox="0 0 20 20" version="1.1" xmlns="http://www.w3.org/2000/svg" xmlns:xlink="http://www.w3.org/1999/xlink">
    <!-- Generator: Sketch 39.1 (31720) - http://www.bohemiancoding.com/sketch -->
    <title>facebook</title>
    <desc>Created with Sketch.</desc>
    <defs></defs>
    <g id="DEFAULT---Accommodation" stroke="none" stroke-width="1" fill="none" fill-rule="evenodd" fill-opacity="0.8">
        <g id="DEFAULT---Accommodation---L-1024+-(1280-max-width)" transform="translate(-733.000000, -2604.000000)" fill="#FFFFFF">
            <g id="FOOTER-Copy" transform="translate(0.000000, 2393.000000)">
                <g id="Footer---L-test-" transform="translate(0.000000, 110.000000)">
                    <g id="Social-Media" transform="translate(688.000000, 101.000000)">
                        <path d="M65,3.33333333 C65,1.58194444 63.4191667,0 61.6666667,0 L48.3333333,0 C46.5808333,0 45,1.58194444 45,3.33333333 L45,16.6666667 C45,18.4180556 46.5808333,20 48.3333333,20 L55,20 L55,12.4447222 L52.5552778,12.4447222 L52.5552778,9.11138889 L55,9.11138889 L55,7.8125 C55,5.57277778 56.6819444,3.55583333 58.75,3.55583333 L61.4441667,3.55583333 L61.4441667,6.88916667 L58.75,6.88916667 C58.455,6.88916667 58.1108333,7.24722222 58.1108333,7.78333333 L58.1108333,9.11138889 L61.4441667,9.11138889 L61.4441667,12.4447222 L58.1108333,12.4447222 L58.1108333,20 L61.6666667,20 C63.4191667,20 65,18.4180556 65,16.6666667 L65,3.33333333 Z" id="facebook"></path>
                    </g>
                </g>
            </g>
        </g>
    </g>
</svg>