<?xml version="1.0" encoding="UTF-8" standalone="no"?>
<svg width="20px" height="20px" viewBox="0 0 20 20" version="1.1" xmlns="http://www.w3.org/2000/svg" xmlns:xlink="http://www.w3.org/1999/xlink">
    <!-- Generator: Sketch 39.1 (31720) - http://www.bohemiancoding.com/sketch -->
    <title>facebook</title>
    <desc>Created with Sketch.</desc>
    <defs></defs>
    <g id="DEFAULT---Accommodation" stroke="none" stroke-width="1" fill="none" fill-rule="evenodd">
        <g id="DEFAULT---Accommodation---L-1024+-(1280-max-width)" transform="translate(-735.000000, -2548.000000)" fill="#CB2C30">
            <g id="FOOTER-v8-Copy-2" transform="translate(-375.000000, 2328.000000)">
                <g id="Social-Media" transform="translate(375.000000, 210.000000)">
                    <path d="M755,13.3333333 C755,11.5819444 753.419167,10 751.666667,10 L738.333333,10 C736.580833,10 735,11.5819444 735,13.3333333 L735,26.6666667 C735,28.4180556 736.580833,30 738.333333,30 L745,30 L745,22.4447222 L742.555278,22.4447222 L742.555278,19.1113889 L745,19.1113889 L745,17.8125 C745,15.5727778 746.681944,13.5558333 748.75,13.5558333 L751.444167,13.5558333 L751.444167,16.8891667 L748.75,16.8891667 C748.455,16.8891667 748.110833,17.2472222 748.110833,17.7833333 L748.110833,19.1113889 L751.444167,19.1113889 L751.444167,22.4447222 L748.110833,22.4447222 L748.110833,30 L751.666667,30 C753.419167,30 755,28.4180556 755,26.6666667 L755,13.3333333 Z" id="facebook"></path>
                </g>
            </g>
        </g>
    </g>
</svg>