<?xml version="1.0" encoding="UTF-8"?>
<svg width="20px" height="20px" viewBox="0 0 20 20" version="1.1" xmlns="http://www.w3.org/2000/svg" xmlns:xlink="http://www.w3.org/1999/xlink">
    <!-- Generator: Sketch 45.1 (43504) - http://www.bohemiancoding.com/sketch -->
    <title>facebook_logo_highlight</title>
    <desc>Created with Sketch.</desc>
    <defs></defs>
    <g id="Page-1" stroke="none" stroke-width="1" fill="none" fill-rule="evenodd">
        <g id="facebook_logo_highlight" fill-rule="nonzero" fill="#EA994D">
            <path d="M20,3.3333333 C20,1.5819444 18.419167,0 16.666667,0 L3.333333,0 C1.580833,0 0,1.5819444 0,3.3333333 L0,16.6666667 C0,18.4180556 1.580833,20 3.333333,20 L10,20 L10,12.4447222 L7.555278,12.4447222 L7.555278,9.1113889 L10,9.1113889 L10,7.8125 C10,5.5727778 11.681944,3.5558333 13.75,3.5558333 L16.444167,3.5558333 L16.444167,6.8891667 L13.75,6.8891667 C13.455,6.8891667 13.110833,7.2472222 13.110833,7.7833333 L13.110833,9.1113889 L16.444167,9.1113889 L16.444167,12.4447222 L13.110833,12.4447222 L13.110833,20 L16.666667,20 C18.419167,20 20,18.4180556 20,16.6666667 L20,3.3333333 Z" id="facebook"></path>
        </g>
    </g>
</svg>