<?xml version="1.0" encoding="UTF-8"?>
<svg width="1440px" height="130px" viewBox="0 0 1440 130" version="1.1" xmlns="http://www.w3.org/2000/svg" xmlns:xlink="http://www.w3.org/1999/xlink">
    <!-- Generator: Sketch 45.1 (43504) - http://www.bohemiancoding.com/sketch -->
    <title>bars</title>
    <desc>Created with Sketch.</desc>
    <defs></defs>
    <g id="Symbols" stroke="none" stroke-width="1" fill="none" fill-rule="evenodd">
        <g id="footer/-large">
            <g id="bars">
                <g transform="translate(0.000000, -14.000000)">
                    <polygon id="Fill-1" fill="#572A85" points="0 118.179173 1211.30447 118.179173 1211.30447 59.0904227 0 59.0904227"></polygon>
                    <polygon id="Fill-6" fill="#86368B" points="912.929246 148.241283 1457.41688 148.241283 1457.41688 118.592357 912.929246 118.592357"></polygon>
                    <polygon id="Fill-7" fill="#004E9B" points="912.877406 148.23961 1108.4254 148.23961 1108.4254 118.592357 912.877406 118.592357"></polygon>
                    <polygon id="Fill-8" fill="#004E9B" points="1137.38953 148.23961 1156.93594 148.23961 1156.93594 118.592357 1137.38953 118.592357"></polygon>
                    <polygon id="Fill-9" fill="#004E9B" points="1228.99696 148.241283 1247.4078 148.241283 1247.4078 118.592357 1228.99696 118.592357"></polygon>
                    <polygon id="Fill-10" fill="#25307F" points="912.879874 118.597376 1364.53566 118.597376 1364.53566 88.94845 912.879874 88.94845"></polygon>
                    <polygon id="Fill-11" fill="#0085C9" points="1027.52431 118.597376 1180.16797 118.597376 1180.16797 88.94845 1027.52431 88.94845"></polygon>
                    <polygon id="Fill-12" fill="#0085C9" points="915.326261 118.595703 923.062866 118.595703 923.062866 88.94845 915.326261 88.94845"></polygon>
                    <polygon id="Fill-13" fill="#0085C9" points="1226.55304 118.597376 1280.39082 118.597376 1280.39082 88.94845 1226.55304 88.94845"></polygon>
                    <polygon id="Fill-14" fill="#00AFAC" points="912.879874 88.9501228 1469.50317 88.9501228 1469.50317 59.3062155 912.879874 59.3062155"></polygon>
                    <polygon id="Fill-15" fill="#007961" points="1424.41905 88.9501228 1468.31577 88.9501228 1468.31577 59.3045427 1424.41905 59.3045427"></polygon>
                    <polygon id="Fill-16" fill="#007961" points="1033.72791 88.9501228 1333.64355 88.9501228 1333.64355 59.3045427 1033.72791 59.3045427"></polygon>
                    <polygon id="Fill-17" fill="#007961" points="938.271935 88.9501228 962.812327 88.9501228 962.812327 59.3045427 938.271935 59.3045427"></polygon>
                    <polygon id="Fill-18" fill="#27A436" points="912.879874 59.3062155 1469.50317 59.3062155 1469.50317 29.655617 912.879874 29.655617"></polygon>
                    <polygon id="Fill-19" fill="#65B22E" points="1322.76194 59.3045427 1462.82066 59.3045427 1462.82066 29.655617 1322.76194 29.655617"></polygon>
                    <polygon id="Fill-20" fill="#65B22E" points="1059.1101 59.3045427 1087.84712 59.3045427 1087.84712 29.655617 1059.1101 29.655617"></polygon>
                    <polygon id="Fill-21" fill="#65B22E" points="950.538428 59.3078883 1033.72298 59.3078883 1033.72298 29.6589626 950.538428 29.6589626"></polygon>
                    <polygon id="Fill-22" fill="#65B22E" points="1094.00382 59.3045427 1108.37356 59.3045427 1108.37356 29.655617 1094.00382 29.655617"></polygon>
                    <polygon id="Fill-23" fill="#C9D100" points="916.437133 29.655617 1337.20081 29.655617 1337.20081 0.0133824986 916.437133 0.0133824986"></polygon>
                    <polygon id="Fill-24" fill="#FFEC00" points="1181.9429 29.655617 1281.41282 29.655617 1281.41282 0.0133824986 1181.9429 0.0133824986"></polygon>
                    <polygon id="Fill-25" fill="#FFEC00" points="912.877406 29.655617 920.381962 29.655617 920.381962 0.0133824986 912.877406 0.0133824986"></polygon>
                    <polygon id="Fill-26" fill="#FFEC00" points="968.467899 29.655617 1030.13609 29.655617 1030.13609 0.0133824986 968.467899 0.0133824986"></polygon>
                    <polygon id="Fill-30" fill="#0070B8" points="0 177.500443 1469.49823 177.500443 1469.49823 118.179173 0 118.179173"></polygon>
                    <polygon id="Fill-31" fill="#25307F" points="984.262027 177.259558 1072.1542 177.259558 1072.1542 118.179173 984.262027 118.179173"></polygon>
                    <polygon id="Fill-32" fill="#25307F" points="202.013269 177.259558 802.508591 177.259558 802.508591 118.179173 202.013269 118.179173"></polygon>
                    <polygon id="Fill-33" fill="#25307F" points="10.8890121 177.259558 60.0241056 177.259558 60.0241056 118.179173 10.8890121 118.179173"></polygon>
                    <polygon id="Fill-34" fill="#25307F" points="1251.4736 177.259558 1276.03867 177.259558 1276.03867 118.179173 1251.4736 118.179173"></polygon>
                    <polygon id="Fill-35" fill="#25307F" points="1290.34423 177.259558 1301.42827 177.259558 1301.42827 118.179173 1290.34423 118.179173"></polygon>
                    <polygon id="Fill-36" fill="#86368B" points="780.723161 118.179173 1061.15163 118.179173 1061.15163 59.0904227 780.723161 59.0904227"></polygon>
                    <polygon id="Fill-37" fill="#86368B" points="252.83195 118.179173 310.370172 118.179173 310.370172 59.0904227 252.83195 59.0904227"></polygon>
                    <polygon id="Fill-38" fill="#86368B" points="35.4516216 118.180845 202.003394 118.180845 202.003394 59.0937683 35.4516216 59.0937683"></polygon>
                    <polygon id="Fill-39" fill="#86368B" points="322.69838 118.179173 351.469959 118.179173 351.469959 59.0904227 322.69838 59.0904227"></polygon>
                    <polygon id="Fill-40" fill="#86368B" points="0 59.0904227 809.632982 59.0904227 809.632982 0.0133824986 0 0.0133824986"></polygon>
                    <polygon id="Fill-41" fill="#BF348A" points="797.467702 59.0904227 920.939866 59.0904227 920.939866 0.0133824986 797.467702 0.0133824986"></polygon>
                    <polygon id="Fill-42" fill="#572A85" points="153.021354 59.0887499 226.259897 59.0887499 226.259897 0 153.021354 0"></polygon>
                    <polygon id="Fill-43" fill="#572A85" points="631.53308 59.0887499 660.304659 59.0887499 660.304659 0 631.53308 0"></polygon>
                    <polygon id="Fill-44" fill="#572A85" points="892.168287 118.179173 950.540897 118.179173 950.540897 59.0904227 892.168287 59.0904227"></polygon>
                </g>
            </g>
        </g>
    </g>
</svg>