<?xml version="1.0" encoding="UTF-8" standalone="no"?>
<svg width="1440px" height="310px" viewBox="0 0 1440 310" version="1.1" xmlns="http://www.w3.org/2000/svg" xmlns:xlink="http://www.w3.org/1999/xlink">
    <!-- Generator: Sketch 39.1 (31720) - http://www.bohemiancoding.com/sketch -->
    <title>Footer - BG</title>
    <desc>Created with Sketch.</desc>
    <defs>
        <rect id="path-1" x="0" y="0" width="1443" height="310"></rect>
    </defs>
    <g id="DEFAULT---Accommodation" stroke="none" stroke-width="1" fill="none" fill-rule="evenodd">
        <g id="DEFAULT---Accommodation---L-1024+-(1280-max-width)" transform="translate(0.000000, -2393.000000)">
            <g id="FOOTER-Copy" transform="translate(0.000000, 2393.000000)">
                <g id="Footer---BG">
                    <mask id="mask-2" fill="white">
                        <use xlink:href="#path-1"></use>
                    </mask>
                    <use id="mask" fill="#FFFFFF" xlink:href="#path-1"></use>
                    <g id="WGC-sub-brand-polygon-Copy" mask="url(#mask-2)">
                        <g transform="translate(762.818703, 262.619769) rotate(-204.000000) translate(-762.818703, -262.619769) translate(-32.181297, -305.880231)" id="Group">
                            <g transform="translate(-0.000000, 0.000000)">
                                <polygon id="Shape" fill="#814192" points="134.478239 260.684781 165.005589 395.934338 47.1068587 426.18399 90.2662153 530.915008 169.611008 577.566694 271.061813 461.139144 271.588146 301.42098 271.588146 301.42098 271.588146 301.42098 326.590009 261.222553 366.854531 231.779558 149.610331 169.532496"></polygon>
                                <polyline id="Shape" fill="#814192" points="1415.70585 1004.69178 1324.9133 899.288552 1352.94056 776.945514 1348.99306 777.348842 1351.75631 773.718884 1347.01931 775.063313 1411.62676 729.756056 1411.62676 729.756056 1276.09585 645.99813 1163.72363 680.146626 1163.72363 680.146626 1163.72363 680.146626 1091.7475 512.361888 1047.00915 595.985372 1032.92972 734.058229 1015.56071 790.255361 919.241662 836.907047 919.241662 836.907047 979.375277 907.355126 979.375277 907.355126 1098.06351 923.353831 1098.19509 923.353831 1258.20051 1058.73783 1258.20051 1058.73783 1258.20051 1058.73783 1264.91126 1058.73783 1435.57494 1058.73783 1418.33751 1007.64953"></polyline>
                                <path d="" id="Shape" fill="#814192"></path>
                                <polygon id="Shape" fill="#1FB3AD" points="1589.52752 840.940334 1510.97223 864.736727 1411.62676 729.756056 1411.62676 729.756056 1347.01931 775.063313 1324.9133 899.288552 1401.758 988.424194 1418.20593 1007.64953 1435.31177 1058.73783 1561.36867 1120.58156 1589.65911 1136.31138"></polygon>
                                <polygon id="Shape" fill="#1FB3AD" points="806.211517 454.820328 806.211517 454.820328 806.211517 454.820328 658.706521 360.441412 565.545471 351.97151 521.728198 265.793611 366.986114 231.779558 326.590009 261.222553 271.588146 301.42098 271.061813 461.139144 169.611008 577.566694 267.903811 602.438631 268.035394 602.169745 268.035394 602.438631 396.19763 591.817642 513.438443 639.813757 513.438443 639.813757 513.438443 639.679314 616.862999 526.612836 622.126335 524.730635 806.211517 455.089213 806.869434 454.820328 806.606268 454.820328"></polygon>
                                <polygon id="Shape" fill="#E72D43" points="1047.27231 596.119814 1047.00915 594.775385 1091.87909 512.361888 944.374092 476.600077 903.056903 431.29282 806.606268 454.820328 806.869434 454.820328 806.211517 455.089213 622.126335 524.730635 616.862999 526.747279 513.438443 639.813757 513.30686 639.9482 619.62625 677.188883 619.62625 677.188883 619.62625 677.188883 619.62625 677.188883 678.049282 789.31426 803.579849 804.909637 803.579849 804.909637 803.579849 804.909637 803.579849 804.909637 803.579849 804.909637 919.110078 836.907047 919.110078 836.907047 919.110078 836.907047 976.348859 810.287353 1016.35021 792.54089 1032.92972 734.058229 1041.48264 673.424481 1049.7724 603.648617"></polygon>
                                <polygon id="Shape" fill="#E72D43" points="149.610331 169.532496 366.854531 231.779558 198.29619 0.672214495 0.657917021 0.672214495 0.657917021 262.970311 0.657917021 344.039379 47.1068587 426.18399 165.005589 395.934338 134.478239 260.684781"></polygon>
                                <polygon id="Shape" fill="#EA5675" points="1014.50805 793.48199 911.741408 723.43724 919.241662 836.907047 919.241662 836.907047 919.241662 836.907047"></polygon>
                                <polygon id="Shape" fill="#EA5675" points="703.576462 552.560315 627.652838 611.984077 627.652838 611.984077 627.652838 611.984077 779.500086 627.310567 779.500086 627.310567 703.576462 552.560315 703.576462 552.560315 815.159189 556.593602 815.159189 556.459159 806.211517 455.089213 616.862999 526.612836"></polygon>
                                <polygon id="Shape" fill="#EA5675" points="911.741408 723.43724 779.500086 627.310567 779.500086 627.310567 779.500086 627.310567 803.711433 804.775194 803.711433 804.775194 803.711433 804.775194"></polygon>
                                <polygon id="Shape" fill="#EA5675" points="893.319731 630.133868 893.319731 630.133868 911.741408 723.43724 1032.92972 734.058229"></polygon>
                                <polygon id="Shape" fill="#EA5675" points="944.768842 563.719076 893.319731 630.133868 1047.00915 595.985372 944.768842 563.719076"></polygon>
                                <polygon id="Shape" fill="#EA5675" points="1047.00915 595.985372 1047.00915 595.985372 1091.7475 512.361888 943.979342 476.331191"></polygon>
                                <polygon id="Shape" fill="#EA5675" points="815.290772 556.459159 815.159189 556.593602 944.768842 563.719076 944.768842 563.719076 902.92532 431.158377"></polygon>
                                <polygon id="Shape" fill="#EA5675" points="893.319731 630.133868 893.319731 630.133868 815.159189 556.593602 779.500086 627.310567 779.500086 627.310567"></polygon>
                                <polygon id="Shape" fill="#EA5675" points="779.500086 627.310567 779.500086 627.310567 619.757834 677.05444 619.757834 677.05444 678.180865 789.179818 678.180865 789.179818"></polygon>
                                <polygon id="Shape" fill="#EA5675" points="619.757834 677.05444 627.652838 611.984077 627.652838 611.984077 627.652838 611.984077 627.652838 611.984077 513.438443 639.679314 513.438443 639.813757"></polygon>
                                <polygon id="Shape" fill="#EA5675" points="134.478239 260.684781 -6.67910172e-13 344.039379 0.657917021 344.57715 165.005589 395.934338 165.005589 395.934338"></polygon>
                                <polygon id="Shape" fill="#EA5675" points="0.657917021 182.842343 149.610331 169.532496 149.610331 169.532496 152.899916 170.473596 366.854531 231.779558 200.138358 0.672214495 198.29619 0.672214495 149.610331 169.532496 0.657917021 0.672214495"></polygon>
                                <polygon id="Shape" points="815.159189 556.593921 815.2911 556.459159 815.159189 556.459159"></polygon>
                                <polygon id="Shape" points="1236.884 971.61915 1236.884 971.484389 1236.884 971.61915 1236.884 971.61915"></polygon>
                                <polygon id="Shape" fill="#008168" points="1418.20593 1007.64953 1589.65911 1073.39211 1589.65911 991.516381"></polygon>
                                <polygon id="Shape" fill="#008168" points="1423.86402 959.518971 1423.86402 959.518971 1423.86402 959.518971 1325.04488 899.288552 1418.20593 1007.64953 1555.31584 955.485684"></polygon>
                                <polygon id="Shape" fill="#008168" points="1423.86402 959.653414 1510.97223 864.736727 1425.5746 825.748286 1425.5746 825.748286"></polygon>
                                <polygon id="Shape" fill="#008168" points="1347.01931 775.063313 1324.9133 899.288552 1425.5746 825.748286 1425.5746 825.748286"></polygon>
                                <polygon id="Shape" fill="#008168" points="806.343101 454.95477 606.599493 479.154492 606.599493 479.154492 606.599493 479.154492 494.095683 455.223656 616.862999 526.612836 616.862999 526.612836 622.126335 524.730635 806.211517 455.089213 806.869434 454.820328 806.606268 454.820328 806.211517 454.820328 806.211517 454.820328"></polygon>
                                <polygon id="Shape" fill="#008168" points="606.599493 479.154492 658.706521 360.441412 565.545471 351.97151"></polygon>
                                <polygon id="Shape" fill="#008168" points="494.095683 455.223656 565.545471 351.97151 565.545471 351.97151 475.147673 330.326203 475.147673 330.326203 475.147673 330.326203"></polygon>
                                <polygon id="Shape" fill="#008168" points="475.147673 330.326203 475.147673 330.326203 521.728198 265.793611 521.728198 265.793611 366.986114 231.779558"></polygon>
                                <polygon id="Shape" fill="#008168" points="494.095683 455.223656 396.19763 591.817642 513.438443 639.813757"></polygon>
                                <polygon id="Shape" fill="#008168" points="475.147673 330.326203 475.147673 330.326203 356.854192 412.605257 438.962236 444.064896 438.962236 444.064896"></polygon>
                                <polygon id="Shape" fill="#008168" points="271.061813 461.139144 271.061813 461.139144 169.611008 577.566694 267.903811 602.438631"></polygon>
                                <polygon id="Shape" fill="#008168" points="271.588146 301.42098 356.854192 412.605257 356.854192 412.605257 366.986114 231.779558 326.590009 261.222553"></polygon>
                                <polygon id="Shape" fill="#008168" points="438.962236 444.064896 438.962236 444.064896 337.906182 482.515565 337.906182 482.515565 396.19763 591.817642"></polygon>
                                <polygon id="Shape" fill="#008168" points="356.854192 412.605257 356.854192 412.605257 271.061813 461.139144 271.061813 461.139144 337.906182 482.515565"></polygon>
                                <polygon id="Shape" fill="#56368B" points="1418.33751 1007.64953 1324.9133 899.288552 1258.20051 1058.73783 1258.20051 1058.73783 1258.85843 1058.73783 1258.20051 1058.73783"></polygon>
                                <polygon id="Shape" fill="#56368B" points="1215.17274 809.615138 1347.01931 775.063313 1347.01931 775.063313 1276.09585 645.99813"></polygon>
                                <polygon id="Shape" fill="#56368B" points="1112.4061 830.991559 1207.14615 811.497339 1215.30432 809.615138 1163.72363 680.146626 1163.72363 680.146626 1163.72363 680.146626"></polygon>
                                <polygon id="Shape" fill="#56368B" points="1047.00915 595.985372 1032.92972 734.192672 1163.72363 680.146626"></polygon>
                                <polygon id="Shape" fill="#56368B" points="1112.4061 830.991559 1112.4061 830.991559 1032.92972 734.058229 1032.92972 734.058229 979.375277 907.355126 979.375277 907.355126"></polygon>
                                <polygon id="Shape" fill="#56368B" points="271.061813 461.139144 271.061813 461.139144 165.005589 395.934338 169.611008 577.566694"></polygon>
                                <polygon id="Shape" fill="#56368B" points="165.005589 395.934338 47.1068587 426.18399 47.1068587 426.18399 90.2662153 530.915008"></polygon>
                                <polygon id="Shape" fill="#56368B" points="149.610331 169.532496 271.588146 301.42098 134.478239 260.684781 165.005589 395.934338 165.005589 395.934338 271.588146 301.42098 271.588146 301.42098 271.588146 301.42098 271.588146 301.42098 326.590009 261.222553 366.854531 231.779558"></polygon>
                                <polygon id="Shape" fill="#56368B" points="1098.06351 923.353831 1237.41033 887.457577 1112.4061 830.991559"></polygon>
                                <polyline id="Shape" fill="#56368B" points="1346.88773 775.063313 1237.41033 887.457577 1325.04488 899.288552 1347.01931 775.063313"></polyline>
                                <polygon id="Shape" fill="#56368B" points="1175.69772 988.961966 1237.41033 887.457577 1258.20051 1058.73783"></polygon>
                            </g>
                        </g>
                    </g>
                </g>
            </g>
        </g>
    </g>
</svg>