<?xml version="1.0" encoding="UTF-8"?>
<svg width="120px" height="120px" viewBox="0 0 120 120" version="1.1" xmlns="http://www.w3.org/2000/svg" xmlns:xlink="http://www.w3.org/1999/xlink">
    <!-- Generator: Sketch 45.2 (43514) - http://www.bohemiancoding.com/sketch -->
    <title>headshot placeholder copy</title>
    <desc>Created with Sketch.</desc>
    <defs>
        <rect id="path-1" x="0" y="0" width="120" height="120"></rect>
    </defs>
    <g id="Symbols" stroke="none" stroke-width="1" fill="none" fill-rule="evenodd">
        <g id="bio-/-placeholder" transform="translate(0.000000, -5.000000)">
            <g id="headshot-placeholder-copy" transform="translate(0.000000, 5.000000)">
                <mask id="mask-2" fill="white">
                    <use xlink:href="#path-1"></use>
                </mask>
                <use id="Path" fill="#E5E5E5" xlink:href="#path-1"></use>
                <g id="noun_1062390" mask="url(#mask-2)" fill-rule="nonzero" fill="#FFFFFF">
                    <g transform="translate(14.000000, 21.000000)" id="Shape">
                        <path d="M44.890625,0.122231957 C31.9144287,0.122231957 21.3230469,10.713726 21.3230469,23.6898101 C21.3230469,36.6658941 31.9144287,47.2573321 44.890625,47.2573321 C57.8668213,47.2573321 68.4582031,36.6658941 68.4582031,23.6898101 C68.4582031,10.713726 57.8668213,0.122231957 44.890625,0.122231957 Z M44.890625,6.85582571 C54.2277628,6.85582571 61.7246094,14.3527845 61.7246094,23.6898101 C61.7246094,33.0268356 54.2277628,40.5237945 44.890625,40.5237945 C35.5534872,40.5237945 28.0566406,33.0268356 28.0566406,23.6898101 C28.0566406,14.3527845 35.5534872,6.85582571 44.890625,6.85582571 Z M46.0128906,49.5018633 C20.5799948,49.5018633 0,70.0819704 0,95.5148662 L0,98.8816631 L6.73359375,98.8816631 L6.73359375,95.5148662 C6.73359375,73.6958901 24.1939146,56.2355693 46.0128906,56.2355693 C67.8318667,56.2355693 85.2921875,73.6958901 85.2921875,95.5148662 L85.2921875,98.8816631 L92.0257813,98.8816631 L92.0257813,95.5148662 C92.0257813,70.0819704 71.4457864,49.5019756 46.0128906,49.5019756 L46.0128906,49.5018633 Z"></path>
                    </g>
                </g>
            </g>
        </g>
    </g>
</svg>