<?xml version="1.0" encoding="UTF-8"?>
<svg width="20px" height="20px" viewBox="0 0 20 20" version="1.1" xmlns="http://www.w3.org/2000/svg" xmlns:xlink="http://www.w3.org/1999/xlink">
    <!-- Generator: Sketch 45.1 (43504) - http://www.bohemiancoding.com/sketch -->
    <title>linked-in</title>
    <desc>Created with Sketch.</desc>
    <defs></defs>
    <g id="Symbols" stroke="none" stroke-width="1" fill="none" fill-rule="evenodd" fill-opacity="0.8">
        <g id="footer/-large" transform="translate(-779.000000, -40.000000)" fill-rule="nonzero" fill="#EA994D">
            <g id="social-/-small-print">
                <g transform="translate(0.000000, 20.000000)">
                    <g id="Social-Media">
                        <g id="icons" transform="translate(641.000000, 20.000000)">
                            <path d="M139.461558,0 C138.65452,0 138,0.6418 138,1.43275 L138,18.5677 C138,19.35825 138.65452,20 139.461558,20 L156.322834,20 C157.131066,20 157.785586,19.35785 157.785586,18.5677 L157.785586,1.43275 C157.785586,0.6414 157.130668,0 156.322834,0 L139.461558,0 Z M151.784846,16.74255 L151.784846,11.91005 C151.784846,10.69645 151.352531,9.86815 150.271272,9.86815 C149.445816,9.86815 148.954217,10.42665 148.737686,10.9663 C148.658789,11.1589 148.639575,11.4283 148.639575,11.6985 L148.639575,16.74215 L145.651252,16.74215 C145.651252,16.74215 145.690476,8.55765 145.651252,7.7112 L148.639575,7.7112 L148.639575,8.9895 C149.036698,8.3743 149.746869,7.4981 151.333317,7.4981 C153.299268,7.4981 154.773618,8.78925 154.773618,11.5634 L154.773618,16.74255 L151.784846,16.74255 Z M142.483133,6.47795 C141.480769,6.47795 140.832222,5.78435 140.832222,4.9178 C140.832222,4.03195 141.50078,3.3576 142.522755,3.3576 C143.545179,3.3576 144.174064,4.03195 144.194074,4.9178 C144.194074,5.78435 143.544781,6.47795 142.503143,6.47795 L142.483133,6.47795 Z M141.008782,16.74255 L141.008782,7.71165 L143.997156,7.71165 L143.997156,16.74255 L141.008782,16.74255 Z" id="linked-in"></path>
                        </g>
                    </g>
                </g>
            </g>
        </g>
    </g>
</svg>