<?xml version="1.0" encoding="UTF-8"?>
<svg width="288px" height="43px" viewBox="0 0 288 43" version="1.1" xmlns="http://www.w3.org/2000/svg" xmlns:xlink="http://www.w3.org/1999/xlink">
    <!-- Generator: Sketch 45.1 (43504) - http://www.bohemiancoding.com/sketch -->
    <title>Logo - landscape</title>
    <desc>Created with Sketch.</desc>
    <defs></defs>
    <g id="Symbols" stroke="none" stroke-width="1" fill="none" fill-rule="evenodd">
        <g id="Header/---L" transform="translate(-20.000000, -27.000000)">
            <g id="Header---L">
                <g id="Logo/---landscape---M" transform="translate(20.000000, 20.000000)">
                    <g id="logo-landscape" transform="translate(0.000000, 7.000000)">
                        <g id="ACSC" transform="translate(143.280000, 12.314177)" fill="#86368C">
                            <polygon id="Fill-9" points="40.448093 18.3767442 42.3653023 18.3767442 42.3653023 11.4170233 40.448093 11.4170233"></polygon>
                            <polygon id="Fill-11" points="44.4315349 11.4166047 48.6946047 11.4166047 48.6946047 12.9453488 46.280093 12.9453488 46.280093 14.1517674 48.5581395 14.1517674 48.5581395 15.6411628 46.280093 15.6411628 46.280093 18.3763256 44.4315349 18.3763256"></polygon>
                            <polygon id="Fill-12" points="50.508 18.3767442 52.4252093 18.3767442 52.4252093 11.4170233 50.508 11.4170233"></polygon>
                            <path d="M3.45390698,14.1082326 C2.82265116,13.9433023 2.34711628,13.8361395 2.34711628,13.3413488 C2.34711628,13.0114884 2.59576744,12.6682326 3.06293023,12.6682326 C3.06293023,12.6682326 3.76534884,12.6004186 4.17139535,13.2325116 C4.5364186,12.910186 5.09148837,12.4162326 5.09148837,12.4162326 C5.09148837,12.4162326 4.74488372,11.4442326 3.11734884,11.3278605 L3.11734884,11.337907 C3.06962791,11.3337209 3.02525581,11.3278605 2.97837209,11.3278605 C1.52162791,11.3278605 0.575581395,12.2906512 0.575581395,13.5849767 C0.575581395,14.6716744 1.1884186,15.1773488 2.44172093,15.5080465 C3.2312093,15.7114884 3.60962791,15.8772558 3.60962791,16.4314884 C3.60962791,16.8400465 3.26888372,17.1523256 2.74311628,17.1523256 L2.65186047,17.1523256 L2.65186047,17.1481395 C2.65186047,17.1481395 1.9084186,17.1280465 1.4035814,16.2464651 C1.098,16.4649767 0.235674419,17.246093 0.235674419,17.246093 C0.235674419,17.246093 0.892883721,18.5697209 2.54386047,18.6274884 C2.54386047,18.6249767 2.54386047,18.6224651 2.54469767,18.6182791 C2.59827907,18.6224651 2.64767442,18.6274884 2.70627907,18.6274884 C4.33883721,18.6274884 5.36776744,17.6270233 5.36776744,16.1794884 C5.36776744,14.8960465 4.6887907,14.4389302 3.45390698,14.1082326" id="Fill-13"></path>
                            <path d="M12.1212,15.9638233 C11.8281767,16.6034512 11.2454791,17.0396372 10.4945023,17.0396372 C9.85403721,17.0396372 9.34836279,16.7357302 9.03189767,16.2610326 C8.79831628,15.9144279 8.6744093,15.474893 8.6744093,14.9876372 C8.6744093,14.6334977 8.74389767,14.3011256 8.87533953,14.0131256 C9.16836279,13.3693116 9.75692093,12.938986 10.4945023,12.938986 C11.1123628,12.938986 11.6264093,13.2462419 11.9504093,13.7234512 L13.2916186,12.558893 C13.241386,12.5053116 13.1961767,12.4525674 13.1425953,12.3998233 C12.4418512,11.7183349 11.4723628,11.3281953 10.4945023,11.3281953 C9.52250233,11.3281953 8.5664093,11.7183349 7.86147907,12.3998233 C7.64715349,12.6099628 7.46966512,12.8326605 7.31813023,13.0762884 C6.95980465,13.6414047 6.76975814,14.2910791 6.76975814,14.9876372 C6.76975814,15.9144279 7.0987814,16.7524744 7.70659535,17.4130326 C7.83636279,17.5528465 7.9719907,17.6868 8.12352558,17.8098698 C8.79831628,18.3465209 9.6464093,18.6487535 10.4945023,18.6487535 C11.4723628,18.6487535 12.429293,18.266986 13.1425953,17.574614 C13.3535721,17.3694977 13.5327349,17.1434512 13.6825953,16.9014977 L12.1212,15.9638233 Z" id="Fill-14"></path>
                            <path d="M59.5535442,15.9628186 C59.2605209,16.6032837 58.6778233,17.0386326 57.9268465,17.0386326 C57.2863814,17.0386326 56.780707,16.7355628 56.4642419,16.2608651 C56.2306605,15.9134233 56.1067535,15.4738884 56.1067535,14.9866326 C56.1067535,14.632493 56.1762419,14.3001209 56.3076837,14.0121209 C56.600707,13.368307 57.1892651,12.9379814 57.9268465,12.9379814 C58.544707,12.9379814 59.0587535,13.2452372 59.3819163,13.7224465 L60.7239628,12.5578884 C60.6737302,12.504307 60.6285209,12.4515628 60.5749395,12.3988186 C59.8741953,11.7173302 58.904707,11.3271907 57.9268465,11.3271907 C56.9548465,11.3271907 55.9979163,11.7173302 55.2938233,12.3988186 C55.0794977,12.6089581 54.9011721,12.8316558 54.7504744,13.0752837 C54.3921488,13.6404 54.2012651,14.2900744 54.2012651,14.9866326 C54.2012651,15.9134233 54.5311256,16.7514698 55.1381023,17.4120279 C55.268707,17.5518419 55.4034977,17.6866326 55.5558698,17.8088651 C56.2306605,18.3455163 57.0787535,18.6477488 57.9268465,18.6477488 C58.904707,18.6477488 59.8616372,18.2659814 60.5749395,17.5744465 C60.7859163,17.368493 60.9650791,17.1424465 61.1149395,16.900493 L59.5535442,15.9628186 Z" id="Fill-15"></path>
                            <path d="M79.3736372,14.9004837 C79.3736372,13.7702512 78.6142884,12.8560186 77.5535442,12.8560186 C76.4835907,12.8560186 75.732614,13.7610419 75.732614,14.9004837 C75.732614,16.0482977 76.4442419,16.9441116 77.5535442,16.9441116 C78.6335442,16.9441116 79.3736372,16.0390884 79.3736372,14.9004837 M80.1915907,17.4799256 C79.4808,18.1706233 78.5272186,18.5498791 77.5535442,18.5498791 C76.7071256,18.5498791 75.8598698,18.2484837 75.1875907,17.7126698 C74.3118698,17.0119256 73.8354977,16.0198326 73.8354977,14.9004837 C73.8354977,13.9075535 74.2147535,13.0117395 74.9255442,12.3202047 C75.6262884,11.6387163 76.580707,11.2502512 77.5535442,11.2502512 C78.5272186,11.2502512 79.4908465,11.6387163 80.1915907,12.3202047 C80.9023814,13.0117395 81.2724279,13.9167628 81.2724279,14.9004837 C81.2724279,15.8925767 80.8923349,16.7976 80.1915907,17.4799256" id="Fill-16"></path>
                            <path d="M82.7072372,11.4052186 L84.5373767,11.4052186 L87.1645395,14.9876372 C87.2331907,15.0755442 87.4567256,15.4841023 87.7974698,16.2141488 C87.7296558,15.6691256 87.6911442,15.2111721 87.6911442,14.8411256 L87.6911442,11.4052186 L89.5112372,11.4052186 L89.5112372,18.3649395 L87.6911442,18.3649395 L85.0631442,14.7741488 C84.994493,14.6854047 84.7709581,14.286893 84.4293767,13.5568465 C84.4980279,14.1018698 84.5373767,14.558986 84.5373767,14.9290326 L84.5373767,18.3649395 L82.7072372,18.3649395 L82.7072372,11.4052186 Z" id="Fill-17"></path>
                            <polygon id="Fill-18" points="91.5894419 11.4052186 95.8525116 11.4052186 95.8525116 12.9339628 93.438 12.9339628 93.438 14.1403814 95.7160465 14.1403814 95.7160465 15.6297767 93.438 15.6297767 93.438 18.3649395 91.5894419 18.3649395"></polygon>
                            <polygon id="Fill-19" points="97.9588465 11.4052186 102.221916 11.4052186 102.221916 12.9339628 99.8074047 12.9339628 99.8074047 14.1403814 102.085451 14.1403814 102.085451 15.6297767 99.8074047 15.6297767 99.8074047 16.8077302 102.221916 16.8077302 102.221916 18.3649395 97.9588465 18.3649395"></polygon>
                            <path d="M106.34266,14.6959535 C107.140521,14.6959535 107.521451,14.4431163 107.521451,13.8294419 C107.521451,13.0993953 107.160614,12.865814 106.371963,12.865814 L105.992707,12.865814 L105.992707,14.6959535 L106.34266,14.6959535 Z M104.211126,11.4048837 L106.196986,11.4048837 L106.313358,11.4048837 C107.277823,11.4048837 108.016242,11.4157674 108.61066,11.8728837 C109.117172,12.262186 109.389265,12.8557674 109.389265,13.5766047 C109.389265,14.6574419 108.844242,15.3473023 107.832056,15.5616279 L109.730009,18.3654419 L107.588428,18.3654419 L105.992707,15.6394884 L105.992707,18.3654419 L104.211126,18.3654419 L104.211126,11.4048837 Z" id="Fill-20"></path>
                            <polygon id="Fill-21" points="110.891721 11.4052186 115.154791 11.4052186 115.154791 12.9339628 112.740279 12.9339628 112.740279 14.1403814 115.018326 14.1403814 115.018326 15.6297767 112.740279 15.6297767 112.740279 16.8077302 115.154791 16.8077302 115.154791 18.3649395 110.891721 18.3649395"></polygon>
                            <path d="M116.949265,11.4052186 L118.779405,11.4052186 L121.406567,14.9876372 C121.475219,15.0755442 121.698753,15.4841023 122.039498,16.2141488 C121.971684,15.6691256 121.933172,15.2111721 121.933172,14.8411256 L121.933172,11.4052186 L123.753265,11.4052186 L123.753265,18.3649395 L121.933172,18.3649395 L119.305172,14.7741488 C119.236521,14.6854047 119.012149,14.286893 118.671405,13.5568465 C118.740056,14.1018698 118.779405,14.558986 118.779405,14.9290326 L118.779405,18.3649395 L116.949265,18.3649395 L116.949265,11.4052186 Z" id="Fill-22"></path>
                            <polygon id="Fill-23" points="133.652177 11.4052186 137.915247 11.4052186 137.915247 12.9339628 135.500735 12.9339628 135.500735 14.1403814 137.778781 14.1403814 137.778781 15.6297767 135.500735 15.6297767 135.500735 16.8077302 137.915247 16.8077302 137.915247 18.3649395 133.652177 18.3649395"></polygon>
                            <path d="M142.622456,14.1291628 C141.9912,13.9642326 141.515665,13.8570698 141.515665,13.3622791 C141.515665,13.0324186 141.764316,12.6891628 142.231479,12.6891628 C142.231479,12.6891628 142.93306,12.6213488 143.339944,13.2534419 C143.704967,12.9311163 144.260037,12.4371628 144.260037,12.4371628 C144.260037,12.4371628 143.913433,11.4651628 142.285898,11.3487907 L142.285898,11.3588372 C142.238177,11.3546512 142.193805,11.3487907 142.146921,11.3487907 C140.68934,11.3487907 139.74413,12.3115814 139.74413,13.605907 C139.74413,14.6917674 140.356967,15.1982791 141.61027,15.5289767 C142.399758,15.7324186 142.778177,15.898186 142.778177,16.4524186 C142.778177,16.8609767 142.437433,17.1732558 141.911665,17.1732558 L141.820409,17.1732558 L141.820409,17.1690698 C141.820409,17.1690698 141.076967,17.1489767 140.57213,16.2673953 C140.266549,16.485907 139.404223,17.2670233 139.404223,17.2670233 C139.404223,17.2670233 140.061433,18.5906512 141.712409,18.6484186 C141.712409,18.645907 141.712409,18.6433953 141.713247,18.6392093 C141.766828,18.6433953 141.816223,18.6484186 141.874828,18.6484186 C143.506549,18.6484186 144.536316,17.6479535 144.536316,16.2004186 C144.536316,14.9169767 143.856502,14.4598605 142.622456,14.1291628" id="Fill-24"></path>
                            <path d="M71.1923442,15.9638233 C70.8993209,16.6034512 70.3166233,17.0396372 69.5656465,17.0396372 C68.9251814,17.0396372 68.4203442,16.7357302 68.1030419,16.2610326 C67.8694605,15.9144279 67.7455535,15.474893 67.7455535,14.9876372 C67.7455535,14.6334977 67.8150419,14.3011256 67.9464837,14.0131256 C68.239507,13.3693116 68.8280651,12.938986 69.5656465,12.938986 C70.183507,12.938986 70.6975535,13.2462419 71.0215535,13.7234512 L72.3627628,12.558893 C72.3125302,12.5053116 72.2673209,12.4525674 72.2137395,12.3998233 C71.5129953,11.7183349 70.543507,11.3281953 69.5656465,11.3281953 C68.5936465,11.3281953 67.6367163,11.7183349 66.9326233,12.3998233 C66.7182977,12.6099628 66.5408093,12.8326605 66.3892744,13.0762884 C66.0309488,13.6414047 65.8409023,14.2910791 65.8409023,14.9876372 C65.8409023,15.9144279 66.1699256,16.7524744 66.7777395,17.4130326 C66.907507,17.5528465 67.0431349,17.6868 67.1946698,17.8098698 C67.8694605,18.3465209 68.7175535,18.6487535 69.5656465,18.6487535 C70.543507,18.6487535 71.5004372,18.266986 72.2137395,17.574614 C72.4247163,17.3694977 72.6038791,17.1434512 72.7537395,16.9014977 L71.1923442,15.9638233 Z" id="Fill-25"></path>
                            <path d="M130.695488,15.9638233 C130.402465,16.6034512 129.819767,17.0396372 129.068791,17.0396372 C128.428326,17.0396372 127.922651,16.7357302 127.606186,16.2610326 C127.372605,15.9144279 127.248698,15.474893 127.248698,14.9876372 C127.248698,14.6334977 127.318186,14.3011256 127.449628,14.0131256 C127.742651,13.3693116 128.331209,12.938986 129.068791,12.938986 C129.686651,12.938986 130.200698,13.2462419 130.524698,13.7234512 L131.865907,12.558893 C131.815674,12.5053116 131.770465,12.4525674 131.716884,12.3998233 C131.01614,11.7183349 130.046651,11.3281953 129.068791,11.3281953 C128.096791,11.3281953 127.13986,11.7183349 126.435767,12.3998233 C126.221442,12.6099628 126.043953,12.8326605 125.892419,13.0762884 C125.534093,13.6414047 125.344047,14.2910791 125.344047,14.9876372 C125.344047,15.9144279 125.67307,16.7524744 126.280884,17.4130326 C126.410651,17.5528465 126.545442,17.6868 126.697814,17.8098698 C127.372605,18.3465209 128.220698,18.6487535 129.068791,18.6487535 C130.046651,18.6487535 131.003581,18.266986 131.716884,17.574614 C131.92786,17.3694977 132.107023,17.1434512 132.256884,16.9014977 L130.695488,15.9638233 Z" id="Fill-26"></path>
                            <path d="M78.1225116,3.71218605 C78.1225116,2.58195349 77.3631628,1.66688372 76.3024186,1.66688372 C75.2324651,1.66688372 74.4814884,2.57274419 74.4814884,3.71218605 C74.4814884,4.86 75.1931163,5.75581395 76.3024186,5.75581395 C77.3824186,5.75581395 78.1225116,4.8507907 78.1225116,3.71218605 M78.9404651,6.29162791 C78.2296744,6.98232558 77.276093,7.3615814 76.3024186,7.3615814 C75.456,7.3615814 74.6095814,7.06018605 73.9364651,6.52437209 C73.0607442,5.82362791 72.5843721,4.83153488 72.5843721,3.71218605 C72.5843721,2.71925581 72.9636279,1.82344186 73.6744186,1.13190698 C74.3751628,0.450418605 75.3295814,0.0619534884 76.3024186,0.0619534884 C77.276093,0.0619534884 78.2397209,0.450418605 78.9404651,1.13190698 C79.6512558,1.82344186 80.0204651,2.72846512 80.0204651,3.71218605 C80.0204651,4.70427907 79.6412093,5.60930233 78.9404651,6.29162791" id="Fill-27"></path>
                            <path d="M83.4515163,0.216837209 L83.4515163,3.12697674 L83.4515163,3.99348837 C83.4515163,5.23004651 83.6758884,5.76586047 84.6587721,5.76586047 C85.8166326,5.76586047 85.8651907,5.04586047 85.8651907,3.55646512 L85.8651907,3.12697674 L85.8651907,0.216837209 L87.7539349,0.216837209 L87.7539349,3.17637209 L87.7539349,4.35432558 C87.7539349,6.45655814 86.8690047,7.3615814 84.6587721,7.3615814 C83.4808186,7.3615814 82.6628651,7.08948837 82.1664,6.51516279 C81.6121674,5.88223256 81.5636093,5.06427907 81.5636093,3.97423256 L81.5636093,3.17637209 L81.5636093,0.216837209 L83.4515163,0.216837209 Z" id="Fill-28"></path>
                            <path d="M91.7686884,3.50765581 C92.5665488,3.50765581 92.9474791,3.2548186 92.9474791,2.64114419 C92.9474791,1.91109767 92.5866419,1.67751628 91.7979907,1.67751628 L91.4187349,1.67751628 L91.4187349,3.50765581 L91.7686884,3.50765581 Z M89.6371535,0.216586047 L91.623014,0.216586047 L91.739386,0.216586047 C92.7038512,0.216586047 93.443107,0.227469767 94.0366884,0.684586047 C94.5432,1.07388837 94.815293,1.66746977 94.815293,2.38830698 C94.815293,3.46830698 94.2702698,4.15900465 93.2580837,4.37333023 L95.1568744,7.17714419 L93.0144558,7.17714419 L91.4187349,4.4511907 L91.4187349,7.17714419 L89.6371535,7.17714419 L89.6371535,0.216586047 Z" id="Fill-29"></path>
                            <polygon id="Fill-30" points="102.657767 0.216837209 106.920837 0.216837209 106.920837 1.7455814 104.506326 1.7455814 104.506326 2.952 106.784372 2.952 106.784372 4.44139535 104.506326 4.44139535 104.506326 5.61934884 106.920837 5.61934884 106.920837 7.17739535 102.657767 7.17739535"></polygon>
                            <path d="M123.050093,4.57769302 L122.338465,2.28122791 C122.31,2.17406512 122.23214,1.86262326 122.105721,1.34690233 C121.979302,1.86262326 121.891395,2.17406512 121.862093,2.28122791 L121.161349,4.57769302 L123.050093,4.57769302 Z M120.908512,0.216669767 L123.282837,0.216669767 L125.687302,7.17722791 L123.799395,7.17722791 L123.448605,5.93146047 L120.751953,5.93146047 L120.392791,7.17722791 L118.504047,7.17722791 L120.908512,0.216669767 Z" id="Fill-31"></path>
                            <path d="M126.937172,0.216837209 L128.767312,0.216837209 L131.394474,3.79925581 C131.463126,3.88716279 131.68666,4.29572093 132.027405,5.02576744 C131.959591,4.48074419 131.921079,4.0227907 131.921079,3.65274419 L131.921079,0.216837209 L133.741172,0.216837209 L133.741172,7.17739535 L131.921079,7.17739535 L129.293079,3.58576744 C129.224428,3.49702326 129.000893,3.09851163 128.659312,2.36846512 C128.727963,2.91348837 128.767312,3.37060465 128.767312,3.74065116 L128.767312,7.17739535 L126.937172,7.17739535 L126.937172,0.216837209 Z" id="Fill-32"></path>
                            <path d="M137.678735,5.61909767 C139.128781,5.61909767 139.819479,5.06486512 139.819479,3.70188837 C139.819479,2.31965581 139.108688,1.77463256 137.678735,1.77463256 L137.357247,1.77463256 L137.357247,5.61909767 L137.678735,5.61909767 Z M135.478549,0.216586047 L136.929433,0.216586047 L137.152967,0.216586047 C138.447293,0.216586047 139.488781,0.23667907 140.403851,0.878818605 C141.279572,1.49249302 141.747572,2.45528372 141.747572,3.70188837 C141.747572,4.93844651 141.279572,5.90123721 140.403851,6.52412093 C139.538177,7.13779535 138.573712,7.17714419 137.415014,7.17714419 L136.929433,7.17714419 L135.478549,7.17714419 L135.478549,0.216586047 Z" id="Fill-33"></path>
                            <path d="M99.2287256,2.94940465 C98.5974698,2.78447442 98.1219349,2.67731163 98.1219349,2.18252093 C98.1219349,1.85266047 98.370586,1.50940465 98.8377488,1.50940465 C98.8377488,1.50940465 99.5393302,1.4415907 99.946214,2.07368372 C100.311237,1.75052093 100.866307,1.25740465 100.866307,1.25740465 C100.866307,1.25740465 100.519702,0.285404651 98.8921674,0.169032558 L98.8921674,0.17907907 C98.8444465,0.174893023 98.8000744,0.169032558 98.7531907,0.169032558 C97.2964465,0.169032558 96.3504,1.13182326 96.3504,2.42614884 C96.3504,3.51284651 96.9632372,4.01852093 98.2165395,4.3492186 C99.0060279,4.55266047 99.3844465,4.71842791 99.3844465,5.27266047 C99.3844465,5.6812186 99.0428651,5.99349767 98.5179349,5.99349767 L98.4266791,5.99349767 L98.4266791,5.98931163 C98.4266791,5.98931163 97.6832372,5.9692186 97.1784,5.08763721 C96.8728186,5.30614884 96.010493,6.08726512 96.010493,6.08726512 C96.010493,6.08726512 96.6677023,7.41089302 98.3186791,7.46866047 C98.3186791,7.46614884 98.3186791,7.4628 98.3195163,7.45945116 C98.3730977,7.4628 98.422493,7.46866047 98.4810977,7.46866047 C100.113656,7.46866047 101.142586,6.46819535 101.142586,5.02066047 C101.142586,3.7372186 100.462772,3.28010233 99.2287256,2.94940465" id="Fill-34"></path>
                            <path d="M111.762502,2.94940465 C111.131247,2.78447442 110.655712,2.67731163 110.655712,2.18252093 C110.655712,1.85266047 110.904363,1.50940465 111.371526,1.50940465 C111.371526,1.50940465 112.073107,1.4415907 112.479991,2.07368372 C112.845014,1.75052093 113.400084,1.25740465 113.400084,1.25740465 C113.400084,1.25740465 113.053479,0.285404651 111.425944,0.169032558 L111.425944,0.17907907 C111.378223,0.174893023 111.333851,0.169032558 111.286967,0.169032558 C109.830223,0.169032558 108.884177,1.13182326 108.884177,2.42614884 C108.884177,3.51284651 109.497014,4.01852093 110.750316,4.3492186 C111.539805,4.55266047 111.918223,4.71842791 111.918223,5.27266047 C111.918223,5.6812186 111.577479,5.99349767 111.051712,5.99349767 L110.960456,5.99349767 L110.960456,5.98931163 C110.960456,5.98931163 110.217014,5.9692186 109.712177,5.08763721 C109.406595,5.30614884 108.54427,6.08726512 108.54427,6.08726512 C108.54427,6.08726512 109.201479,7.41089302 110.852456,7.46866047 C110.852456,7.46614884 110.852456,7.4628 110.853293,7.45945116 C110.906874,7.4628 110.95627,7.46866047 111.014874,7.46866047 C112.647433,7.46866047 113.676363,6.46819535 113.676363,5.02066047 C113.676363,3.7372186 112.997386,3.28010233 111.762502,2.94940465" id="Fill-35"></path>
                            <path d="M70.1200465,4.77351628 C69.8270233,5.4139814 69.2443256,5.84933023 68.4933488,5.84933023 C67.8528837,5.84933023 67.3472093,5.54626047 67.0307442,5.07156279 C66.7971628,4.72412093 66.6732558,4.28458605 66.6732558,3.79816744 C66.6732558,3.4431907 66.7427442,3.1108186 66.874186,2.8228186 C67.1672093,2.17900465 67.7557674,1.74867907 68.4933488,1.74867907 C69.1112093,1.74867907 69.6252558,2.05593488 69.9484186,2.53314419 L71.2904651,1.36858605 C71.2402326,1.31500465 71.1950233,1.26226047 71.1414419,1.20951628 C70.4406977,0.528027907 69.4712093,0.137888372 68.4933488,0.137888372 C67.5213488,0.137888372 66.5652558,0.528027907 65.8603256,1.20951628 C65.646,1.41965581 65.4685116,1.64235349 65.3169767,1.8859814 C64.9586512,2.45109767 64.7686047,3.10077209 64.7686047,3.79816744 C64.7686047,4.72412093 65.0976279,5.56216744 65.7054419,6.22272558 C65.8352093,6.36253953 65.9708372,6.49733023 66.1223721,6.61956279 C66.7971628,7.15621395 67.6452558,7.45844651 68.4933488,7.45844651 C69.4712093,7.45844651 70.4281395,7.07667907 71.1414419,6.38430698 C71.3524186,6.1791907 71.5315814,5.95314419 71.6814419,5.7111907 L70.1200465,4.77351628 Z" id="Fill-36"></path>
                            <path d="M4.78163721,4.56764651 L4.0700093,2.27034419 C4.04154419,2.1640186 3.96368372,1.85257674 3.83726512,1.33685581 C3.71084651,1.85257674 3.62293953,2.1640186 3.59363721,2.27034419 L2.89289302,4.56764651 L4.78163721,4.56764651 Z M2.64005581,0.206623256 L5.0143814,0.206623256 L7.41884651,7.1671814 L5.53093953,7.1671814 L5.18014884,5.92057674 L2.48349767,5.92057674 L2.12433488,7.1671814 L0.235590698,7.1671814 L2.64005581,0.206623256 Z" id="Fill-37"></path>
                            <path d="M11.0634698,5.60905116 C12.5135163,5.60905116 13.204214,5.0548186 13.204214,3.69184186 C13.204214,2.3096093 12.4942605,1.76458605 11.0634698,1.76458605 L10.7419814,1.76458605 L10.7419814,5.60905116 L11.0634698,5.60905116 Z M8.86328372,0.206539535 L10.3141674,0.206539535 L10.5377023,0.206539535 C11.8320279,0.206539535 12.8735163,0.226632558 13.788586,0.868772093 C14.664307,1.48244651 15.132307,2.44607442 15.132307,3.69184186 C15.132307,4.9284 14.664307,5.8911907 13.788586,6.51491163 C12.9229116,7.12774884 11.9584465,7.16709767 10.7997488,7.16709767 L10.3141674,7.16709767 L8.86328372,7.16709767 L8.86328372,0.206539535 Z" id="Fill-38"></path>
                            <path d="M15.5556,0.206874419 L17.5699256,0.206874419 L18.9622047,4.10073488 C18.9906698,4.17859535 19.0685302,4.49087442 19.195786,5.03589767 C19.3222047,4.49087442 19.4092744,4.17859535 19.4385767,4.10073488 L20.8208093,0.206874419 L22.8359721,0.206874419 L19.9166233,7.16659535 L18.475786,7.16659535 L15.5556,0.206874419 Z" id="Fill-39"></path>
                            <path d="M26.8506419,4.56764651 L26.139014,2.27034419 C26.1105488,2.1640186 26.0326884,1.85257674 25.9062698,1.33685581 C25.7798512,1.85257674 25.6919442,2.1640186 25.6626419,2.27034419 L24.9618977,4.56764651 L26.8506419,4.56764651 Z M24.7090605,0.206623256 L27.083386,0.206623256 L29.4878512,7.1671814 L27.5999442,7.1671814 L27.2491535,5.92057674 L24.5525023,5.92057674 L24.1933395,7.1671814 L22.3045953,7.1671814 L24.7090605,0.206623256 Z" id="Fill-40"></path>
                            <polygon id="Fill-3" points="15.0689302 18.3767442 16.9861395 18.3767442 16.9861395 11.4170233 15.0689302 11.4170233"></polygon>
                            <polygon id="Fill-4" points="19.1002605 11.4166047 23.3633302 11.4166047 23.3633302 12.9453488 20.9488186 12.9453488 20.9488186 14.1517674 23.2268651 14.1517674 23.2268651 15.6411628 20.9488186 15.6411628 20.9488186 16.8191163 23.3633302 16.8191163 23.3633302 18.3763256 19.1002605 18.3763256"></polygon>
                            <path d="M30.7862791,0.206874419 L32.6164186,0.206874419 L35.2444186,3.78929302 C35.3122326,3.8772 35.5357674,4.28575814 35.8765116,5.01580465 C35.8086977,4.4707814 35.770186,4.01282791 35.770186,3.6427814 L35.770186,0.206874419 L37.5902791,0.206874419 L37.5902791,7.16659535 L35.770186,7.16659535 L33.142186,3.57580465 C33.0735349,3.48706047 32.8491628,3.08854884 32.5084186,2.35850233 C32.5770698,2.90352558 32.6164186,3.36064186 32.6164186,3.73068837 L32.6164186,7.16659535 L30.7862791,7.16659535 L30.7862791,0.206874419 Z" id="Fill-41"></path>
                            <polygon id="Fill-42" points="47.3913209 0.206874419 51.6543907 0.206874419 51.6543907 1.7356186 49.2398791 1.7356186 49.2398791 2.94203721 51.5179256 2.94203721 51.5179256 4.43143256 49.2398791 4.43143256 49.2398791 5.60938605 51.6543907 5.60938605 51.6543907 7.16659535 47.3913209 7.16659535"></polygon>
                            <path d="M55.6486326,5.60905116 C57.0986791,5.60905116 57.7893767,5.0548186 57.7893767,3.69184186 C57.7893767,2.3096093 57.0794233,1.76458605 55.6486326,1.76458605 L55.3271442,1.76458605 L55.3271442,5.60905116 L55.6486326,5.60905116 Z M53.4484465,0.206539535 L54.8993302,0.206539535 L55.1228651,0.206539535 C56.4171907,0.206539535 57.4586791,0.226632558 58.3737488,0.868772093 C59.2494698,1.48244651 59.7174698,2.44607442 59.7174698,3.69184186 C59.7174698,4.9284 59.2494698,5.8911907 58.3737488,6.51491163 C57.5080744,7.12774884 56.5436093,7.16709767 55.3849116,7.16709767 L54.8993302,7.16709767 L53.4484465,7.16709767 L53.4484465,0.206539535 Z" id="Fill-43"></path>
                            <path d="M44.4938233,4.76832558 C44.2008,5.40795349 43.6181023,5.84413953 42.8671256,5.84413953 C42.2266605,5.84413953 41.720986,5.54023256 41.4045209,5.06637209 C41.1709395,4.71893023 41.0470326,4.27939535 41.0470326,3.79213953 C41.0470326,3.438 41.1165209,3.10562791 41.2479628,2.81762791 C41.540986,2.17381395 42.1295442,1.74348837 42.8671256,1.74348837 C43.484986,1.74348837 43.9990326,2.05074419 44.3230326,2.52711628 L45.6642419,1.36339535 C45.6140093,1.30981395 45.5688,1.25706977 45.5152186,1.20432558 C44.8144744,0.522837209 43.844986,0.132697674 42.8671256,0.132697674 C41.8951256,0.132697674 40.9381953,0.522837209 40.2341023,1.20432558 C40.0197767,1.41446512 39.8422884,1.63716279 39.6907535,1.8807907 C39.3324279,2.44590698 39.1423814,3.0955814 39.1423814,3.79213953 C39.1423814,4.71893023 39.4714047,5.55697674 40.0792186,6.21753488 C40.208986,6.35734884 40.3437767,6.49130233 40.4961488,6.61437209 C41.1709395,7.15102326 42.0190326,7.45325581 42.8671256,7.45325581 C43.844986,7.45325581 44.8019163,7.07148837 45.5152186,6.37911628 C45.7261953,6.174 45.9053581,5.94795349 46.0552186,5.706 L44.4938233,4.76832558 Z" id="Fill-44"></path>
                            <path d="M25.3041488,11.4166047 L27.1342884,11.4166047 L29.7622884,14.9990233 C29.8301023,15.0869302 30.0536372,15.4954884 30.3943814,16.2255349 C30.3265674,15.6805116 30.2880558,15.2225581 30.2880558,14.8525116 L30.2880558,11.4166047 L32.1081488,11.4166047 L32.1081488,18.3763256 L30.2880558,18.3763256 L27.6600558,14.7855349 C27.5914047,14.6967907 27.3678698,14.2982791 27.0262884,13.5682326 C27.0949395,14.1132558 27.1342884,14.5703721 27.1342884,14.9404186 L27.1342884,18.3763256 L25.3041488,18.3763256 L25.3041488,11.4166047 Z" id="Fill-5"></path>
                            <polygon id="Fill-7" points="35.3344186 13.0620558 33.7872558 13.0620558 33.7872558 11.4169395 38.7895814 11.4169395 38.7895814 13.0620558 37.2323721 13.0620558 37.2323721 18.3766605 35.3344186 18.3766605"></polygon>
                        </g>
                        <path d="M130.748902,0.461218605 L130.748902,42.4673581" id="Stroke-1" stroke="#86368C" stroke-width="0.965"></path>
                        <g id="WGC" transform="translate(46.800000, 6.914177)" fill="#1D1D1B">
                            <path d="M17.5892651,3.58543256 C17.7541953,4.20664186 17.8035907,4.55575814 17.8128,4.60515349 C17.8998698,4.16729302 17.9676837,3.82822326 18.0262884,3.58543256 L18.8417302,0.284316279 L20.7547535,0.284316279 L18.7931721,7.22645581 L17.0358698,7.22645581 L16.1819163,4.26524651 C16.1333581,4.09026977 16.0554977,3.77882791 15.9483349,3.33259535 C15.8612651,3.69175814 15.792614,4.00236279 15.7164279,4.26524651 L14.8708465,7.22645581 L13.1135442,7.22645581 L11.1519628,0.284316279 L13.0658233,0.284316279 L13.8611721,3.60468837 C13.9482419,3.95380465 14.0160558,4.30375814 14.0754977,4.64366512 C14.1433116,4.28450233 14.2303814,3.93454884 14.3182884,3.60468837 L15.1914977,0.284316279 L16.7160558,0.284316279 L17.5892651,3.58543256 Z" id="Fill-46"></path>
                            <polygon id="Fill-47" points="22.2340186 0.283981395 26.4862047 0.283981395 26.4862047 1.80853953 24.0783907 1.80853953 24.0783907 3.01244651 26.3497395 3.01244651 26.3497395 4.49765581 24.0783907 4.49765581 24.0783907 5.67226047 26.4862047 5.67226047 26.4862047 7.22612093 22.2340186 7.22612093"></polygon>
                            <polygon id="Fill-48" points="28.321786 0.283981395 30.2155535 0.283981395 30.2155535 5.60444651 32.5647628 5.60444651 32.5647628 7.22612093 28.321786 7.22612093"></polygon>
                            <polygon id="Fill-49" points="34.4602047 0.283981395 36.3531349 0.283981395 36.3531349 5.60444651 38.7023442 5.60444651 38.7023442 7.22612093 34.4602047 7.22612093"></polygon>
                            <path d="M53.580307,3.77020465 C53.580307,2.64332093 52.8234698,1.73076279 51.7652372,1.73076279 C50.6969581,1.73076279 49.9493302,2.63411163 49.9493302,3.77020465 C49.9493302,4.91550698 50.6584465,5.8088093 51.7652372,5.8088093 C52.8427256,5.8088093 53.580307,4.90546047 53.580307,3.77020465 M54.396586,6.34211163 C53.6874698,7.03197209 52.7355628,7.41122791 51.7652372,7.41122791 C50.9196558,7.41122791 50.0757488,7.10899535 49.4059814,6.57569302 C48.5319349,5.87662326 48.0555628,4.88620465 48.0555628,3.77020465 C48.0555628,2.77894884 48.4348186,1.88648372 49.1430977,1.19746047 C49.8421674,0.516809302 50.7940744,0.128344186 51.7652372,0.128344186 C52.7355628,0.128344186 53.6975163,0.516809302 54.396586,1.19746047 C55.1040279,1.88648372 55.4740744,2.78899535 55.4740744,3.77020465 C55.4740744,4.76062326 55.0956558,5.66313488 54.396586,6.34211163" id="Fill-50"></path>
                            <path d="M63.146093,7.22612093 L62.7383721,4.2264 C62.6797674,3.80863256 62.6312093,3.29458605 62.5926977,2.67337674 C62.4955814,3.28453953 62.349907,3.70146977 62.2720465,3.97356279 L61.330186,7.22612093 L60.0676744,7.22612093 L59.1266512,3.97356279 C59.0479535,3.70146977 58.9031163,3.28453953 58.806,2.67337674 C58.7674884,3.29458605 58.7088837,3.80863256 58.6511163,4.2264 L58.2433953,7.22612093 L56.486093,7.22612093 L57.5535349,0.283981395 L59.4280465,0.283981395 L60.4762326,3.8664 C60.5440465,4.08993488 60.6411628,4.39133023 60.6989302,4.80826047 C60.7483256,4.41979535 60.8353953,4.1091907 60.9124186,3.8571907 L61.9714884,0.283981395 L63.8451628,0.283981395 L64.9126047,7.22612093 L63.146093,7.22612093 Z" id="Fill-51"></path>
                            <polygon id="Fill-52" points="66.5186233 0.283981395 70.7699721 0.283981395 70.7699721 1.80853953 68.3629953 1.80853953 68.3629953 3.01244651 70.6343442 3.01244651 70.6343442 4.49765581 68.3629953 4.49765581 68.3629953 5.67226047 70.7699721 5.67226047 70.7699721 7.22612093 66.5186233 7.22612093"></polygon>
                            <polygon id="Fill-53" points="9.01523721 11.1677023 13.2682605 11.1677023 13.2682605 12.6922605 10.8604465 12.6922605 10.8604465 13.8961674 13.1326326 13.8961674 13.1326326 15.3813767 10.8604465 15.3813767 10.8604465 16.5559814 13.2682605 16.5559814 13.2682605 18.1098419 9.01523721 18.1098419"></polygon>
                            <path d="M15.1536558,11.1677023 L16.9787721,11.1677023 L19.6000744,14.7409116 C19.6678884,14.8279814 19.890586,15.2357023 20.230493,15.9640744 C20.1626791,15.4207256 20.1241674,14.9644465 20.1241674,14.5952372 L20.1241674,11.1677023 L21.9392372,11.1677023 L21.9392372,18.1098419 L20.1241674,18.1098419 L17.5028651,14.5274233 C17.4350512,14.4395163 17.2115163,14.0418419 16.8716093,13.3134698 C16.9394233,13.8576558 16.9787721,14.3139349 16.9787721,14.682307 L16.9787721,18.1098419 L15.1536558,18.1098419 L15.1536558,11.1677023 Z" id="Fill-54"></path>
                            <path d="M28.8548372,14.6539256 C28.8548372,13.5270419 28.098,12.6144837 27.0397674,12.6144837 C25.9714884,12.6144837 25.2238605,13.5178326 25.2238605,14.6539256 C25.2238605,15.7992279 25.9329767,16.6925302 27.0397674,16.6925302 C28.1172558,16.6925302 28.8548372,15.7891814 28.8548372,14.6539256 M29.6711163,17.2249953 C28.962,17.915693 28.010093,18.2949488 27.0397674,18.2949488 C26.194186,18.2949488 25.3502791,17.9918791 24.6805116,17.459414 C23.8064651,16.759507 23.330093,15.7699256 23.330093,14.6539256 C23.330093,13.6626698 23.7093488,12.7702047 24.4176279,12.0811814 C25.1166977,11.4005302 26.0686047,11.0120651 27.0397674,11.0120651 C28.010093,11.0120651 28.9720465,11.4005302 29.6711163,12.0811814 C30.3785581,12.7702047 30.7486047,13.6727163 30.7486047,14.6539256 C30.7486047,15.6443442 30.370186,16.5468558 29.6711163,17.2249953" id="Fill-55"></path>
                            <path d="M38.3723163,18.1098419 L37.9645953,15.1101209 C37.9059907,14.6923535 37.8574326,14.178307 37.8189209,13.5570977 C37.7218047,14.1682605 37.5761302,14.5851907 37.4982698,14.8572837 L36.5564093,18.1098419 L35.2938977,18.1098419 L34.3520372,14.8572837 C34.2758512,14.5851907 34.1293395,14.1682605 34.0322233,13.5570977 C33.9937116,14.178307 33.935107,14.6923535 33.8773395,15.1101209 L33.4696186,18.1098419 L31.7114791,18.1098419 L32.7797581,11.1677023 L34.6542698,11.1677023 L35.7024558,14.7501209 C35.7702698,14.9736558 35.867386,15.2750512 35.9251535,15.6919814 C35.9745488,15.3035163 36.0607814,14.9929116 36.1394791,14.7409116 L37.1977116,11.1677023 L39.071386,11.1677023 L40.1388279,18.1098419 L38.3723163,18.1098419 Z" id="Fill-56"></path>
                            <polygon id="Fill-57" points="41.7923163 11.1677023 46.0445023 11.1677023 46.0445023 12.6922605 43.6366884 12.6922605 43.6366884 13.8961674 45.9080372 13.8961674 45.9080372 15.3813767 43.6366884 15.3813767 43.6366884 16.5559814 46.0445023 16.5559814 46.0445023 18.1098419 41.7923163 18.1098419"></polygon>
                            <path d="M30.7009674,26.4001395 L29.9918512,24.1095349 C29.9625488,24.0032093 29.8846884,23.6926047 29.759107,23.1768837 C29.6326884,23.6926047 29.5447814,24.0032093 29.5163163,24.1095349 L28.8172465,26.4001395 L30.7009674,26.4001395 Z M28.5644093,22.0508372 L30.9337116,22.0508372 L33.3323163,28.993814 L31.4485953,28.993814 L31.0986419,27.7505581 L28.4095256,27.7505581 L28.0503628,28.993814 L26.1666419,28.993814 L28.5644093,22.0508372 Z" id="Fill-58"></path>
                            <path d="M41.1104093,28.9935628 L40.7026884,25.9930047 C40.6440837,25.5760744 40.5955256,25.0611907 40.557014,24.4399814 C40.4598977,25.0511442 40.3142233,25.4680744 40.2363628,25.7410047 L39.2945023,28.9935628 L38.0319907,28.9935628 L37.0909674,25.7410047 C37.0122698,25.4680744 36.8674326,25.0511442 36.7703163,24.4399814 C36.7318047,25.0611907 36.6732,25.5760744 36.6154326,25.9930047 L36.2077116,28.9935628 L34.4504093,28.9935628 L35.5178512,22.050586 L37.3923628,22.050586 L38.4405488,25.6330047 C38.5083628,25.8573767 38.6054791,26.1579349 38.6632465,26.5748651 C38.7126419,26.1872372 38.7997116,25.8766326 38.8767349,25.6237953 L39.9358047,22.050586 L41.8094791,22.050586 L42.8769209,28.9935628 L41.1104093,28.9935628 Z" id="Fill-59"></path>
                            <path d="M46.3748651,25.1770605 C47.1810977,25.1770605 47.5980279,25.0213395 47.5980279,24.3532465 C47.5980279,23.6826419 47.1610047,23.547014 46.3941209,23.547014 L46.0157023,23.547014 L46.0157023,25.1770605 L46.3748651,25.1770605 Z M44.238307,28.9938977 L44.238307,22.0509209 L46.2191442,22.0509209 L46.3556093,22.0509209 C47.2288186,22.0509209 47.9186791,22.0601302 48.4620279,22.4100837 C49.0740279,22.799386 49.4331907,23.5177116 49.4331907,24.4101767 C49.4331907,25.3327814 49.0932837,26.0226419 48.4720744,26.3901767 C47.9965395,26.6731535 47.4624,26.7007814 46.8110512,26.7007814 L46.3556093,26.7007814 L46.0157023,26.7007814 L46.0157023,28.9938977 L44.238307,28.9938977 Z" id="Fill-60"></path>
                            <path d="M52.7749953,22.050586 L52.7749953,24.9548651 L52.7749953,25.8180279 C52.7749953,27.0512372 52.9985302,27.5853767 53.9780651,27.5853767 C55.133414,27.5853767 55.1828093,26.866214 55.1828093,25.3818419 L55.1828093,24.9548651 L55.1828093,22.050586 L57.0665302,22.050586 L57.0665302,25.0017488 L57.0665302,26.1780279 C57.0665302,28.2744 56.1824372,29.178586 53.9780651,29.178586 C52.8034605,29.178586 51.9888558,28.9056558 51.4932279,28.3330047 C50.9398326,27.7017488 50.8912744,26.8854698 50.8912744,25.7987721 L50.8912744,25.0017488 L50.8912744,22.050586 L52.7749953,22.050586 Z" id="Fill-61"></path>
                            <path d="M61.6736093,24.6750698 C61.0423535,24.5101395 60.5668186,24.403814 60.5668186,23.9098605 C60.5668186,23.5791628 60.8171442,23.2375814 61.2826326,23.2375814 C61.2826326,23.2375814 61.984214,23.1706047 62.3894233,23.800186 C62.7544465,23.4778605 63.3086791,22.9855814 63.3086791,22.9855814 C63.3086791,22.9855814 62.9620744,22.0144186 61.3370512,21.8988837 L61.3370512,21.908093 C61.2893302,21.9047442 61.2449581,21.8988837 61.1980744,21.8988837 C59.7421674,21.8988837 58.7986326,22.86 58.7986326,24.151814 C58.7986326,25.2376744 59.4106326,25.7425116 60.6630977,26.0732093 C61.4509116,26.2774884 61.8293302,26.4424186 61.8293302,26.9949767 C61.8293302,27.4026977 61.488586,27.7149767 60.9636558,27.7149767 L60.8724,27.7149767 L60.8724,27.7116279 C60.8724,27.7116279 60.1297953,27.6906977 59.6249581,26.8107907 C59.320214,27.0301395 58.4587256,27.807907 58.4587256,27.807907 C58.4587256,27.807907 59.1142605,29.1306977 60.7644,29.1901395 C60.7644,29.1867907 60.7644,29.1834419 60.7660744,29.180093 C60.8188186,29.1834419 60.8673767,29.1901395 60.9259814,29.1901395 C62.5568651,29.1901395 63.5849581,28.1888372 63.5849581,26.743814 C63.5849581,25.4612093 62.9068186,25.0057674 61.6736093,24.6750698" id="Fill-62"></path>
                            <path d="M45.3267628,4.78565581 C45.035414,5.4236093 44.4552279,5.85309767 43.7109488,5.85309767 C43.0738326,5.85309767 42.5681581,5.55421395 42.2542047,5.08202791 C42.0239721,4.73626047 41.8975535,4.30007442 41.8975535,3.81449302 C41.8975535,3.46286512 41.9695535,3.13384186 42.1001581,2.84835349 C42.391507,2.20705116 42.9750419,1.77672558 43.7109488,1.77672558 C44.3246233,1.77672558 44.8361581,2.0839814 45.1568093,2.55867907 L46.4896465,1.39914419 C46.4402512,1.34891163 46.3942047,1.2928186 46.3422977,1.24258605 C45.6457395,0.563609302 44.6821116,0.175981395 43.7109488,0.175981395 C42.7431349,0.175981395 41.7895535,0.563609302 41.0913209,1.24258605 C40.879507,1.45021395 40.7011814,1.67374884 40.5504837,1.91402791 C40.1938326,2.47663256 40.0046233,3.12128372 40.0046233,3.81449302 C40.0046233,4.73626047 40.3328093,5.57012093 40.9381116,6.22816744 C41.0670419,6.36546977 41.2009953,6.49942326 41.3533674,6.62165581 C42.0239721,7.15495814 42.8670419,7.45551628 43.7109488,7.45551628 C44.6821116,7.45551628 45.6340186,7.07626047 46.3422977,6.38807442 C46.5516,6.18379535 46.7282512,5.95774884 46.879786,5.71914419 L45.3267628,4.78565581 Z" id="Fill-63"></path>
                            <path d="M23.9345581,26.5129953 C23.6448837,27.1526233 23.0655349,27.5821116 22.3204186,27.5821116 C21.6833023,27.5821116 21.1784651,27.2832279 20.8636744,26.8102047 C20.6334419,26.4652744 20.5070233,26.027414 20.5070233,25.543507 C20.5070233,25.1902047 20.5773488,24.8628558 20.7079535,24.575693 C20.9993023,23.9343907 21.5828372,23.5040651 22.3204186,23.5040651 C22.9324186,23.5040651 23.4439535,23.8113209 23.7662791,24.287693 L25.0991163,23.1281581 C25.0497209,23.0762512 25.0036744,23.0218326 24.9517674,22.9716 C24.2535349,22.2926233 23.2915814,21.9033209 22.3204186,21.9033209 C21.3509302,21.9033209 20.3990233,22.2926233 19.7007907,22.9716 C19.4881395,23.1775535 19.3106512,23.4027628 19.1591163,23.6430419 C18.8033023,24.2039721 18.614093,24.8502977 18.614093,25.543507 C18.614093,26.4652744 18.9422791,27.2974605 19.5475814,27.9571814 C19.6748372,28.0944837 19.8087907,28.2267628 19.9628372,28.3489953 C20.6317674,28.8822977 21.4765116,29.1845302 22.3204186,29.1845302 C23.2915814,29.1845302 24.2434884,28.8052744 24.9517674,28.115414 C25.1610698,27.9128093 25.3377209,27.6867628 25.4875814,27.4464837 L23.9345581,26.5129953 Z" id="Fill-64"></path>
                            <path d="M7.37874419,14.1797302 L6.24851163,14.1797302 L5.47576744,14.1797302 L3.80553488,14.1797302 L3.80553488,15.5569395 L5.35939535,15.5569395 C5.08311628,16.2375907 4.48786047,16.7039163 3.71762791,16.7039163 C3.078,16.7039163 2.57651163,16.4058698 2.26255814,15.9336837 C2.03316279,15.5895907 1.90590698,15.1525674 1.90590698,14.6703349 C1.90590698,14.5003814 1.92516279,14.3354512 1.95781395,14.1797302 C2.13781395,13.2889395 2.81176744,12.6359163 3.71762791,12.6359163 C4.32711628,12.6359163 4.83613953,12.9431721 5.15846512,13.4178698 L6.48627907,12.2616837 C6.43855814,12.2089395 6.39251163,12.1553581 6.34060465,12.1042884 C5.64404651,11.426986 4.68376744,11.0401953 3.71762791,11.0401953 C2.74813953,11.0401953 1.7995814,11.426986 1.10302326,12.1042884 C0.514465116,12.6769395 0.159488372,13.3877302 0.0548372093,14.1797302 C0.0322325581,14.3396372 0.0171627907,14.5037302 0.0171627907,14.6703349 C0.0171627907,15.5895907 0.346186047,16.4192651 0.948976744,17.0748 C1.07706977,17.2137767 1.21102326,17.3460558 1.36423256,17.4691256 C2.03148837,17.9999163 2.87372093,18.3013116 3.71762791,18.3013116 C4.68376744,18.3013116 5.634,17.9220558 6.34060465,17.234707 C7.03883721,16.5582419 7.4164186,15.6582419 7.4164186,14.6703349 C7.4164186,14.5037302 7.40134884,14.3413116 7.37874419,14.1797302" id="Fill-65"></path>
                        </g>
                        <g id="circle" transform="translate(0.000000, 0.074177)">
                            <path d="M3.58886512,27.9131442 L5.87612093,27.0801209 C5.22979535,25.3169581 4.87733023,23.412307 4.87733023,21.4297953 C4.87733023,17.3944465 6.33574884,13.6939814 8.74691163,10.8240279 L6.88412093,9.26012093 C4.11546977,12.5528651 2.4444,16.7991907 2.4444,21.4297953 C2.4444,23.7061674 2.84877209,25.8904465 3.58886512,27.9131442" id="Fill-66" fill="#B0036A"></path>
                            <path d="M9.22102326,35.9344465 L10.7832558,34.0708186 C8.58725581,32.2247721 6.87683721,29.820307 5.87302326,27.0759349 L3.58744186,27.9081209 C4.73525581,31.0577023 6.70102326,33.8179814 9.22102326,35.9344465" id="Fill-67" fill="#0071B9"></path>
                            <path d="M21.3865953,2.48709767 C15.5679907,2.48709767 10.3580372,5.12346977 6.87943256,9.26263256 L8.74306047,10.828214 C11.7754326,7.21984186 16.3164558,4.92170233 21.3865953,4.92170233 C26.4525488,4.92170233 30.9952465,7.21816744 34.025107,10.8240279 L35.8887349,9.26012093 C32.4101302,5.12095814 27.2018512,2.48709767 21.3865953,2.48709767" id="Fill-68" fill="#EF7918"></path>
                            <path d="M33.558614,35.9291721 L31.994707,34.0655442 C29.1239163,36.480893 25.4217767,37.9359628 21.3864279,37.9359628 C17.3510791,37.9359628 13.650614,36.480893 10.7798233,34.0663814 L9.21675349,35.9316837 C12.5111721,38.7011721 16.7566605,40.3705674 21.3864279,40.3705674 C26.0170326,40.3705674 30.2641953,38.696986 33.558614,35.9291721" id="Fill-69" fill="#0099D4"></path>
                            <path d="M37.7880279,30.8916837 L35.6807721,29.6760558 C34.7137953,31.3471256 33.4621674,32.8331721 31.9911907,34.0663814 L33.5559349,35.9316837 C35.2420744,34.5142884 36.6787256,32.808893 37.7880279,30.8916837" id="Fill-70" fill="#00B0AD"></path>
                            <path d="M37.6360744,18.5585023 L35.3228651,18.9687349 C35.4643535,19.7674326 35.5380279,20.5887349 35.5380279,21.429293 C35.5380279,24.0045488 34.846493,26.4215721 33.6400744,28.5037116 L35.6736558,29.6774791 C37.0810047,27.2487349 37.8872372,24.4315256 37.8872372,21.429293 C37.8872372,20.4480837 37.8001674,19.4919907 37.6360744,18.5585023" id="Fill-71" fill="#CAD200"></path>
                            <path d="M40.0408744,18.1341209 L37.6422698,18.558586 C37.8063628,19.4912372 37.8942698,20.4481674 37.8942698,21.4293767 C37.8942698,24.4332837 37.0872,27.2530047 35.679014,29.6817488 L37.7854326,30.8965395 C39.4020837,28.1111442 40.3280372,24.8753302 40.3280372,21.4293767 C40.3280372,20.3041674 40.2284093,19.2057488 40.0408744,18.1341209" id="Fill-72" fill="#27A536"></path>
                            <path d="M1.28754419,14.1195349 L3.58317209,14.9550698 C4.73349767,11.8054884 6.69675349,9.04437209 9.21675349,6.92706977 L7.64531163,5.05423256 C4.7988,7.44613953 2.5843814,10.5647442 1.28754419,14.1195349" id="Fill-73" fill="#E6007C"></path>
                            <path d="M0.324837209,25.1507721 L2.72930233,24.7254698 C2.54260465,23.6538419 2.44381395,22.5537488 2.44381395,21.4293767 C2.44381395,19.1546791 2.84734884,16.9720744 3.58660465,14.950214 L1.28846512,14.1146791 C0.45544186,16.3969116 0,18.8608186 0,21.4293767 C0,22.698586 0.113023256,23.9401674 0.324837209,25.1507721" id="Fill-74" fill="#86368C"></path>
                            <path d="M21.3865953,42.8148837 L21.393293,42.8148837 L21.3907814,40.371907 L21.3865953,40.371907 C12.0634326,40.371907 4.29329302,33.6013953 2.72938605,24.7202791 L0.32492093,25.1413953 C2.0864093,35.1711628 10.8595256,42.8148837 21.3865953,42.8148837" id="Fill-75" fill="#2A2B7C"></path>
                            <path d="M21.3865953,0.0429488372 C16.1548744,0.0429488372 11.3601767,1.9300186 7.64045581,5.05783256 L9.21273488,6.92983256 C12.5088279,4.15866977 16.7534791,2.48676279 21.3865953,2.48676279 C27.2018512,2.48676279 32.4101302,5.12146047 35.8887349,9.25978605 L37.7615721,7.6900186 C33.833386,3.01755349 27.9511535,0.0429488372 21.3865953,0.0429488372" id="Fill-76" fill="#E51A35"></path>
                            <path d="M21.3865953,40.3720744 L21.3865953,42.8150512 C29.289014,42.8150512 36.2043628,38.5059349 39.9048279,32.1138419 L37.7883628,30.8915163 C34.5106884,36.5552372 28.3848279,40.3720744 21.3865953,40.3720744" id="Fill-77" fill="#007961"></path>
                        </g>
                    </g>
                </g>
            </g>
        </g>
    </g>
</svg>