<?xml version="1.0" encoding="UTF-8" standalone="no"?>
<svg width="287px" height="57px" viewBox="0 0 287 57" version="1.1" xmlns="http://www.w3.org/2000/svg" xmlns:xlink="http://www.w3.org/1999/xlink">
    <!-- Generator: Sketch 39.1 (31720) - http://www.bohemiancoding.com/sketch -->
    <title>Logo - landscape</title>
    <desc>Created with Sketch.</desc>
    <defs></defs>
    <g id="Symbols" stroke="none" stroke-width="1" fill="none" fill-rule="evenodd">
        <g id="Header---L" transform="translate(-20.000000, -20.000000)">
            <g id="Logo---landscape---M">
                <g transform="translate(20.000000, 20.000000)">
                    <g id="logo">
                        <g id="Group">
                            <g id="Layer_1" transform="translate(173.855306, 0.374555)">
                                <path d="M0.22240531,0.109592005 L0.22240531,55.1247783" id="Shape" stroke="#E51935" stroke-width="0.9652"></path>
                                <g id="Group" transform="translate(27.421500, 15.342881)" fill="#E51935">
                                    <path d="M8.60816075,8.43858435 C7.71853951,9.31532039 6.38410765,9.86328041 5.04967579,9.86328041 C3.93764923,9.86328041 2.82562268,9.42491239 1.93600144,8.76736036 C0.82397489,7.89062433 0.156758959,6.57552027 0.156758959,5.04123221 C0.156758959,3.72612815 0.712772235,2.5206161 1.60239348,1.64388007 C2.49201472,0.767144032 3.82644658,0.219184009 5.04967579,0.219184009 C6.38410765,0.219184009 7.60733685,0.767144032 8.60816075,1.64388007 C9.49778199,2.5206161 10.0537953,3.72612815 10.0537953,5.04123221 C10.0537953,6.35633626 9.49778199,7.56184831 8.60816075,8.43858435 L8.60816075,8.43858435 Z M7.4961342,5.04123221 C7.4961342,3.61653615 6.4953103,2.4110241 5.04967579,2.4110241 C3.60404127,2.4110241 2.60321737,3.61653615 2.60321737,5.04123221 C2.60321737,6.57552027 3.49283861,7.67144032 5.04967579,7.67144032 C6.60651296,7.78103232 7.4961342,6.57552027 7.4961342,5.04123221 L7.4961342,5.04123221 Z" id="Shape"></path>
                                    <path d="M12.0554431,0.547960023 L14.5019015,0.547960023 L17.9491838,5.26041622 C18.0603864,5.37000822 18.2827917,5.91796825 18.838805,6.90429629 C18.7276024,6.13715225 18.7276024,5.58919223 18.7276024,5.15082421 L18.7276024,0.657552027 L21.1740608,0.657552027 L21.1740608,9.7536884 L18.7276024,9.7536884 L15.2803201,5.04123221 C15.1691174,4.9316402 14.9467121,4.38368018 14.3906988,3.39735214 C14.5019015,4.16449617 14.5019015,4.7124562 14.5019015,5.15082421 L14.5019015,9.6440964 L12.0554431,9.6440964 L12.0554431,0.547960023 L12.0554431,0.547960023 Z" id="Shape"></path>
                                    <polygon id="Shape" points="23.7317218 0.547960023 29.4030573 0.547960023 29.4030573 2.5206161 26.1781803 2.5206161 26.1781803 4.05490417 29.1806519 4.05490417 29.1806519 6.02756025 26.1781803 6.02756025 26.1781803 9.6440964 23.7317218 9.6440964"></polygon>
                                    <polygon id="Shape" points="32.071921 0.547960023 37.7432564 0.547960023 37.7432564 2.5206161 34.5183794 2.5206161 34.5183794 4.05490417 37.5208511 4.05490417 37.5208511 6.02756025 34.5183794 6.02756025 34.5183794 7.56184831 37.7432564 7.56184831 37.7432564 9.6440964 32.071921 9.6440964"></polygon>
                                    <path d="M40.3009175,0.547960023 L42.9697812,0.547960023 L43.0809838,0.547960023 C44.4154157,0.547960023 45.3050369,0.547960023 46.0834555,1.20551205 C46.7506715,1.75347207 47.0842794,2.5206161 47.0842794,3.39735214 C47.0842794,4.8220482 46.3058608,5.69878424 44.971429,6.02756025 L47.52909,9.6440964 L44.637821,9.6440964 L42.5249706,6.02756025 L42.5249706,9.6440964 L40.1897148,9.6440964 L40.1897148,0.547960023 L40.3009175,0.547960023 Z M43.0809838,4.8220482 C44.1930104,4.8220482 44.637821,4.49327219 44.637821,3.72612815 C44.637821,2.73980011 44.1930104,2.4110241 43.0809838,2.4110241 L42.6361732,2.4110241 L42.6361732,4.8220482 L43.0809838,4.8220482 L43.0809838,4.8220482 Z" id="Shape"></path>
                                    <polygon id="Shape" points="49.4195352 0.547960023 55.0908706 0.547960023 55.0908706 2.5206161 51.8659936 2.5206161 51.8659936 4.05490417 54.8684653 4.05490417 54.8684653 6.02756025 51.8659936 6.02756025 51.8659936 7.56184831 55.0908706 7.56184831 55.0908706 9.6440964 49.4195352 9.6440964"></polygon>
                                    <path d="M57.6485317,0.547960023 L60.0949901,0.547960023 L63.5422724,5.26041622 C63.653475,5.37000822 63.8758804,5.91796825 64.4318936,6.90429629 C64.320691,6.13715225 64.320691,5.58919223 64.320691,5.15082421 L64.320691,0.657552027 L66.7671494,0.657552027 L66.7671494,9.7536884 L64.320691,9.7536884 L60.8734087,5.04123221 C60.762206,4.9316402 60.5398007,4.38368018 59.9837874,3.39735214 C60.0949901,4.16449617 60.0949901,4.7124562 60.0949901,5.15082421 L60.0949901,9.6440964 L57.6485317,9.6440964 L57.6485317,0.547960023 L57.6485317,0.547960023 Z" id="Shape"></path>
                                    <polygon id="Shape" points="79.77786 0.547960023 85.4491954 0.547960023 85.4491954 2.5206161 82.2243184 2.5206161 82.2243184 4.05490417 85.2267901 4.05490417 85.2267901 6.02756025 82.2243184 6.02756025 82.2243184 7.56184831 85.4491954 7.56184831 85.4491954 9.6440964 79.77786 9.6440964"></polygon>
                                    <polygon id="Shape" points="0.712772235 14.7949206 6.38410765 14.7949206 6.38410765 16.7675767 3.15923065 16.7675767 3.15923065 18.3018648 6.16170234 18.3018648 6.16170234 20.2745208 3.15923065 20.2745208 3.15923065 21.9184009 6.38410765 21.9184009 6.38410765 24.000649 0.712772235 24.000649"></polygon>
                                    <path d="M9.05297137,14.7949206 L11.4994298,14.7949206 L14.9467121,19.5073768 C15.0579147,19.6169688 15.2803201,20.1649288 15.8363333,21.1512569 C15.7251307,20.3841128 15.7251307,19.8361528 15.7251307,19.3977848 L15.7251307,14.9045126 L18.1715891,14.9045126 L18.1715891,24.000649 L15.7251307,24.000649 L12.2778484,19.2881928 C12.1666457,19.1786008 11.9442404,18.6306408 11.3882271,17.6443127 C11.4994298,18.4114568 11.4994298,18.9594168 11.4994298,19.3977848 L11.4994298,23.891057 L9.05297137,23.891057 L9.05297137,14.7949206 L9.05297137,14.7949206 Z" id="Shape"></path>
                                    <polygon id="Shape" points="22.1748847 16.9867607 20.1732369 16.9867607 20.1732369 14.7949206 26.8453962 14.7949206 26.8453962 16.9867607 24.7325457 16.9867607 24.7325457 23.891057 22.1748847 23.891057 22.1748847 16.9867607"></polygon>
                                    <path d="M28.9582466,14.7949206 L31.6271104,14.7949206 L31.738313,14.7949206 C33.0727449,14.7949206 33.9623661,14.7949206 34.7407847,15.4524726 C35.4080006,16.0004327 35.7416086,16.7675767 35.7416086,17.6443127 C35.7416086,19.0690088 34.96319,19.9457448 33.6287582,20.2745208 L36.1864192,23.891057 L33.2951502,23.891057 L31.1822997,20.2745208 L31.1822997,23.891057 L28.847044,23.891057 L28.847044,14.7949206 L28.9582466,14.7949206 Z M31.738313,19.0690088 C32.8503396,19.0690088 33.2951502,18.7402328 33.2951502,17.9730887 C33.2951502,16.9867607 32.8503396,16.6579847 31.738313,16.6579847 L31.1822997,16.6579847 L31.1822997,19.0690088 L31.738313,19.0690088 L31.738313,19.0690088 Z" id="Shape"></path>
                                    <polygon id="Shape" points="38.0768644 14.7949206 43.7481998 14.7949206 43.7481998 16.7675767 40.5233228 16.7675767 40.5233228 18.3018648 43.5257945 18.3018648 43.5257945 20.2745208 40.5233228 20.2745208 40.5233228 21.9184009 43.7481998 21.9184009 43.7481998 24.000649 38.0768644 24.000649"></polygon>
                                </g>
                                <path d="M24.3533815,21.6992169 C24.0197735,22.5759529 23.2413549,23.123913 22.240531,23.123913 C21.3509098,23.123913 20.6836939,22.6855449 20.3500859,22.1375849 C20.0164779,21.6992169 19.9052753,21.1512569 19.9052753,20.4937049 C19.9052753,20.0553368 20.0164779,19.6169688 20.1276806,19.1786008 C20.4612885,18.3018648 21.2397071,17.7539047 22.240531,17.7539047 C23.0189496,17.7539047 23.6861655,18.1922728 24.1309762,18.7402328 L25.9102186,17.2059447 C25.799016,17.0963527 25.799016,17.0963527 25.6878133,16.9867607 C24.7981921,16.1100247 23.4637602,15.5620646 22.1293284,15.5620646 C20.7948965,15.5620646 19.5716673,16.1100247 18.6820461,16.9867607 C18.3484381,17.2059447 18.1260328,17.5347207 18.0148301,17.8634967 C17.5700195,18.6306408 17.2364115,19.3977848 17.2364115,20.3841128 C17.2364115,21.5896249 17.6812222,22.6855449 18.4596408,23.562281 C18.6820461,23.781465 18.7932487,23.891057 19.015654,24.110241 C19.9052753,24.767793 21.0173018,25.206161 22.1293284,25.206161 C23.4637602,25.206161 24.6869894,24.658201 25.6878133,23.781465 C25.9102186,23.562281 26.2438266,23.233505 26.3550293,22.904729 L24.3533815,21.6992169 L24.3533815,21.6992169 Z" id="Shape" fill="#E51935"></path>
                                <path d="M24.3533815,35.9461775 C24.0197735,36.8229135 23.2413549,37.3708736 22.240531,37.3708736 C21.3509098,37.3708736 20.6836939,36.9325055 20.3500859,36.3845455 C20.0164779,35.9461775 19.9052753,35.3982175 19.9052753,34.7406654 C19.9052753,34.3022974 20.0164779,33.8639294 20.1276806,33.4255614 C20.4612885,32.5488254 21.2397071,32.0008653 22.240531,32.0008653 C23.0189496,32.0008653 23.6861655,32.4392333 24.1309762,32.9871934 L25.9102186,31.4529053 C25.799016,31.3433133 25.799016,31.3433133 25.6878133,31.2337213 C24.7981921,30.3569853 23.4637602,29.8090252 22.1293284,29.8090252 C20.7948965,29.8090252 19.5716673,30.3569853 18.6820461,31.2337213 C18.3484381,31.4529053 18.1260328,31.7816813 18.0148301,32.1104573 C17.5700195,32.8776014 17.2364115,33.6447454 17.2364115,34.6310734 C17.2364115,35.8365855 17.6812222,36.9325055 18.4596408,37.8092416 C18.6820461,38.0284256 18.7932487,38.1380176 19.015654,38.3572016 C19.9052753,39.0147536 21.0173018,39.4531216 22.1293284,39.4531216 C23.4637602,39.4531216 24.6869894,38.9051616 25.6878133,38.0284256 C25.9102186,37.8092416 26.2438266,37.4804656 26.3550293,37.1516895 L24.3533815,35.9461775 L24.3533815,35.9461775 Z" id="Shape" fill="#E51935"></path>
                                <path d="M103.418469,21.6992169 C103.084861,22.5759529 102.306443,23.123913 101.305619,23.123913 C100.415998,23.123913 99.7487817,22.6855449 99.4151737,22.1375849 C99.0815657,21.6992169 98.9703631,21.1512569 98.9703631,20.4937049 C98.9703631,20.0553368 99.0815657,19.6169688 99.1927684,19.1786008 C99.637579,18.3018648 100.415998,17.7539047 101.305619,17.7539047 C102.084037,17.7539047 102.751253,18.1922728 103.196064,18.7402328 L104.975306,17.2059447 C104.864104,17.0963527 104.864104,17.0963527 104.752901,16.9867607 C103.86328,16.1100247 102.528848,15.5620646 101.194416,15.5620646 C99.8599843,15.5620646 98.6367551,16.1100247 97.7471339,16.9867607 C97.4135259,17.2059447 97.1911206,17.5347207 97.0799179,17.8634967 C96.6351073,18.6306408 96.3014993,19.3977848 96.3014993,20.3841128 C96.3014993,21.5896249 96.74631,22.6855449 97.5247286,23.562281 C97.7471339,23.781465 97.8583365,23.891057 98.0807418,24.110241 C98.9703631,24.767793 100.08239,25.206161 101.194416,25.206161 C102.528848,25.206161 103.752077,24.658201 104.752901,23.781465 C104.975306,23.562281 105.308914,23.233505 105.420117,22.904729 L103.418469,21.6992169 L103.418469,21.6992169 Z" id="Shape" fill="#E51935"></path>
                            </g>
                            <g id="Layer_2" transform="translate(62.652651, 8.767360)" fill="#1D1D1B">
                                <g id="Group">
                                    <g transform="translate(11.120266, 0.000000)" id="Shape">
                                        <path d="M12.0098868,4.86782714 C12.2322921,5.63497117 12.3434947,6.18293119 12.3434947,6.18293119 C12.4546974,5.63497117 12.5659,5.19660315 12.6771027,4.86782714 L13.7891292,0.593738961 L16.3467903,0.593738961 L13.7891292,9.68987534 L11.4538735,9.68987534 L10.3418469,5.85415518 C10.2306443,5.63497117 10.1194416,5.19660315 10.008239,4.64864313 C9.89703631,5.08701115 9.78583365,5.52537917 9.674631,5.85415518 L8.56260445,9.68987534 L6.22734869,9.68987534 L3.66968762,0.593738961 L6.22734869,0.593738961 L7.33937524,4.97741914 C7.45057789,5.41578716 7.56178055,5.85415518 7.6729832,6.2925232 C7.78418586,5.85415518 7.89538851,5.41578716 8.00659117,4.97741914 L9.11861772,0.593738961 L11.1202655,0.593738961 L12.0098868,4.86782714 L12.0098868,4.86782714 Z"></path>
                                        <polygon points="18.1260328 0.593738961 23.7973682 0.593738961 23.7973682 2.56639504 20.5724912 2.56639504 20.5724912 4.10068311 23.5749629 4.10068311 23.5749629 6.07333919 20.5724912 6.07333919 20.5724912 7.60762725 23.7973682 7.60762725 23.7973682 9.68987534 18.1260328 9.68987534"></polygon>
                                        <polygon points="26.2438266 0.593738961 28.8014877 0.593738961 28.8014877 7.60762725 31.915162 7.60762725 31.915162 9.68987534 26.2438266 9.68987534"></polygon>
                                        <polygon points="34.3616204 0.593738961 36.9192815 0.593738961 36.9192815 7.60762725 40.0329558 7.60762725 40.0329558 9.68987534 34.3616204 9.68987534"></polygon>
                                        <path d="M60.8278524,8.48436329 C59.9382311,9.36109933 58.6037993,9.90905935 57.3805701,9.90905935 C56.2685435,9.90905935 55.1565169,9.47069133 54.2668957,8.8131393 C53.1548692,7.93640327 52.4876532,6.62129921 52.4876532,5.08701115 C52.4876532,3.77190709 53.0436665,2.67598705 53.9332877,1.68965901 C54.822909,0.81292297 56.1573408,0.264962948 57.3805701,0.264962948 C58.7150019,0.264962948 59.9382311,0.81292297 60.8278524,1.68965901 C61.7174736,2.56639504 62.2734869,3.77190709 62.2734869,5.08701115 C62.2734869,6.4021152 61.8286763,7.60762725 60.8278524,8.48436329 L60.8278524,8.48436329 Z M59.8270285,5.08701115 C59.8270285,3.66231509 58.8262046,2.45680304 57.3805701,2.45680304 C55.9349355,2.45680304 54.9341116,3.66231509 54.9341116,5.08701115 C54.9341116,6.62129921 55.8237329,7.71721926 57.3805701,7.71721926 C58.8262046,7.82681126 59.8270285,6.62129921 59.8270285,5.08701115 L59.8270285,5.08701115 Z"></path>
                                        <path d="M72.5041311,9.68987534 L71.9481179,5.74456318 C71.8369152,5.19660315 71.8369152,4.53905113 71.7257126,3.66231509 C71.6145099,4.42945912 71.3921046,4.97741914 71.2809019,5.41578716 L70.0576727,9.68987534 L68.3896329,9.68987534 L67.1664037,5.41578716 C67.055201,5.08701115 66.8327957,4.53905113 66.7215931,3.66231509 C66.7215931,4.42945912 66.6103904,5.19660315 66.4991878,5.74456318 L65.9431745,9.68987534 L63.6079187,9.68987534 L65.0535533,0.593738961 L67.5000117,0.593738961 L68.9456462,5.30619516 C69.0568488,5.63497117 69.1680515,5.96374718 69.2792541,6.51170721 C69.3904568,5.96374718 69.5016595,5.63497117 69.6128621,5.30619516 L71.0584966,0.593738961 L73.504955,0.593738961 L74.9505896,9.68987534 L72.5041311,9.68987534 L72.5041311,9.68987534 Z"></path>
                                        <polygon points="76.9522374 0.593738961 82.6235728 0.593738961 82.6235728 2.56639504 79.3986958 2.56639504 79.3986958 4.10068311 82.4011675 4.10068311 82.4011675 6.07333919 79.3986958 6.07333919 79.3986958 7.60762725 82.6235728 7.60762725 82.6235728 9.68987534 76.9522374 9.68987534"></polygon>
                                        <polygon points="0.556013276 14.8406996 6.22734869 14.8406996 6.22734869 16.8133556 3.00247169 16.8133556 3.00247169 18.3476437 6.00494338 18.3476437 6.00494338 20.3202998 3.00247169 20.3202998 3.00247169 21.8545878 6.22734869 21.8545878 6.22734869 23.9368359 0.556013276 23.9368359"></polygon>
                                        <path d="M8.78500976,14.8406996 L11.1202655,14.8406996 L14.5675478,19.5531557 C14.6787505,19.6627478 14.9011558,20.2107078 15.4571691,21.1970358 C15.3459664,20.5394838 15.3459664,19.8819318 15.3459664,19.4435637 L15.3459664,14.9502916 L17.7924248,14.9502916 L17.7924248,24.0464279 L15.3459664,24.0464279 L11.8986841,19.3339717 C11.7874814,19.2243797 11.5650761,18.6764197 11.0090629,17.7996837 C11.1202655,18.4572357 11.1202655,19.1147877 11.1202655,19.5531557 L11.1202655,24.0464279 L8.6738071,24.0464279 L8.6738071,14.8406996 L8.78500976,14.8406996 Z"></path>
                                        <path d="M28.0230691,22.7313239 C27.1334479,23.6080599 25.799016,24.1560199 24.5757868,24.1560199 C23.4637602,24.1560199 22.3517337,23.7176519 21.4621124,23.0600999 C20.3500859,22.1833639 19.68287,20.8682598 19.68287,19.3339717 C19.68287,18.0188677 20.2388832,16.9229476 21.1285045,15.9366196 C22.0181257,15.0598836 23.3525576,14.5119235 24.5757868,14.5119235 C25.9102186,14.5119235 27.1334479,15.0598836 28.0230691,15.9366196 C28.9126903,16.8133556 29.4687036,18.0188677 29.4687036,19.3339717 C29.4687036,20.6490758 28.9126903,21.8545878 28.0230691,22.7313239 L28.0230691,22.7313239 Z M26.9110425,19.3339717 C26.9110425,17.9092757 25.9102186,16.7037636 24.4645841,16.7037636 C23.0189496,16.7037636 22.0181257,17.9092757 22.0181257,19.3339717 C22.0181257,20.8682598 22.907747,21.9641798 24.4645841,21.9641798 C25.9102186,22.0737719 26.9110425,20.8682598 26.9110425,19.3339717 L26.9110425,19.3339717 Z"></path>
                                        <path d="M39.5881452,23.9368359 L39.032132,19.9915238 C38.9209293,19.4435637 38.9209293,18.7860117 38.8097266,17.9092757 C38.698524,18.6764197 38.4761187,19.2243797 38.364916,19.6627478 L37.1416868,23.9368359 L35.473647,23.9368359 L34.2504178,19.6627478 C34.1392151,19.3339717 33.9168098,18.7860117 33.8056072,17.9092757 C33.8056072,18.6764197 33.6944045,19.4435637 33.5832019,19.9915238 L33.0271886,23.9368359 L30.6919328,23.9368359 L32.1375673,14.8406996 L34.5840257,14.8406996 L36.0296603,19.5531557 C36.1408629,19.8819318 36.2520656,20.2107078 36.3632682,20.7586678 C36.4744709,20.2107078 36.5856735,19.8819318 36.6968762,19.5531557 L38.1425107,14.8406996 L40.5889691,14.8406996 L42.0346036,23.9368359 L39.5881452,23.9368359 L39.5881452,23.9368359 Z"></path>
                                        <polygon points="44.1474541 14.8406996 49.8187895 14.8406996 49.8187895 16.8133556 46.5939125 16.8133556 46.5939125 18.3476437 49.5963842 18.3476437 49.5963842 20.3202998 46.5939125 20.3202998 46.5939125 21.8545878 49.8187895 21.8545878 49.8187895 23.9368359 44.1474541 23.9368359"></polygon>
                                        <path d="M26.5774346,29.0876601 L29.6911089,29.0876601 L32.9159859,38.1837965 L30.4695275,38.1837965 L29.9135142,36.5399165 L26.3550293,36.5399165 L25.9102186,38.1837965 L23.3525576,38.1837965 L26.5774346,29.0876601 L26.5774346,29.0876601 Z M29.357501,34.7864444 L28.4678797,31.8274603 C28.4678797,31.7178683 28.3566771,31.2795002 28.1342717,30.6219482 C27.9118664,31.2795002 27.8006638,31.7178683 27.8006638,31.8274603 L26.9110425,34.7864444 L29.357501,34.7864444 L29.357501,34.7864444 Z"></path>
                                        <path d="M43.2578328,38.1837965 L42.7018196,34.2384844 C42.5906169,33.6905243 42.5906169,33.0329723 42.4794143,32.1562363 C42.3682116,32.9233803 42.1458063,33.4713403 42.0346036,33.9097083 L40.8113744,38.1837965 L39.1433346,38.1837965 L37.9201054,33.9097083 C37.8089027,33.5809323 37.5864974,33.0329723 37.4752948,32.1562363 C37.4752948,32.9233803 37.3640921,33.6905243 37.2528895,34.2384844 L36.6968762,38.1837965 L34.3616204,38.1837965 L35.807255,29.0876601 L38.2537134,29.0876601 L39.6993479,33.8001163 C39.8105505,34.1288924 39.9217532,34.4576684 40.0329558,35.0056284 C40.1441585,34.4576684 40.2553612,34.1288924 40.3665638,33.8001163 L41.8121983,29.0876601 L44.2586567,29.0876601 L45.7042913,38.1837965 L43.2578328,38.1837965 L43.2578328,38.1837965 Z"></path>
                                        <path d="M47.3723311,38.1837965 L47.3723311,29.0876601 L50.0411948,29.0876601 L50.2636001,29.0876601 C51.3756267,29.0876601 52.3764506,29.0876601 53.0436665,29.5260282 C53.8220851,30.0739882 54.3780984,30.9507242 54.3780984,32.1562363 C54.3780984,33.3617483 53.9332877,34.2384844 53.1548692,34.7864444 C52.4876532,35.1152204 51.8204373,35.2248124 50.9308161,35.2248124 L50.3748028,35.2248124 L49.9299922,35.2248124 L49.9299922,38.1837965 L47.3723311,38.1837965 L47.3723311,38.1837965 Z M50.2636001,33.1425643 C51.3756267,33.1425643 51.9316399,32.9233803 51.9316399,32.0466443 C51.9316399,31.1699082 51.3756267,30.9507242 50.3748028,30.9507242 L49.8187895,30.9507242 L49.8187895,33.0329723 L50.2636001,33.0329723 L50.2636001,33.1425643 Z"></path>
                                        <path d="M58.7150019,29.0876601 L58.7150019,32.9233803 L58.7150019,34.0193003 C58.7150019,35.6631804 59.0486099,36.3207324 60.2718391,36.3207324 C61.8286763,36.3207324 61.8286763,35.3344044 61.8286763,33.4713403 L61.8286763,32.9233803 L61.8286763,29.0876601 L64.2751347,29.0876601 L64.2751347,32.9233803 L64.2751347,34.4576684 C64.2751347,37.1974685 63.0519055,38.4029805 60.1606364,38.4029805 C58.6037993,38.4029805 57.4917727,38.0742045 56.8245568,37.3070605 C56.0461382,36.4303244 56.0461382,35.4439964 56.0461382,34.0193003 L56.0461382,32.9233803 L56.0461382,29.0876601 L58.7150019,29.0876601 L58.7150019,29.0876601 Z"></path>
                                    </g>
                                    <path d="M81.6227489,32.4850123 C80.7331276,32.2658283 80.1771144,32.1562363 80.1771144,31.4986842 C80.1771144,31.0603162 80.5107223,30.6219482 81.1779382,30.6219482 C81.1779382,30.6219482 82.0675595,30.5123562 82.6235728,31.3890922 C83.0683834,30.9507242 83.846802,30.2931722 83.846802,30.2931722 C83.846802,30.2931722 83.4019914,28.9780681 81.1779382,28.8684761 L81.1779382,28.8684761 L80.9555329,28.8684761 C79.0650878,28.8684761 77.7306559,30.0739882 77.7306559,31.8274603 C77.7306559,33.2521563 78.5090745,33.9097083 80.1771144,34.3480764 C81.1779382,34.5672604 81.7339515,34.7864444 81.7339515,35.5535884 C81.7339515,36.1015484 81.2891409,36.5399165 80.621925,36.5399165 L80.5107223,36.5399165 L80.5107223,36.5399165 C80.5107223,36.5399165 79.5098984,36.5399165 78.8426825,35.3344044 C78.3978719,35.6631804 77.2858453,36.6495085 77.2858453,36.6495085 C77.2858453,36.6495085 78.1754666,38.4029805 80.3995197,38.5125725 L80.3995197,38.5125725 L80.621925,38.5125725 C82.7347754,38.5125725 84.1804099,37.1974685 84.1804099,35.3344044 C84.1804099,33.4713403 83.2907887,32.9233803 81.6227489,32.4850123 L81.6227489,32.4850123 Z" id="Shape"></path>
                                    <path d="M59.9382311,6.4021152 C59.6046232,7.27885124 58.8262046,7.82681126 57.8253807,7.82681126 C56.9357594,7.82681126 56.2685435,7.38844324 55.9349355,6.84048322 C55.6013276,6.4021152 55.4901249,5.85415518 55.4901249,5.19660315 C55.4901249,4.75823513 55.6013276,4.31986712 55.7125302,3.8814991 C56.0461382,3.00476306 56.8245568,2.45680304 57.8253807,2.45680304 C58.6037993,2.45680304 59.2710152,2.89517106 59.7158258,3.44313108 L61.4950683,1.90884302 C61.3838656,1.79925101 61.3838656,1.79925101 61.272663,1.68965901 C60.3830417,0.81292297 59.0486099,0.264962948 57.8253807,0.264962948 C56.4909488,0.264962948 55.2677196,0.81292297 54.3780984,1.68965901 C54.0444904,1.90884302 53.8220851,2.23761903 53.7108824,2.56639504 C53.2660718,3.33353908 52.9324638,4.10068311 52.9324638,5.08701115 C52.9324638,6.2925232 53.3772745,7.38844324 54.1556931,8.26517928 C54.3780984,8.48436329 54.489301,8.59395529 54.7117063,8.8131393 C55.6013276,9.47069133 56.7133541,9.90905935 57.8253807,9.90905935 C59.1598125,9.90905935 60.3830417,9.36109933 61.272663,8.48436329 C61.4950683,8.26517928 61.8286763,7.93640327 61.9398789,7.60762725 L59.9382311,6.4021152 L59.9382311,6.4021152 Z" id="Shape"></path>
                                    <path d="M31.4703514,34.8960364 C31.1367434,35.7727724 30.3583249,36.3207324 29.357501,36.3207324 C28.4678797,36.3207324 27.8006638,35.8823644 27.4670558,35.3344044 C27.1334479,34.8960364 27.0222452,34.3480764 27.0222452,33.6905243 C27.0222452,33.2521563 27.1334479,32.8137883 27.2446505,32.3754203 C27.5782585,31.4986842 28.3566771,30.9507242 29.357501,30.9507242 C30.1359195,30.9507242 30.8031355,31.3890922 31.2479461,31.9370523 L33.0271886,30.4027642 C32.9159859,30.2931722 32.9159859,30.2931722 32.8047833,30.1835802 C31.915162,29.3068442 30.5807302,28.7588841 29.357501,28.7588841 C28.0230691,28.7588841 26.7998399,29.3068442 25.9102186,30.1835802 C25.5766107,30.4027642 25.3542054,30.7315402 25.2430027,31.0603162 C24.7981921,31.8274603 24.4645841,32.5946043 24.4645841,33.5809323 C24.4645841,34.7864444 24.9093948,35.8823644 25.6878133,36.7591005 C25.9102186,36.9782845 26.0214213,37.0878765 26.2438266,37.3070605 C27.1334479,37.9646125 28.2454744,38.4029805 29.357501,38.4029805 C30.6919328,38.4029805 31.915162,37.8550205 32.8047833,36.9782845 C33.0271886,36.7591005 33.3607965,36.4303244 33.4719992,36.1015484 L31.4703514,34.8960364 L31.4703514,34.8960364 Z" id="Shape"></path>
                                    <path d="M9.56342834,18.7860117 L8.11779382,18.7860117 L7.11696993,18.7860117 L4.89291683,18.7860117 L4.89291683,20.5394838 L7.00576727,20.5394838 C6.67215931,21.4162198 5.89374072,22.0737719 4.78171417,22.0737719 C3.89209293,22.0737719 3.224877,21.6354038 2.89126903,21.0874438 C2.55766107,20.6490758 2.44645841,20.1011158 2.44645841,19.4435637 C2.44645841,19.2243797 2.44645841,19.0051957 2.55766107,18.7860117 C2.78006638,17.5804997 3.66968762,16.8133556 4.89291683,16.8133556 C5.67133541,16.8133556 6.33855134,17.2517237 6.78336196,17.7996837 L8.56260445,16.2653956 C8.45140179,16.1558036 8.45140179,16.1558036 8.34019914,16.0462116 C7.45057789,15.1694756 6.11614603,14.6215155 4.89291683,14.6215155 C3.55848496,14.6215155 2.33525576,15.1694756 1.44563452,16.0462116 C0.667215931,16.8133556 0.22240531,17.6900917 0,18.7860117 L0,19.4435637 C0,20.6490758 0.444810621,21.7449958 1.22322921,22.6217319 C1.44563452,22.8409159 1.55683717,22.9505079 1.77924248,23.1696919 C2.66886372,23.8272439 3.78089027,24.2656119 4.89291683,24.2656119 C6.22734869,24.2656119 7.45057789,23.7176519 8.34019914,22.8409159 C9.22982038,21.9641798 9.78583365,20.7586678 9.78583365,19.4435637 C9.56342834,19.1147877 9.56342834,19.0051957 9.56342834,18.7860117 L9.56342834,18.7860117 Z" id="Shape"></path>
                                </g>
                            </g>
                            <g id="Layer_3">
                                <g id="Group">
                                    <path d="M5.04967579,36.5399165 L8.05214747,35.4439964 C7.16252623,33.1425643 6.71771561,30.6219482 6.71771561,28.1013321 C6.71771561,22.8409159 8.60816075,18.0188677 11.8330377,14.1831475 L9.38657934,12.1008994 C5.71689172,16.3749876 3.49283861,21.9641798 3.49283861,27.9917401 C3.49283861,31.0603162 4.04885189,33.9097083 5.04967579,36.5399165 L5.04967579,36.5399165 Z" id="Shape" fill="#B0036A"></path>
                                    <path d="M12.5002537,47.0607489 L14.6131041,44.6497248 C11.7218351,42.2387007 9.38657934,39.0605326 8.05214747,35.4439964 L5.04967579,36.5399165 C6.60651296,40.7044126 9.16417403,44.2113568 12.5002537,47.0607489 L12.5002537,47.0607489 Z" id="Shape" fill="#0071B9"></path>
                                    <path d="M28.6246387,3.22394707 C20.9516555,3.22394707 13.9458882,6.62129921 9.38657934,12.1008994 L11.8330377,14.1831475 C15.8363333,9.47069133 21.8412767,6.4021152 28.6246387,6.4021152 C35.4080006,6.4021152 41.412944,9.36109933 45.4162396,14.0735555 L47.862698,11.9913074 C43.3033892,6.73089122 36.4088245,3.22394707 28.6246387,3.22394707 L28.6246387,3.22394707 Z" id="Shape" fill="#EF7918"></path>
                                    <path d="M44.8602263,47.0607489 L42.7473759,44.6497248 C38.9664856,47.8278929 33.9623661,49.690957 28.6246387,49.690957 C23.2869112,49.690957 18.3939944,47.8278929 14.5019015,44.6497248 L12.389051,47.0607489 C16.7259546,50.677285 22.39729,52.8691251 28.513436,52.8691251 C34.6295821,52.8691251 40.5233228,50.677285 44.8602263,47.0607489 L44.8602263,47.0607489 Z" id="Shape" fill="#0099D4"></path>
                                    <path d="M50.4203591,40.4852286 L47.6402927,38.8413485 C46.3058608,41.0331886 44.637821,43.0058447 42.7473759,44.5401328 L44.8602263,46.9511569 C47.0842794,45.1976848 48.9747246,42.8962527 50.4203591,40.4852286 L50.4203591,40.4852286 Z" id="Shape" fill="#00B0AD"></path>
                                    <path d="M50.3091564,24.2656119 L47.1954821,24.813572 C47.4178874,25.909492 47.52909,26.8958201 47.52909,27.9917401 C47.52909,31.3890922 46.6394688,34.5672604 44.971429,37.1974685 L47.6402927,38.7317565 C49.5307378,35.5535884 50.5315617,31.8274603 50.5315617,27.8821481 C50.6427644,26.786228 50.5315617,25.471124 50.3091564,24.2656119 L50.3091564,24.2656119 Z" id="Shape" fill="#CAD200"></path>
                                    <path d="M53.4228308,23.7176519 L50.1979538,24.2656119 C50.4203591,25.471124 50.5315617,26.786228 50.5315617,27.9917401 C50.5315617,31.9370523 49.4195352,35.6631804 47.6402927,38.8413485 L50.4203591,40.4852286 C52.5332095,36.8686925 53.7564387,32.5946043 53.7564387,28.1013321 C53.8676414,26.567044 53.7564387,25.142348 53.4228308,23.7176519 L53.4228308,23.7176519 Z" id="Shape" fill="#27A536"></path>
                                    <path d="M1.93600144,18.4572357 L4.93847313,19.5531557 C6.4953103,15.3886596 9.05297137,11.7721234 12.389051,9.03232331 L10.3874032,6.62129921 C6.60651296,9.68987534 3.71524392,13.8543715 1.93600144,18.4572357 L1.93600144,18.4572357 Z" id="Shape" fill="#E6007C"></path>
                                    <path d="M0.712772235,32.9233803 L3.93764923,32.3754203 C3.71524392,30.9507242 3.60404127,29.5260282 3.60404127,28.1013321 C3.60404127,25.142348 4.16005454,22.2929559 5.16087844,19.6627478 L2.15840675,18.5668277 C1.0463802,21.5258118 0.490366925,24.813572 0.490366925,28.1013321 C0.267961614,29.7452122 0.379164269,31.2795002 0.712772235,32.9233803 L0.712772235,32.9233803 Z" id="Shape" fill="#86368C"></path>
                                    <path d="M28.6246387,56.0472933 L28.6246387,56.0472933 L28.6246387,52.8691251 L28.6246387,52.8691251 C16.281144,52.8691251 5.93929703,43.9921728 3.82644658,32.3754203 L0.60156958,32.9233803 C3.04802799,46.0744208 14.7243068,56.0472933 28.6246387,56.0472933 L28.6246387,56.0472933 Z" id="Shape" fill="#2A2B7C"></path>
                                    <path d="M28.6246387,0.0457789386 C21.7300741,0.0457789386 15.2803201,2.56639504 10.3874032,6.62129921 L12.5002537,9.03232331 C16.8371572,5.41578716 22.5084926,3.22394707 28.6246387,3.22394707 C36.2976219,3.22394707 43.3033892,6.62129921 47.862698,12.1008994 L50.3091564,10.0186514 C45.1938343,3.9910911 37.4096484,0.0457789386 28.6246387,0.0457789386 L28.6246387,0.0457789386 Z" id="Shape" fill="#E51935"></path>
                                    <path d="M28.6246387,52.8691251 L28.6246387,56.0472933 C39.0776883,56.0472933 48.3075086,50.458101 53.2004255,42.0195167 L50.4203591,40.4852286 C46.0834555,47.8278929 37.9656617,52.8691251 28.6246387,52.8691251 L28.6246387,52.8691251 Z" id="Shape" fill="#007961"></path>
                                </g>
                            </g>
                        </g>
                    </g>
                </g>
            </g>
        </g>
    </g>
</svg>