<svg width="538px" height="150px" viewBox="0 0 538 150" version="1.1" xmlns="http://www.w3.org/2000/svg" xmlns:xlink="http://www.w3.org/1999/xlink">
    <!-- Generator: Sketch 50.2 (55047) - http://www.bohemiancoding.com/sketch -->
    <desc>Created with Sketch.</desc>
    <defs>
        <polygon id="path-1" points="0.883883108 0.8028137 188.804347 0.8028137 188.804347 9.58510305 0.883883108 9.58510305"></polygon>
        <polygon id="path-3" points="0.41303041 0.294824712 12.4184936 0.294824712 12.4184936 17.7301652 0.41303041 17.7301652"></polygon>
        <polygon id="path-5" points="0.108059709 0.295711255 13.2584436 0.295711255 13.2584436 17.7308547 0.108059709 17.7308547"></polygon>
    </defs>
    <g id="Symbols" stroke="none" stroke-width="1" fill="none" fill-rule="evenodd">
        <g id="Header/---L-Copy-1" transform="translate(-80.000000, 0.000000)">
            <g id="acsc-logo" transform="translate(80.000000, 0.000000)">
                <rect id="bg" fill="#FFFFFF" x="0" y="0" width="538" height="150"></rect>
                <g id="logo" transform="translate(27.000000, 27.000000)">
                    <path d="M5.53104162,26.5317615 C7.19577187,26.5317615 8.13353708,27.4882426 8.74623661,29.4790235 L10.3351182,29.0012755 C9.72241867,26.5317615 8.03798747,24.924164 5.53104162,24.924164 C3.92344413,24.924164 2.60249545,25.5181476 1.55046474,26.6854289 C0.516164882,27.8527101 0,29.5558572 0,31.7761543 C0,33.9964513 0.516164882,35.6995984 1.55046474,36.8668797 C1.85385937,37.204751 2.18089513,37.4913998 2.53058699,37.7327364 C2.3877551,37.8332113 2.24984845,37.9415665 2.12376238,38.0646974 C1.39679733,38.7542307 1.03232976,39.653579 1.03232976,40.7430415 C1.11014851,42.3526091 1.66473025,43.1938397 2.73744696,43.7494064 C3.50184381,44.1316049 3.96087593,44.2655713 4.89864114,44.4950874 C5.87580824,44.7246035 6.21958982,44.838869 6.81357345,45.088086 C7.11992322,45.2033365 7.33072338,45.317602 7.46370479,45.4525535 C7.71390685,45.7007855 7.94342291,46.1223858 7.94342291,46.6769676 C7.94342291,48.2648641 6.8707062,49.1080648 5.18726005,49.1080648 C3.42599515,49.1080648 2.27742978,48.1131668 1.7612649,46.1223858 L0.192084259,46.7350854 C0.708249141,49.3178799 2.60249545,50.7156623 5.18726005,50.7156623 C7.88432006,50.7156623 9.62686906,49.2804481 9.62686906,46.4464665 C9.56973631,45.0496691 9.07130228,44.2842872 8.01927157,43.7494064 C7.31102243,43.366223 6.7938725,43.2125556 5.81769044,42.9643236 C4.72625783,42.6766897 3.94216003,42.3900409 3.44471105,42.1024071 C2.96696302,41.8157582 2.71774601,41.3370252 2.71774601,40.6859088 C2.71774601,39.3856461 3.65551121,38.6192791 5.12914225,38.6192791 C6.35454132,38.6192791 7.25388967,39.2891114 7.84688826,40.628776 L9.32150434,39.8830951 C9.04372095,39.1443095 8.59749444,38.4872828 7.99464538,37.9868787 C9.15109113,37.2983305 9.95291978,36.0926323 10.3351182,34.551033 L8.74623661,34.0723 C8.13353708,36.0630809 7.19577187,37.0205471 5.53104162,37.0205471 C3.15806223,37.0205471 1.7405789,35.3164149 1.7405789,31.7761543 C1.7405789,28.2349086 3.15806223,26.5317615 5.53104162,26.5317615" id="Fill-1" fill="#1D1D1B"></path>
                    <path d="M35.244802,35.4123586 L29.6359416,25.0772404 L27.798828,25.0772404 L27.798828,38.4738861 L31.532158,38.4768413 L31.532158,49.1074737 L28.2972621,49.1074737 L28.2972621,50.5633739 L36.4505001,50.5633739 L36.4505001,49.1074737 L33.2156042,49.1074737 L33.2156042,38.4768413 L36.9282481,38.4768413 L36.9282481,25.0772404 L35.244802,25.0772404 L35.244802,35.4123586 Z M29.4842443,36.8692438 L29.4842443,28.1387679 L34.2203526,36.8692438 L29.4842443,36.8692438 Z" id="Fill-3" fill="#1D1D1B"></path>
                    <path d="M48.8431855,35.4123586 L43.2343251,25.0772404 L41.3972116,25.0772404 L41.3972116,50.5633739 L50.4694989,50.5633739 L50.4694989,48.9557764 L43.0826278,48.9557764 L43.0826278,44.2275485 L49.3219186,44.2275485 L49.3219186,42.619951 L43.0826278,42.619951 L43.0826278,38.4768413 L50.5266316,38.4768413 L50.5266316,25.0772404 L48.8431855,25.0772404 L48.8431855,35.4123586 Z M43.0826278,36.8692438 L43.0826278,28.1387679 L47.8187361,36.8692438 L43.0826278,36.8692438 Z" id="Fill-5" fill="#1D1D1B"></path>
                    <path d="M64.1394954,36.8667812 L56.6905663,36.8667812 L56.6905663,32.1385532 L62.9337972,32.1385532 L62.9337972,30.5309557 L56.6905663,30.5309557 L56.6905663,26.6853304 L63.8902783,26.6853304 L63.8902783,25.0767478 L54.9824939,25.0767478 L54.9824939,50.5618963 L56.6935214,50.5618963 L56.6935214,40.2267781 L62.3023818,50.5618963 L64.1394954,50.5618963 L64.1394954,36.8667812 Z M57.5583931,38.4743787 L62.4560492,38.4743787 L62.4560492,47.5003688 L57.5583931,38.4743787 Z" id="Fill-7" fill="#1D1D1B"></path>
                    <path d="M73.5233532,26.5317615 C75.1880835,26.5317615 76.1258487,27.4882426 76.7385482,29.4790235 L78.3274298,29.0012755 C77.7147302,26.5317615 76.0302991,24.924164 73.5233532,24.924164 C71.9157557,24.924164 70.594807,25.5181476 69.5427763,26.6854289 C68.5084765,27.8527101 67.9923116,29.5558572 67.9923116,31.7761543 C67.9923116,33.9964513 68.5084765,35.6995984 69.5427763,36.8668797 C69.8836027,37.2451379 70.2539806,37.5633082 70.6519398,37.8194206 C70.2539806,38.076518 69.8836027,38.3937033 69.5427763,38.7729466 C68.5084765,39.9402278 67.9923116,41.6423899 67.9923116,43.863672 C67.9923116,46.083969 68.5084765,47.7871161 69.5427763,48.9543974 C70.594807,50.1216786 71.9157557,50.7156623 73.5233532,50.7156623 C76.0302991,50.7156623 77.7147302,49.1080648 78.3274298,46.6385507 L76.7385482,46.1598176 C76.1258487,48.1505986 75.1880835,49.1080648 73.5233532,49.1080648 C71.1503738,49.1080648 69.7328905,47.4049177 69.7328905,43.863672 C69.7328905,40.3834992 71.1050616,38.6823222 73.4061326,38.6251894 C73.4445494,38.6251894 73.4839513,38.6281446 73.5233532,38.6281446 C73.5598,38.6281446 73.5932916,38.6232193 73.6287533,38.6232193 C75.2274854,38.6645913 76.1386543,39.6200874 76.7385482,41.5665412 L78.3274298,41.0887932 C77.9728127,39.6634295 77.2606234,38.5266847 76.2401142,37.8194206 C77.2606234,37.1121565 77.9728127,35.9754117 78.3274298,34.551033 L76.7385482,34.0723 C76.1386543,36.0197388 75.2274854,36.9752349 73.6287533,37.0156218 C73.5932916,37.0156218 73.5598,37.0116817 73.5233532,37.0116817 C73.4839513,37.0116817 73.4445494,37.0146368 73.4061326,37.0146368 C71.1050616,36.957504 69.7328905,35.256327 69.7328905,31.7761543 C69.7328905,28.2349086 71.1503738,26.5317615 73.5233532,26.5317615" id="Fill-9" fill="#1D1D1B"></path>
                    <polygon id="Fill-11" fill="#1D1D1B" points="81.7435745 26.6849364 85.9152506 26.6849364 85.9152506 36.8693423 82.5670742 36.8693423 82.5670742 50.5624874 91.256178 50.5624874 91.256178 48.9548899 84.2505203 48.9548899 84.2505203 44.227647 90.1085977 44.227647 90.1085977 42.6190645 84.2505203 42.6190645 84.2505203 38.4769398 91.0650788 38.4769398 91.0650788 36.8693423 87.6006668 36.8693423 87.6006668 26.6849364 91.7723429 26.6849364 91.7723429 25.0773389 81.7435745 25.0773389"></polygon>
                    <polygon id="Fill-13" fill="#1D1D1B" points="96.2799202 26.5317615 99.5148161 26.5317615 99.5148161 37.0205471 96.2799202 37.0205471 96.2799202 38.4744772 104.434143 38.4744772 104.434143 37.0205471 101.199247 37.0205471 101.199247 26.5317615 104.434143 26.5317615 104.434143 25.0778314 96.2799202 25.0778314"></polygon>
                    <polygon id="Fill-15" fill="#1D1D1B" points="116.8353 35.4123586 111.22841 25.0772404 109.391296 25.0772404 109.391296 38.4738861 111.074742 38.4738861 111.074742 28.1387679 116.681633 38.4738861 118.518746 38.4738861 118.518746 25.0772404 116.8353 25.0772404"></polygon>
                    <path d="M127.917183,33.3261265 L130.921578,33.3261265 C130.749194,35.7956405 129.73558,37.0200546 127.917183,37.0200546 C125.544203,37.0200546 124.12672,35.3169075 124.12672,31.7756617 C124.12672,28.2354011 125.544203,26.5312689 127.917183,26.5312689 C129.581913,26.5312689 130.519678,27.4877501 131.132378,29.478531 L132.721259,29.000783 C132.10856,26.4928521 130.44383,24.9236714 127.917183,24.9236714 C126.309585,24.9236714 124.988637,25.5176551 123.936606,26.6849364 C122.902306,27.8522176 122.386141,29.5553647 122.386141,31.7756617 C122.386141,33.9772429 122.902306,35.68039 123.936606,36.8663871 C124.969921,38.0346535 126.252453,38.6276521 127.801932,38.6276521 C129.276548,38.6276521 130.577796,37.9578198 131.170795,36.676273 L131.267329,38.4739846 L132.664127,38.4739846 L132.664127,31.718529 L127.917183,31.718529 L127.917183,33.3261265 Z" id="Fill-17" fill="#1D1D1B"></path>
                    <path d="M18.8289857,38.62647 C18.8447464,38.62647 18.8595221,38.627455 18.8762679,38.627455 C18.9412811,38.627455 19.0072792,38.6254849 19.0713073,38.6225298 C20.6798899,38.6589766 21.594999,39.6134876 22.195878,41.5668367 L23.7847595,41.0881037 C23.4252172,39.6390988 22.6933269,38.4885633 21.6452364,37.7842544 C21.9978834,37.5340523 22.3249192,37.2277026 22.6283138,36.8661901 C23.6035108,35.680193 24.0822439,33.9780309 24.0822439,31.7764498 C24.0822439,29.5748687 23.6035108,27.8717216 22.6283138,26.7044403 C21.6511467,25.5174581 20.4070317,24.9244595 18.8762679,24.9244595 C17.3455041,24.9244595 16.1004041,25.5174581 15.1252071,26.7044403 C14.1490251,27.8717216 13.671277,29.5748687 13.671277,31.7764498 C13.671277,33.9780309 14.1490251,35.680193 15.1252071,36.8661901 C15.4354971,37.236568 15.7713983,37.5498131 16.1358658,37.8029703 C15.7280562,38.0630228 15.3488129,38.3871035 15.0010911,38.772257 C13.9667913,39.9405233 13.4496413,41.6426854 13.4496413,43.8629824 C13.4496413,46.0842645 13.9667913,47.7864266 15.0010911,48.9537078 C16.0521368,50.1209891 17.3730855,50.7149727 18.980683,50.7149727 C21.4886139,50.7149727 23.17206,49.1073752 23.7847595,46.6388462 L22.195878,46.1601132 C21.5831784,48.1508941 20.6454132,49.1073752 18.980683,49.1073752 C16.6086886,49.1073752 15.1912053,47.4052132 15.1912053,43.8629824 C15.1912053,40.4005405 16.5486007,38.6993635 18.8289857,38.62647 M16.3496211,35.7560416 C15.7191907,34.8960952 15.4118559,33.5751465 15.4118559,31.7764498 C15.4118559,29.976768 15.7191907,28.6558194 16.3496211,27.8145888 C16.9810366,26.9526723 17.8242372,26.532057 18.8762679,26.532057 C19.9292837,26.532057 20.7714993,26.9526723 21.4019297,27.8145888 C22.0343302,28.6558194 22.3396949,29.976768 22.3396949,31.7764498 C22.3396949,33.5751465 22.0343302,34.8960952 21.4019297,35.7560416 C20.7990806,36.5627955 20.0002071,36.9775005 19.0122045,37.0129622 C19.001369,37.0129622 18.9915185,37.0119772 18.980683,37.0119772 C18.91961,37.0119772 18.8595221,37.0139473 18.7994342,37.0159174 C17.7828652,36.9952314 16.9652758,36.5785563 16.3496211,35.7560416" id="Fill-19" fill="#1D1D1B"></path>
                    <path d="M154.608522,72.1656623 L156.828819,72.1656623 L158.366478,67.6019373 L165.05495,67.6019373 L166.591625,72.1656623 L168.812907,72.1656623 L162.736149,55.0809987 L160.68528,55.0809987 L154.608522,72.1656623 Z M164.346701,65.5520534 L159.074727,65.5520534 L161.710714,57.8637578 L164.346701,65.5520534 Z" id="Fill-21" fill="#1D1D1B"></path>
                    <path d="M120.74121,72.1656623 L125.060644,72.1656623 C127.379445,72.1656623 129.209664,71.434757 130.576909,69.9936326 C131.968782,68.5534931 132.651419,66.4297308 132.651419,63.6243155 C132.651419,60.8169302 131.968782,58.6941529 130.576909,57.2530284 C129.209664,55.813874 127.379445,55.0809987 125.060644,55.0809987 L120.74121,55.0809987 L120.74121,72.1656623 Z M124.841963,57.1318675 C128.428521,57.1318675 130.356259,59.0349793 130.356259,63.6243155 C130.356259,68.2116817 128.428521,70.1157784 124.841963,70.1157784 L122.888614,70.1157784 L122.888614,57.1318675 L124.841963,57.1318675 Z" id="Fill-23" fill="#1D1D1B"></path>
                    <path d="M201.28874,66.5524677 C200.507597,69.090935 199.312735,70.3104238 197.187987,70.3104238 C194.161922,70.3104238 192.35633,68.1383941 192.35633,63.6239215 C192.35633,59.1084638 194.161922,56.9374192 197.187987,56.9374192 C199.312735,56.9374192 200.507597,58.156908 201.28874,60.6953753 L203.314983,60.0856309 C202.53384,56.9374192 200.386437,54.8865503 197.187987,54.8865503 C195.139089,54.8865503 193.455643,55.6430668 192.112038,57.1314735 C190.794044,58.6208653 190.136033,60.792895 190.136033,63.6239215 C190.136033,66.454948 190.794044,68.6269777 192.112038,70.1163695 C193.455643,71.6047762 195.139089,72.3612927 197.187987,72.3612927 C200.386437,72.3612927 202.53384,70.3104238 203.314983,67.1622121 L201.28874,66.5524677 Z" id="Fill-25" fill="#1D1D1B"></path>
                    <path d="M225.78431,72.1656623 L230.103743,72.1656623 C232.422545,72.1656623 234.252763,71.434757 235.620009,69.9936326 C237.011881,68.5534931 237.694519,66.4297308 237.694519,63.6243155 C237.694519,60.8169302 237.011881,58.6941529 235.620009,57.2530284 C234.252763,55.813874 232.422545,55.0809987 230.103743,55.0809987 L225.78431,55.0809987 L225.78431,72.1656623 Z M229.885063,57.1318675 C233.471621,57.1318675 235.399358,59.0349793 235.399358,63.6243155 C235.399358,68.2116817 233.471621,70.1157784 229.885063,70.1157784 L227.931713,70.1157784 L227.931713,57.1318675 L229.885063,57.1318675 Z" id="Fill-27" fill="#1D1D1B"></path>
                    <polygon id="Fill-29" fill="#1D1D1B" points="144.203367 69.1150687 139.419976 55.0820822 137.199679 55.0820822 143.177932 72.1647757 145.228801 72.1647757 151.207054 55.0820822 148.986757 55.0820822"></polygon>
                    <polygon id="Fill-31" fill="#1D1D1B" points="208.692062 72.1656623 219.771876 72.1656623 219.771876 70.1157784 210.839465 70.1157784 210.839465 64.0882729 218.30711 64.0882729 218.30711 62.037404 210.839465 62.037404 210.839465 57.1318675 219.528569 57.1318675 219.528569 55.0809987 208.692062 55.0809987"></polygon>
                    <polygon id="Fill-33" fill="#1D1D1B" points="182.890811 68.260737 175.740352 55.0817867 173.396924 55.0817867 173.396924 72.1654652 175.544327 72.1654652 175.544327 58.986515 182.695772 72.1654652 185.038215 72.1654652 185.038215 55.0817867 182.890811 55.0817867"></polygon>
                    <path d="M102.086972,72.1656623 L104.307269,72.1656623 L105.844928,67.6019373 L112.533401,67.6019373 L114.070075,72.1656623 L116.291357,72.1656623 L110.214599,55.0809987 L108.16373,55.0809987 L102.086972,72.1656623 Z M111.825152,65.5520534 L106.553177,65.5520534 L109.189164,57.8637578 L111.825152,65.5520534 Z" id="Fill-35" fill="#1D1D1B"></path>
                    <g id="Group-39" transform="translate(101.459891, 0.182628)">
                        <mask id="mask-2" fill="white">
                            <use xlink:href="#path-1"></use>
                        </mask>
                        <g id="Clip-38"></g>
                        <path d="M8.34266266,8.23657305 L6.36764245,1.80913821 L5.64363255,1.80913821 L3.66861235,8.23657305 L1.71920337,0.899939382 L0.883883108,0.899939382 L3.23913164,9.48758335 L4.06066124,9.48758335 L5.99923469,3.05916347 L7.95061376,9.48758335 L8.77312841,9.48758335 L11.1273919,0.899939382 L10.2930567,0.899939382 L8.34266266,8.23657305 Z M13.9367473,9.48758335 L18.9043418,9.48758335 L18.9043418,8.72614164 L14.7454713,8.72614164 L14.7454713,5.29226611 L18.0453804,5.29226611 L18.0453804,4.53082441 L14.7454713,4.53082441 L14.7454713,1.66138109 L18.7812109,1.66138109 L18.7812109,0.899939382 L13.9367473,0.899939382 L13.9367473,9.48758335 Z M21.7747702,9.48758335 L26.6074131,9.48758335 L26.6074131,8.72614164 L22.5844792,8.72614164 L22.5844792,0.899939382 L21.7747702,0.899939382 L21.7747702,9.48758335 Z M29.2335497,9.48758335 L34.0671777,9.48758335 L34.0671777,8.72614164 L30.0442438,8.72614164 L30.0442438,0.899939382 L29.2335497,0.899939382 L29.2335497,9.48758335 Z M42.1997297,6.89986361 C41.8697388,8.12723277 41.0344186,8.82464639 39.7587821,8.82464639 C38.8751945,8.82464639 38.1639902,8.50549101 37.6241842,7.86816529 C37.0843782,7.22985452 36.8154602,6.33444635 36.8154602,5.19376137 C36.8154602,4.05307638 37.0843782,3.15766822 37.6241842,2.51935745 C38.1639902,1.88203172 38.8751945,1.56287634 39.7587821,1.56287634 C41.0344186,1.56287634 41.8697388,2.26226005 42.1997297,3.48962922 L42.9976182,3.25518792 C42.5553319,1.73525965 41.3782001,0.802419681 39.7587821,0.802419681 C38.7766897,0.802419681 37.870446,1.18264801 37.1454511,1.88203172 C36.4214412,2.56959487 35.9683194,3.75854718 35.9683194,5.19376137 C35.9683194,6.60533441 36.3367271,7.68494645 37.0725576,8.44540311 C37.8202086,9.20487472 38.7156168,9.58510305 39.7587821,9.58510305 C41.3782001,9.58510305 42.5553319,8.65324813 42.9976182,7.13233482 L42.1997297,6.89986361 Z M46.5802359,2.01698323 C45.856226,2.81388664 45.4868332,3.88167812 45.4868332,5.19376137 C45.4868332,6.50781471 45.856226,7.57363609 46.5802359,8.38433017 C47.3150813,9.18123358 48.2104895,9.58510305 49.2536548,9.58510305 C50.2968201,9.58510305 51.1922282,9.18123358 51.9162381,8.38433017 C52.6520686,7.57363609 53.0194913,6.50781471 53.0194913,5.19376137 C53.0194913,3.88167812 52.6520686,2.81388664 51.9162381,2.01698323 C51.1922282,1.2072742 50.2968201,0.802419681 49.2536548,0.802419681 C48.2104895,0.802419681 47.3150813,1.2072742 46.5802359,2.01698323 Z M51.3380153,2.51935745 C51.8916119,3.14584765 52.1733355,4.04125581 52.1733355,5.19376137 C52.1733355,6.34823702 51.8916119,7.24364518 51.3380153,7.8809709 C50.7873737,8.50549101 50.0998106,8.82464639 49.2536548,8.82464639 C48.4065139,8.82464639 47.7071302,8.50549101 47.1564887,7.8809709 C46.602892,7.24364518 46.333974,6.34823702 46.333974,5.19376137 C46.333974,4.04125581 46.602892,3.14584765 47.1564887,2.51935745 C47.7071302,1.88203172 48.4065139,1.56287634 49.2536548,1.56287634 C50.0998106,1.56287634 50.7873737,1.88203172 51.3380153,2.51935745 Z M56.062303,9.48758335 L56.871027,9.48758335 L56.871027,2.47109012 L59.3622121,8.70348555 L59.8773919,8.70348555 L62.3666069,2.47109012 L62.3666069,9.48758335 L63.177301,9.48758335 L63.177301,0.899939382 L62.1705824,0.899939382 L59.6193095,7.36579107 L57.0680365,0.899939382 L56.062303,0.899939382 L56.062303,9.48758335 Z M66.4397782,9.48758335 L71.4083577,9.48758335 L71.4083577,8.72614164 L67.2494873,8.72614164 L67.2494873,5.29226611 L70.5493963,5.29226611 L70.5493963,4.53082441 L67.2494873,4.53082441 L67.2494873,1.66138109 L71.2852268,1.66138109 L71.2852268,0.899939382 L66.4397782,0.899939382 L66.4397782,9.48758335 Z M85.5644751,9.48758335 L85.5644751,5.15731461 L82.7669403,5.15731461 L82.7669403,5.91777127 L84.7537811,5.91777127 C84.7419605,7.81989796 83.8337467,8.82464639 82.2025081,8.82464639 C81.3327112,8.82464639 80.6195368,8.50549101 80.0797308,7.86816529 C79.5537154,7.22985452 79.2828273,6.33444635 79.2828273,5.19376137 C79.2828273,4.05307638 79.5537154,3.15766822 80.0797308,2.51935745 C80.6195368,1.88203172 81.3327112,1.56287634 82.2025081,1.56287634 C83.4416978,1.56287634 84.3252854,2.26226005 84.7173343,3.52607597 L85.5142377,3.30542534 C85.0857421,1.74708022 83.8839841,0.802419681 82.2025081,0.802419681 C81.1603278,0.802419681 80.2777253,1.18264801 79.5409098,1.95492524 C78.8050793,2.72917256 78.4376566,3.8087846 78.4376566,5.19376137 C78.4376566,6.58070822 78.8050793,7.66032027 79.5409098,8.43259749 C80.2777253,9.20487472 81.1603278,9.58510305 82.2025081,9.58510305 C83.3323575,9.58510305 84.3006592,9.04529703 84.7537811,8.16367953 L84.8522858,9.48758335 L85.5644751,9.48758335 Z M88.6555542,9.48758335 L93.6231486,9.48758335 L93.6231486,8.72614164 L89.4642781,8.72614164 L89.4642781,5.29226611 L92.7641872,5.29226611 L92.7641872,4.53082441 L89.4642781,4.53082441 L89.4642781,1.66138109 L93.5000177,1.66138109 L93.5000177,0.899939382 L88.6555542,0.899939382 L88.6555542,9.48758335 Z M101.708418,8.20012629 L97.4510431,0.899939382 L96.494562,0.899939382 L96.494562,9.48758335 L97.303286,9.48758335 L97.303286,2.21399273 L101.560661,9.48758335 L102.517142,9.48758335 L102.517142,0.899939382 L101.708418,0.899939382 L101.708418,8.20012629 Z M106.651387,2.01698323 C105.927377,2.81388664 105.559954,3.88167812 105.559954,5.19376137 C105.559954,6.50781471 105.927377,7.57363609 106.651387,8.38433017 C107.387217,9.18123358 108.282625,9.58510305 109.324806,9.58510305 C110.367971,9.58510305 111.263379,9.18123358 111.987389,8.38433017 C112.723219,7.57363609 113.091627,6.50781471 113.091627,5.19376137 C113.091627,3.88167812 112.723219,2.81388664 111.987389,2.01698323 C111.263379,1.2072742 110.367971,0.802419681 109.324806,0.802419681 C108.282625,0.802419681 107.387217,1.2072742 106.651387,2.01698323 Z M111.411136,2.51935745 C111.962763,3.14584765 112.245471,4.04125581 112.245471,5.19376137 C112.245471,6.34823702 111.962763,7.24364518 111.411136,7.8809709 C110.858524,8.50549101 110.171946,8.82464639 109.324806,8.82464639 C108.47865,8.82464639 107.779266,8.50549101 107.227639,7.8809709 C106.676013,7.24364518 106.405125,6.34823702 106.405125,5.19376137 C106.405125,4.04125581 106.676013,3.14584765 107.227639,2.51935745 C107.779266,1.88203172 108.47865,1.56287634 109.324806,1.56287634 C110.171946,1.56287634 110.858524,1.88203172 111.411136,2.51935745 Z M116.133454,9.48758335 L116.944148,9.48758335 L116.944148,2.47109012 L119.433363,8.70348555 L119.948543,8.70348555 L122.439728,2.47109012 L122.439728,9.48758335 L123.248452,9.48758335 L123.248452,0.899939382 L122.241733,0.899939382 L119.69046,7.36579107 L117.140172,0.899939382 L116.133454,0.899939382 L116.133454,9.48758335 Z M126.511914,9.48758335 L131.480494,9.48758335 L131.480494,8.72614164 L127.321623,8.72614164 L127.321623,5.29226611 L130.621532,5.29226611 L130.621532,4.53082441 L127.321623,4.53082441 L127.321623,1.66138109 L131.357363,1.66138109 L131.357363,0.899939382 L126.511914,0.899939382 L126.511914,9.48758335 Z M144.740218,6.89986361 C144.410227,8.12723277 143.574907,8.82464639 142.29927,8.82464639 C141.415682,8.82464639 140.704478,8.50549101 140.164672,7.86816529 C139.624866,7.22985452 139.355948,6.33444635 139.355948,5.19376137 C139.355948,4.05307638 139.624866,3.15766822 140.164672,2.51935745 C140.704478,1.88203172 141.415682,1.56287634 142.29927,1.56287634 C143.574907,1.56287634 144.410227,2.26226005 144.740218,3.48962922 L145.538106,3.25518792 C145.09582,1.73525965 143.918688,0.802419681 142.29927,0.802419681 C141.317178,0.802419681 140.410934,1.18264801 139.686924,1.88203172 C138.961929,2.56959487 138.508807,3.75854718 138.508807,5.19376137 C138.508807,6.60533441 138.877215,7.68494645 139.613046,8.44540311 C140.360697,9.20487472 141.256105,9.58510305 142.29927,9.58510305 C143.918688,9.58510305 145.09582,8.65324813 145.538106,7.13233482 L144.740218,6.89986361 Z M147.378175,9.48758335 L148.211525,9.48758335 L149.070486,7.04762073 L152.603852,7.04762073 L153.461828,9.48758335 L154.296163,9.48758335 L151.193264,0.899939382 L150.48206,0.899939382 L147.378175,9.48758335 Z M152.345769,6.28617903 L149.327584,6.28617903 L150.837662,2.00516266 L152.345769,6.28617903 Z M156.714455,9.48758335 L157.523179,9.48758335 L157.523179,2.47109012 L160.012394,8.70348555 L160.528559,8.70348555 L163.018759,2.47109012 L163.018759,9.48758335 L163.827483,9.48758335 L163.827483,0.899939382 L162.822734,0.899939382 L160.270476,7.36579107 L157.719203,0.899939382 L156.714455,0.899939382 L156.714455,9.48758335 Z M170.010626,5.63604769 C171.544345,5.63604769 172.489005,4.74063952 172.489005,3.26897858 C172.489005,1.79534754 171.544345,0.899939382 170.010626,0.899939382 L167.090945,0.899939382 L167.090945,9.48758335 L167.900654,9.48758335 L167.900654,5.63604769 L170.010626,5.63604769 Z M167.900654,4.87460598 L167.900654,1.66138109 L170.022446,1.66138109 C171.138505,1.66138109 171.641865,2.28688624 171.641865,3.26897858 C171.641865,4.25008588 171.138505,4.87460598 170.022446,4.87460598 L167.900654,4.87460598 Z M175.236303,6.74028592 C175.236303,7.63569408 175.519011,8.33409275 176.083444,8.83745201 C176.659696,9.34081128 177.35908,9.58510305 178.181595,9.58510305 C179.003124,9.58510305 179.702508,9.34081128 180.265955,8.83745201 C180.842208,8.33409275 181.123932,7.63569408 181.123932,6.74028592 L181.123932,0.899939382 L180.315208,0.899939382 L180.315208,6.81317943 C180.315208,7.95386442 179.554751,8.82464639 178.181595,8.82464639 C176.806468,8.82464639 176.046997,7.95386442 176.046997,6.81317943 L176.046997,0.899939382 L175.236303,0.899939382 L175.236303,6.74028592 Z M188.337434,2.12730855 C188.006458,1.53825015 187.834075,1.25554152 187.257822,0.99844413 C186.976099,0.863492625 186.645123,0.802419681 186.251104,0.802419681 C185.700462,0.802419681 185.221729,0.99844413 184.82968,1.39147808 C184.449452,1.78352698 184.253427,2.28688624 184.253427,2.91337644 C184.228801,4.39685795 185.601957,4.96129016 186.645123,5.44002324 C187.380953,5.78380481 187.957206,6.30982017 187.957206,7.09588806 C187.957206,8.21194686 187.31988,8.82464639 186.350594,8.82464639 C185.271967,8.82464639 184.768607,8.07699535 184.424826,6.84962619 L183.725442,7.26630127 C184.018986,8.65324813 184.964632,9.58510305 186.350594,9.58510305 C187.061798,9.58510305 187.649871,9.35263184 188.104963,8.89951 C188.569906,8.44540311 188.804347,7.83171853 188.804347,7.07027682 C188.804347,6.02908163 188.214303,5.30507173 187.478473,4.94946959 C187.123856,4.76526571 186.754463,4.58106183 186.388025,4.42148414 C185.652195,4.07770257 185.062151,3.58714892 185.062151,2.81388664 C185.062151,2.16474035 185.504438,1.56287634 186.251104,1.56287634 C186.852968,1.56287634 187.330716,1.89483734 187.674497,2.54496868 L188.337434,2.12730855 Z" id="Fill-37" fill="#1D1D1B" mask="url(#mask-2)"></path>
                    </g>
                    <path d="M325.534355,72.1654652 L320.43378,63.9649449 C322.799864,63.4773464 323.996696,62.0115958 323.996696,59.5972444 C323.996696,56.643087 322.093585,55.0808017 318.969014,55.0808017 L312.988791,55.0808017 L312.988791,72.1654652 L315.138164,72.1654652 L315.138164,64.110732 L317.993817,64.110732 L322.995888,72.1654652 L325.534355,72.1654652 Z M319.017281,57.1316705 C320.848485,57.1316705 321.776399,57.9610805 321.776399,59.5972444 C321.776399,61.2324232 320.848485,62.0618332 319.017281,62.0618332 L315.138164,62.0618332 L315.138164,57.1316705 L319.017281,57.1316705 Z" id="Fill-40" fill="#1D1D1B"></path>
                    <polygon id="Fill-42" fill="#1D1D1B" points="388.389743 62.7223075 383.934373 62.7223075 383.934373 64.5249444 388.389743 64.5249444 388.389743 68.9803142 390.19238 68.9803142 390.19238 64.5249444 394.64775 64.5249444 394.64775 62.7223075 390.19238 62.7223075 390.19238 58.2669378 388.389743 58.2669378"></polygon>
                    <path d="M279.464177,57.1559027 C278.219077,58.6452945 277.609333,60.8173242 277.609333,63.6227394 C277.609333,66.4301248 278.219077,68.6021545 279.464177,70.1151874 C280.709277,71.6045792 282.295204,72.3610957 284.247568,72.3610957 C286.200917,72.3610957 287.785858,71.6045792 289.030958,70.1151874 C290.276058,68.6021545 290.885803,66.4301248 290.885803,63.6227394 C290.885803,60.8173242 290.276058,58.6452945 289.030958,57.1559027 C287.785858,55.6428698 286.200917,54.8853683 284.247568,54.8853683 C282.295204,54.8853683 280.709277,55.6428698 279.464177,57.1559027 M287.468673,58.572401 C288.274442,59.6461027 288.665506,61.3295489 288.665506,63.6227394 C288.665506,65.9179001 288.274442,67.6023313 287.468673,68.7006592 C286.663889,69.774361 285.590187,70.3112119 284.247568,70.3112119 C282.904948,70.3112119 281.831246,69.774361 281.026462,68.7006592 C280.220694,67.6023313 279.82963,65.9179001 279.82963,63.6227394 C279.82963,61.3295489 280.220694,59.6461027 281.026462,58.572401 C281.831246,57.473088 282.904948,56.9362371 284.247568,56.9362371 C285.590187,56.9362371 286.663889,57.473088 287.468673,58.572401" id="Fill-44" fill="#1D1D1B"></path>
                    <polygon id="Fill-46" fill="#1D1D1B" points="348.736361 72.1654652 359.81716 72.1654652 359.81716 70.1155814 350.883764 70.1155814 350.883764 64.0880759 358.351409 64.0880759 358.351409 62.037207 350.883764 62.037207 350.883764 57.1316705 359.572868 57.1316705 359.572868 55.0808017 348.736361 55.0808017"></polygon>
                    <path d="M295.702291,66.2348884 C295.702291,68.1380001 296.263768,69.6273919 297.411348,70.7257198 C298.557944,71.8240478 299.997098,72.3608987 301.755408,72.3608987 C303.512732,72.3608987 304.951887,71.8240478 306.098482,70.7257198 C307.246062,69.6273919 307.807539,68.1380001 307.807539,66.2348884 L307.807539,55.0802106 L305.660136,55.0802106 L305.660136,66.3806754 C305.660136,68.7250884 304.219996,70.3100298 301.755408,70.3100298 C299.290819,70.3100298 297.849694,68.7250884 297.849694,66.3806754 L297.849694,55.0802106 L295.702291,55.0802106 L295.702291,66.2348884 Z" id="Fill-48" fill="#1D1D1B"></path>
                    <path d="M377.409222,58.5470853 C376.628079,56.4725753 374.823472,54.8856638 372.064354,54.8856638 C370.42819,54.8856638 369.160434,55.32598 368.232519,56.2282835 C367.30559,57.1079309 366.841632,58.2545262 366.841632,59.6454132 C366.940137,61.695297 367.646416,62.7689988 369.013662,63.4772479 C369.989844,63.9658315 370.574962,64.1362447 371.771795,64.4288038 C373.01591,64.7213629 373.455241,64.868135 374.211757,65.1853203 C374.601836,65.3320923 374.870754,65.4778794 375.042152,65.6492776 C375.359338,65.9664629 375.651897,66.5033138 375.651897,67.2115629 C375.651897,69.2378056 374.284651,70.3115074 372.137247,70.3115074 C369.891339,70.3115074 368.427559,69.0417812 367.769547,66.5033138 L365.76793,67.2844565 C366.425942,70.5794403 368.843249,72.3604061 372.137247,72.3604061 C375.579003,72.3604061 377.7993,70.5301879 377.7993,66.9190038 C377.726407,65.1370529 377.092036,64.1598858 375.748432,63.4772479 C374.846128,62.9886644 374.188116,62.793625 372.943016,62.4764397 C371.552129,62.1109871 370.551321,61.7445494 369.91695,61.3781117 C369.306221,61.0116741 368.989036,60.4019297 368.989036,59.5725197 C368.989036,57.9117296 370.185868,56.9365326 372.064354,56.9365326 C373.626639,56.9365326 374.773234,57.7905688 375.529751,59.4996262 L377.409222,58.5470853 Z" id="Fill-50" fill="#1D1D1B"></path>
                    <path d="M342.394921,58.5470853 C341.613778,56.4725753 339.809171,54.8856638 337.050053,54.8856638 C335.413889,54.8856638 334.146133,55.32598 333.218218,56.2282835 C332.291289,57.1079309 331.827331,58.2545262 331.827331,59.6454132 C331.925836,61.695297 332.632115,62.7689988 333.999361,63.4772479 C334.975543,63.9658315 335.560661,64.1362447 336.757494,64.4288038 C338.001609,64.7213629 338.44094,64.868135 339.197457,65.1853203 C339.587535,65.3320923 339.856453,65.4778794 340.027852,65.6492776 C340.345037,65.9664629 340.637596,66.5033138 340.637596,67.2115629 C340.637596,69.2378056 339.27035,70.3115074 337.122947,70.3115074 C334.877038,70.3115074 333.413258,69.0417812 332.755246,66.5033138 L330.75363,67.2844565 C331.411641,70.5794403 333.828948,72.3604061 337.122947,72.3604061 C340.564702,72.3604061 342.785985,70.5301879 342.785985,66.9190038 C342.712106,65.1370529 342.077735,64.1598858 340.735116,63.4772479 C339.831827,62.9886644 339.173815,62.793625 337.928715,62.4764397 C336.537828,62.1109871 335.53702,61.7445494 334.90265,61.3781117 C334.29192,61.0116741 333.974735,60.4019297 333.974735,59.5725197 C333.974735,57.9117296 335.171567,56.9365326 337.050053,56.9365326 C338.612338,56.9365326 339.758934,57.7905688 340.51545,59.4996262 L342.394921,58.5470853 Z" id="Fill-52" fill="#1D1D1B"></path>
                    <path d="M271.304536,66.5521722 C270.523394,69.0906395 269.328531,70.3101283 267.203784,70.3101283 C264.177718,70.3101283 262.372126,68.1380986 262.372126,63.623626 C262.372126,59.1081683 264.177718,56.9371237 267.203784,56.9371237 C269.328531,56.9371237 270.523394,58.1566124 271.304536,60.6950798 L273.330779,60.0853354 C272.549636,56.9371237 270.402233,54.8862548 267.203784,54.8862548 C265.154885,54.8862548 263.469469,55.6427713 262.127834,57.131178 C260.80984,58.6205698 260.150844,60.7925995 260.150844,63.623626 C260.150844,66.4536674 260.80984,68.6266822 262.127834,70.116074 C263.469469,71.6044807 265.154885,72.3609972 267.203784,72.3609972 C270.402233,72.3609972 272.549636,70.3101283 273.330779,67.1619165 L271.304536,66.5521722 Z" id="Fill-54" fill="#1D1D1B"></path>
                    <polygon id="Fill-56" fill="#1D1D1B" points="254.433628 93.5893615 250.319085 93.5893615 250.319085 80.2439382 254.433628 80.2439382 254.433628 78.3930339 244.059108 78.3930339 244.059108 80.2439382 248.175621 80.2439382 248.175621 93.5893615 244.059108 93.5893615 244.059108 95.4402657 254.433628 95.4402657"></polygon>
                    <path d="M131.250091,89.8390887 C130.469933,92.3716458 129.278026,93.5901495 127.158204,93.5901495 C124.139033,93.5901495 122.337381,91.42206 122.337381,86.9164528 C122.337381,82.4118307 124.139033,80.2447262 127.158204,80.2447262 C129.278026,80.2447262 130.469933,81.4612599 131.250091,83.994802 L133.271408,83.3850576 C132.492236,80.2447262 130.348772,78.1997676 127.158204,78.1997676 C125.113245,78.1997676 123.432754,78.954314 122.094075,80.4387806 C120.779036,81.9252172 120.121024,84.0913366 120.121024,86.9164528 C120.121024,89.740584 120.779036,91.9086735 122.094075,93.3951101 C123.432754,94.8805617 125.113245,95.6351081 127.158204,95.6351081 C130.348772,95.6351081 132.492236,93.5901495 133.271408,90.4478481 L131.250091,89.8390887 Z" id="Fill-58" fill="#1D1D1B"></path>
                    <polygon id="Fill-60" fill="#1D1D1B" points="195.653481 80.4388791 195.653481 95.4401672 197.796944 95.4401672 197.796944 80.4388791 203.105365 80.4388791 203.105365 78.3939205 190.34506 78.3939205 190.34506 80.4388791"></polygon>
                    <polygon id="Fill-62" fill="#1D1D1B" points="226.418287 95.4401672 228.560765 95.4401672 228.560765 87.574563 235.866862 87.574563 235.866862 85.5276344 228.560765 85.5276344 228.560765 80.4388791 237.06074 80.4388791 237.06074 78.3939205 226.418287 78.3939205"></polygon>
                    <polygon id="Fill-64" fill="#1D1D1B" points="149.390528 93.5893615 145.275 93.5893615 145.275 80.2439382 149.390528 80.2439382 149.390528 78.3930339 139.016008 78.3930339 139.016008 80.2439382 143.132522 80.2439382 143.132522 93.5893615 139.016008 93.5893615 139.016008 95.4402657 149.390528 95.4402657"></polygon>
                    <polygon id="Fill-66" fill="#1D1D1B" points="219.419229 93.5893615 215.3037 93.5893615 215.3037 80.2439382 219.419229 80.2439382 219.419229 78.3930339 209.044709 78.3930339 209.044709 80.2439382 213.161222 80.2439382 213.161222 93.5893615 209.044709 93.5893615 209.044709 95.4402657 219.419229 95.4402657"></polygon>
                    <polygon id="Fill-68" fill="#1D1D1B" points="182.882832 91.5437134 175.747148 78.3933295 173.409631 78.3933295 173.409631 95.4405612 175.553094 95.4405612 175.553094 82.2901773 182.688778 95.4405612 185.026296 95.4405612 185.026296 78.3933295 182.882832 78.3933295"></polygon>
                    <polygon id="Fill-70" fill="#1D1D1B" points="156.182628 95.4401672 167.238801 95.4401672 167.238801 93.3952086 158.326091 93.3952086 158.326091 87.3795236 165.77699 87.3795236 165.77699 85.33358 158.326091 85.33358 158.326091 80.4388791 166.994509 80.4388791 166.994509 78.3939205 156.182628 78.3939205"></polygon>
                    <path d="M114.802261,81.8666069 C114.022103,79.7970221 112.220451,78.2140508 109.468228,78.2140508 C107.837975,78.2140508 106.571204,78.6523969 105.646244,79.5527303 C104.7203,80.4304077 104.258312,81.5740478 104.258312,82.9619797 C104.354847,85.0089084 105.061126,86.079655 106.424432,86.785934 C107.398644,87.2735325 107.983762,87.4429607 109.175669,87.7355198 C110.417814,88.0280789 110.857145,88.1738659 111.611692,88.4900662 C112.002756,88.6368383 112.269703,88.7826253 112.440117,88.9530385 C112.757302,89.2702238 113.047891,89.8051046 113.047891,90.5123687 C113.047891,92.5336861 111.684585,93.6044327 109.542107,93.6044327 C107.302109,93.6044327 105.841284,92.3376616 105.182287,89.8051046 L103.185596,90.5852622 C103.843607,93.8723656 106.255004,95.6493913 109.542107,95.6493913 C112.974997,95.6493913 115.191354,93.8240983 115.191354,90.2198096 C115.118461,88.4417988 114.48606,87.4675869 113.146396,86.785934 C112.245077,86.2993206 111.588051,86.1042812 110.346891,85.7870959 C108.957974,85.4226283 107.959136,85.0571757 107.32575,84.6917231 C106.716991,84.3252854 106.400791,83.7175111 106.400791,82.8890862 C106.400791,81.2332214 107.593683,80.2590094 109.468228,80.2590094 C111.028544,80.2590094 112.172184,81.1120605 112.92673,82.8161927 L114.802261,81.8666069 Z" id="Fill-72" fill="#1D1D1B"></path>
                    <path d="M271.307688,89.8390887 C270.527531,92.3716458 269.335623,93.5901495 267.215801,93.5901495 C264.196631,93.5901495 262.394979,91.42206 262.394979,86.9164528 C262.394979,82.4118307 264.196631,80.2447262 267.215801,80.2447262 C269.335623,80.2447262 270.527531,81.4612599 271.307688,83.994802 L273.329006,83.3850576 C272.549833,80.2447262 270.40637,78.1997676 267.215801,78.1997676 C265.170843,78.1997676 263.490352,78.954314 262.151672,80.4387806 C260.836634,81.9252172 260.178622,84.0913366 260.178622,86.9164528 C260.178622,89.740584 260.836634,91.9086735 262.151672,93.3951101 C263.490352,94.8805617 265.170843,95.6351081 267.215801,95.6351081 C270.40637,95.6351081 272.549833,93.5901495 273.329006,90.4478481 L271.307688,89.8390887 Z" id="Fill-74" fill="#1D1D1B"></path>
                    <g id="Group-78" transform="translate(470.852698, 78.001379)">
                        <mask id="mask-4" fill="white">
                            <use xlink:href="#path-3"></use>
                        </mask>
                        <g id="Clip-77"></g>
                        <path d="M12.0296954,3.94738078 C11.2495378,1.87779602 9.44788594,0.294824712 6.69664831,0.294824712 C5.06540968,0.294824712 3.79863861,0.733170843 2.87367903,1.63350424 C1.94773439,2.51118155 1.48574712,3.65482168 1.48574712,5.04275359 C1.58228177,7.08968226 2.28856082,8.16042887 3.65186654,8.86670792 C4.6260785,9.35430643 5.21119671,9.52373459 6.40408921,9.8162937 C7.64524904,10.1088528 8.08458022,10.2556249 8.83912659,10.5708401 C9.23019044,10.7176121 9.49713831,10.8633992 9.66755153,11.0338124 C9.98473682,11.3509977 10.2753258,11.8858785 10.2753258,12.5931426 C10.2753258,14.61446 8.91202011,15.6852066 6.76954183,15.6852066 C4.52954385,15.6852066 3.06871843,14.4184355 2.40972166,11.8858785 L0.41303041,12.6660361 C1.07202718,15.9531395 3.48243837,17.7301652 6.76954183,17.7301652 C10.2024323,17.7301652 12.4187891,15.9048722 12.4187891,12.3005835 C12.3458956,10.5225727 11.7134952,9.54836078 10.3738306,8.86670792 C9.47251212,8.38009446 8.81548545,8.18505506 7.57432562,7.86786977 C6.18540867,7.5034022 5.18657052,7.13794959 4.55318499,6.77249697 C3.94442564,6.4060593 3.6282254,5.79828501 3.6282254,4.96986007 C3.6282254,3.31399525 4.8211179,2.33978329 6.69664831,2.33978329 C8.25597848,2.33978329 9.39961861,3.19283441 10.154165,4.89696656 L12.0296954,3.94738078 Z" id="Fill-76" fill="#1D1D1B" mask="url(#mask-4)"></path>
                    </g>
                    <polygon id="Fill-79" fill="#1D1D1B" points="349.397919 95.3426475 351.541382 95.3426475 351.541382 87.4770433 358.846494 87.4770433 358.846494 85.4301147 351.541382 85.4301147 351.541382 80.3413594 360.040372 80.3413594 360.040372 78.2964008 349.397919 78.2964008"></polygon>
                    <path d="M446.808673,89.7416675 C446.028516,92.2742246 444.836608,93.4927283 442.716786,93.4927283 C439.697616,93.4927283 437.895964,91.3246388 437.895964,86.8190316 C437.895964,82.3144095 439.697616,80.147305 442.716786,80.147305 C444.836608,80.147305 446.028516,81.3638387 446.808673,83.8973808 L448.829991,83.2876364 C448.050818,80.147305 445.907355,78.1023464 442.716786,78.1023464 C440.671828,78.1023464 438.991337,78.8568928 437.652657,80.3413594 C436.337619,81.827796 435.679607,83.9939154 435.679607,86.8190316 C435.679607,89.6431628 436.337619,91.8112523 437.652657,93.2976889 C438.991337,94.7821555 440.671828,95.5376869 442.716786,95.5376869 C445.907355,95.5376869 448.050818,93.4927283 448.829991,90.3504269 L446.808673,89.7416675 Z" id="Fill-81" fill="#1D1D1B"></path>
                    <path d="M314.931403,80.5607294 C313.689258,82.045196 313.080499,84.2132855 313.080499,87.0147606 C313.080499,89.8142655 313.689258,91.982355 314.931403,93.4924328 C316.173548,94.9768994 317.756519,95.7314457 319.704943,95.7314457 C321.653367,95.7314457 323.236338,94.9768994 324.477498,93.4924328 C325.719643,91.982355 326.328402,89.8142655 326.328402,87.0147606 C326.328402,84.2132855 325.719643,82.045196 324.477498,80.5607294 C323.236338,79.0506516 321.653367,78.2961053 319.704943,78.2961053 C317.756519,78.2961053 316.173548,79.0506516 314.931403,80.5607294 M322.918168,81.9732875 C323.722952,83.0450192 324.112045,84.7255102 324.112045,87.0147606 C324.112045,89.3030259 323.722952,90.9835169 322.918168,92.0788897 C322.115354,93.1516064 321.044607,93.6864872 319.704943,93.6864872 C318.364293,93.6864872 317.293547,93.1516064 316.489748,92.0788897 C315.685949,90.9835169 315.296855,89.3030259 315.296855,87.0147606 C315.296855,84.7255102 315.685949,83.0450192 316.489748,81.9732875 C317.293547,80.8769297 318.364293,80.3410639 319.704943,80.3410639 C321.044607,80.3410639 322.115354,80.8769297 322.918168,81.9732875" id="Fill-83" fill="#1D1D1B"></path>
                    <path d="M395.991847,95.3426475 L390.903092,87.1598581 C393.263265,86.6742296 394.457143,85.2124192 394.457143,82.802008 C394.457143,79.8537609 392.558956,78.2964008 389.441281,78.2964008 L383.474848,78.2964008 L383.474848,95.3426475 L385.617327,95.3426475 L385.617327,87.3056451 L388.467069,87.3056451 L393.45929,95.3426475 L395.991847,95.3426475 Z M389.489548,80.3413594 C391.316811,80.3413594 392.240786,81.1687993 392.240786,82.802008 C392.240786,84.4332466 391.316811,85.2606865 389.489548,85.2606865 L385.617327,85.2606865 L385.617327,80.3413594 L389.489548,80.3413594 Z" id="Fill-85" fill="#1D1D1B"></path>
                    <polygon id="Fill-87" fill="#1D1D1B" points="428.412616 91.4462922 421.276932 78.2949232 418.939415 78.2949232 418.939415 95.34314 421.081893 95.34314 421.081893 82.1927561 428.218562 95.34314 430.55608 95.34314 430.55608 78.2949232 428.412616 78.2949232"></polygon>
                    <polygon id="Fill-89" fill="#1D1D1B" points="340.876667 91.4462922 333.740983 78.2949232 331.403465 78.2949232 331.403465 95.34314 333.546929 95.34314 333.546929 82.1927561 340.681628 95.34314 343.02013 95.34314 343.02013 78.2949232 340.876667 78.2949232"></polygon>
                    <polygon id="Fill-91" fill="#1D1D1B" points="401.71251 95.3426475 412.768683 95.3426475 412.768683 93.2976889 403.855973 93.2976889 403.855973 87.2820039 411.306873 87.2820039 411.306873 85.2360603 403.855973 85.2360603 403.855973 80.3413594 412.524391 80.3413594 412.524391 78.2964008 401.71251 78.2964008"></polygon>
                    <polygon id="Fill-93" fill="#1D1D1B" points="366.698012 95.3426475 377.754185 95.3426475 377.754185 93.2976889 368.841476 93.2976889 368.841476 87.2820039 376.292375 87.2820039 376.292375 85.2360603 368.841476 85.2360603 368.841476 80.3413594 377.509893 80.3413594 377.509893 78.2964008 366.698012 78.2964008"></polygon>
                    <g id="Group-97" transform="translate(295.514245, 78.001379)">
                        <mask id="mask-6" fill="white">
                            <use xlink:href="#path-5"></use>
                        </mask>
                        <g id="Clip-96"></g>
                        <path d="M11.2371262,11.9350323 C10.4569686,14.4675894 9.26506112,15.6860932 7.14523894,15.6860932 C4.1260684,15.6860932 2.32441655,13.5180036 2.32441655,9.01239644 C2.32441655,4.50875935 4.1260684,2.34066983 7.14523894,2.34066983 C9.26506112,2.34066983 10.4569686,3.55720348 11.2371262,6.09074561 L13.2584436,5.48100121 C12.4792711,2.34066983 10.3358077,0.295711255 7.14523894,0.295711255 C5.10028036,0.295711255 3.41978935,1.05025763 2.08110982,2.53472419 C0.766071429,4.02116084 0.108059709,6.18728026 0.108059709,9.01239644 C0.108059709,11.8375126 0.766071429,14.0046171 2.08110982,15.4910537 C3.41978935,16.9765054 5.10028036,17.7310517 7.14523894,17.7310517 C10.3358077,17.7310517 12.4792711,15.6860932 13.2584436,12.5437917 L11.2371262,11.9350323 Z" id="Fill-95" fill="#1D1D1B" mask="url(#mask-6)"></path>
                    </g>
                    <polygon id="Fill-98" fill="#1D1D1B" points="454.233863 95.3426475 465.290036 95.3426475 465.290036 93.2976889 456.377326 93.2976889 456.377326 87.2820039 463.828225 87.2820039 463.828225 85.2360603 456.377326 85.2360603 456.377326 80.3413594 465.045744 80.3413594 465.045744 78.2964008 454.233863 78.2964008"></polygon>
                </g>
                <g id="white" fill="#FFFFFF">
                    <rect id="left" x="0" y="51.980198" width="26.7326733" height="26.7326733"></rect>
                    <rect id="bottom" x="173.762376" y="123.267327" width="26.7326733" height="26.7326733"></rect>
                    <rect id="right" x="510.891089" y="98.019802" width="26.7326733" height="26.7326733"></rect>
                    <rect id="top" x="160.39604" y="0" width="26.7326733" height="26.7326733"></rect>
                </g>
            </g>
        </g>
    </g>
</svg>