<svg width="40" height="40" xmlns="http://www.w3.org/2000/svg"><g fill="#000" fill-rule="evenodd"><path d="M19 7.4h-.2l-.2.3c-.2.5 0 1.6.3 2.8.3-2 .1-2.9 0-3zM10.7 28.4s0 .3.4.7c.1-.1 1-.5 2.5-3.3-2 1.1-2.9 2-3 2.6zM16.8 22.5c2-.8 4.2-1.4 6.1-1.8a30.5 30.5 0 0 1-3.6-5.3 62 62 0 0 1-2.5 7.1z"/><path d="M20 0a20 20 0 1 0 0 40 20 20 0 0 0 0-40zm10.3 23c-.5.8-1.2 1.1-2 1.1-1.2 0-2.6-.7-4-2.1a46 46 0 0 0-8.4 2.7c-.8 1.6-1.5 3-2.2 4-1 1.3-1.9 2-2.7 2l-.9-.3c-1-.7-1-1.6-1-2.1.2-1.6 2-3.2 5.7-4.8 1.4-3 2.7-7 3.6-10.1-1-2-1.9-4.7-1.2-6.3.2-.5.7-.9 1.2-1l.6-.2c.5 0 .9.2 1.2.6.3.4 1 1.4-.1 6.7 1.2 2.6 3 5.3 4.8 7.1L28 20c1.4 0 2.3.3 2.7 1 .2.6 0 1.2-.5 2z"/><path d="M26.3 21.6c.8.6 1.4 1 2 1 .2 0 .4-.1.7-.5l.3-.4c-.1 0-.5-.2-1.3-.2l-1.7.1z"/></g></svg>