<?xml version="1.0" encoding="UTF-8" standalone="no"?>
<svg width="80px" height="80px" viewBox="0 0 80 80" version="1.1" xmlns="http://www.w3.org/2000/svg" xmlns:xlink="http://www.w3.org/1999/xlink">
    <!-- Generator: Sketch 39.1 (31720) - http://www.bohemiancoding.com/sketch -->
    <title>Icon - U shape - grey</title>
    <desc>Created with Sketch.</desc>
    <defs>
        <rect id="path-1" x="-1.45008722e-14" y="9" width="50" height="10"></rect>
        <mask id="mask-2" maskContentUnits="userSpaceOnUse" maskUnits="objectBoundingBox" x="0" y="0" width="50" height="10" fill="white">
            <use xlink:href="#path-1"></use>
        </mask>
        <rect id="path-3" x="0" y="9" width="32" height="10"></rect>
        <mask id="mask-4" maskContentUnits="userSpaceOnUse" maskUnits="objectBoundingBox" x="0" y="0" width="32" height="10" fill="white">
            <use xlink:href="#path-3"></use>
        </mask>
        <rect id="path-5" x="0" y="-1.77635684e-15" width="31" height="10"></rect>
        <mask id="mask-6" maskContentUnits="userSpaceOnUse" maskUnits="objectBoundingBox" x="0" y="0" width="31" height="10" fill="white">
            <use xlink:href="#path-5"></use>
        </mask>
        <rect id="path-7" x="0" y="9" width="30" height="10"></rect>
        <mask id="mask-8" maskContentUnits="userSpaceOnUse" maskUnits="objectBoundingBox" x="0" y="0" width="30" height="10" fill="white">
            <use xlink:href="#path-7"></use>
        </mask>
    </defs>
    <g id="Symbols" stroke="none" stroke-width="1" fill="none" fill-rule="evenodd">
        <g id="Icon---U-shape---grey">
            <g id="back-row" transform="translate(40.000000, 64.500000) rotate(180.000000) translate(-40.000000, -64.500000) translate(15.000000, 55.000000)">
                <circle id="Oval-2-Copy-6" fill="#666666" cx="45" cy="4" r="4"></circle>
                <circle id="Oval-2-Copy-7" fill="#666666" cx="35" cy="4" r="4"></circle>
                <circle id="Oval-2-Copy-8" fill="#666666" cx="25" cy="4" r="4"></circle>
                <circle id="Oval-2-Copy-9" fill="#666666" cx="15" cy="4" r="4"></circle>
                <circle id="Oval-2-Copy-10" fill="#666666" cx="5" cy="4" r="4"></circle>
                <use id="table-border-copy-2" stroke="#222222" mask="url(#mask-2)" stroke-width="20" transform="translate(25.000000, 14.000000) rotate(180.000000) translate(-25.000000, -14.000000) " xlink:href="#path-1"></use>
            </g>
            <g id="right-row" transform="translate(64.500000, 44.500000) rotate(90.000000) translate(-64.500000, -44.500000) translate(45.000000, 35.000000)">
                <circle id="Oval-2-Copy-4" fill="#666666" cx="35" cy="4" r="4"></circle>
                <circle id="Oval-2-Copy-6" fill="#666666" cx="25" cy="4" r="4"></circle>
                <circle id="Oval-2-Copy-7" fill="#666666" cx="15" cy="4" r="4"></circle>
                <circle id="Oval-2-Copy-8" fill="#666666" cx="5" cy="4" r="4"></circle>
                <use id="table-border-copy-2" stroke="#222222" mask="url(#mask-4)" stroke-width="20" transform="translate(16.000000, 14.000000) rotate(180.000000) translate(-16.000000, -14.000000) " xlink:href="#path-3"></use>
            </g>
            <g id="right-row-copy" transform="translate(15.500000, 44.500000) rotate(90.000000) translate(-15.500000, -44.500000) translate(-4.000000, 35.000000)">
                <circle id="Oval-2-Copy-4" fill="#666666" cx="35" cy="15" r="4"></circle>
                <circle id="Oval-2-Copy-6" fill="#666666" cx="25" cy="15" r="4"></circle>
                <circle id="Oval-2-Copy-7" fill="#666666" cx="15" cy="15" r="4"></circle>
                <circle id="Oval-2-Copy-8" fill="#666666" cx="5" cy="15" r="4"></circle>
                <use id="table-border-copy-2" stroke="#222222" mask="url(#mask-6)" stroke-width="20" transform="translate(15.500000, 5.000000) rotate(180.000000) translate(-15.500000, -5.000000) " xlink:href="#path-5"></use>
            </g>
            <g id="teachers" transform="translate(25.000000, 5.000000)">
                <use id="table-border-copy" stroke="#222222" mask="url(#mask-8)" stroke-width="20" xlink:href="#path-7"></use>
                <circle id="Oval-2-Copy-4" fill="#666666" cx="21.25" cy="4" r="3.75"></circle>
                <circle id="Oval-2-Copy-3" fill="#666666" cx="8.75" cy="4" r="3.75"></circle>
            </g>
        </g>
    </g>
</svg>