<?xml version="1.0" encoding="UTF-8" standalone="no"?>
<svg width="80px" height="80px" viewBox="0 0 80 80" version="1.1" xmlns="http://www.w3.org/2000/svg" xmlns:xlink="http://www.w3.org/1999/xlink">
    <!-- Generator: Sketch 39.1 (31720) - http://www.bohemiancoding.com/sketch -->
    <title>Icon - boardroom - grey</title>
    <desc>Created with Sketch.</desc>
    <defs></defs>
    <g id="Symbols" stroke="none" stroke-width="1" fill="none" fill-rule="evenodd">
        <g id="Icon---boardroom---grey">
            <rect id="table-border" fill="#222222" x="20" y="20" width="40" height="40"></rect>
            <g id="left" transform="translate(10.000000, 40.000000) rotate(90.000000) translate(-10.000000, -40.000000) translate(-10.000000, 35.000000)" fill="#666666">
                <circle id="Oval-2-Copy" cx="5" cy="5" r="5"></circle>
                <circle id="Oval-2-Copy-2" cx="20" cy="5" r="5"></circle>
                <circle id="Oval-2-Copy-3" cx="35" cy="5" r="5"></circle>
            </g>
            <g id="bottom" transform="translate(20.000000, 65.000000)" fill="#666666">
                <circle id="Oval-2-Copy" cx="5" cy="5" r="5"></circle>
                <circle id="Oval-2-Copy-2" cx="20" cy="5" r="5"></circle>
                <circle id="Oval-2-Copy-3" cx="35" cy="5" r="5"></circle>
            </g>
            <g id="right" transform="translate(70.000000, 40.000000) rotate(90.000000) translate(-70.000000, -40.000000) translate(50.000000, 35.000000)" fill="#666666">
                <circle id="Oval-2-Copy" cx="5" cy="5" r="5"></circle>
                <circle id="Oval-2-Copy-2" cx="20" cy="5" r="5"></circle>
                <circle id="Oval-2-Copy-3" cx="35" cy="5" r="5"></circle>
            </g>
            <g id="top" transform="translate(20.000000, 5.000000)" fill="#666666">
                <circle id="Oval-2-Copy" cx="5" cy="5" r="5"></circle>
                <circle id="Oval-2-Copy-2" cx="20" cy="5" r="5"></circle>
                <circle id="Oval-2-Copy-3" cx="35" cy="5" r="5"></circle>
            </g>
        </g>
    </g>
</svg>