<?xml version="1.0" encoding="UTF-8"?>
<svg width="20px" height="20px" viewBox="0 0 20 20" version="1.1" xmlns="http://www.w3.org/2000/svg" xmlns:xlink="http://www.w3.org/1999/xlink">
    <!-- Generator: Sketch 45.2 (43514) - http://www.bohemiancoding.com/sketch -->
    <title>facebook</title>
    <desc>Created with Sketch.</desc>
    <defs></defs>
    <g id="Event" stroke="none" stroke-width="1" fill="none" fill-rule="evenodd">
        <g id="event" transform="translate(-1068.000000, -851.000000)" fill="#9B26B6">
            <g id="SIDEBAR" transform="translate(1060.000000, 183.000000)">
                <g id="share" transform="translate(0.000000, 619.000000)">
                    <path d="M28,52.3333333 C28,50.5819444 26.4191667,49 24.6666667,49 L11.3333333,49 C9.58083333,49 8,50.5819444 8,52.3333333 L8,65.6666667 C8,67.4180556 9.58083333,69 11.3333333,69 L18,69 L18,61.4447222 L15.5552778,61.4447222 L15.5552778,58.1113889 L18,58.1113889 L18,56.8125 C18,54.5727778 19.6819444,52.5558333 21.75,52.5558333 L24.4441667,52.5558333 L24.4441667,55.8891667 L21.75,55.8891667 C21.455,55.8891667 21.1108333,56.2472222 21.1108333,56.7833333 L21.1108333,58.1113889 L24.4441667,58.1113889 L24.4441667,61.4447222 L21.1108333,61.4447222 L21.1108333,69 L24.6666667,69 C26.4191667,69 28,67.4180556 28,65.6666667 L28,52.3333333 Z" id="facebook"></path>
                </g>
            </g>
        </g>
    </g>
</svg>