<?xml version="1.0" encoding="UTF-8"?>
<svg width="25px" height="20px" viewBox="0 0 25 20" version="1.1" xmlns="http://www.w3.org/2000/svg" xmlns:xlink="http://www.w3.org/1999/xlink">
    <!-- Generator: Sketch 45.2 (43514) - http://www.bohemiancoding.com/sketch -->
    <title>Twitter</title>
    <desc>Created with Sketch.</desc>
    <defs></defs>
    <g id="Event" stroke="none" stroke-width="1" fill="none" fill-rule="evenodd">
        <g id="event" transform="translate(-1068.000000, -892.000000)" fill="#9B26B6">
            <g id="SIDEBAR" transform="translate(1060.000000, 183.000000)">
                <g id="share" transform="translate(0.000000, 619.000000)">
                    <path d="M32.7079796,92.3623188 C31.7928693,92.7681159 30.8196567,93.0434783 29.8028674,93.1594203 C30.8487078,92.5362319 31.6476137,91.5362319 32.0252782,90.3623188 C31.0520656,90.942029 29.9626486,91.3623188 28.8006037,91.5942029 C27.8709677,90.6086957 26.5636672,90 25.0965855,90 C22.2931522,90 20.0271647,92.2608696 20.0271647,95.057971 C20.0271647,95.4492754 20.0707414,95.8405797 20.1578947,96.2173913 C15.945482,96 12.2124128,94 9.71401622,90.9275362 C9.27824939,91.6811594 9.03131485,92.5362319 9.03131485,93.4637681 C9.03131485,95.2173913 9.93189964,96.7681159 11.2827768,97.6666667 C10.4548198,97.6376812 9.67043954,97.4057971 8.98773816,97.0289855 L8.98773816,97.0869565 C8.98773816,99.5362319 10.7308055,101.57971 13.0548953,102.043478 C12.633654,102.15942 12.1833616,102.217391 11.7185437,102.217391 C11.3989813,102.217391 11.079419,102.188406 10.7598566,102.130435 C11.3989813,104.144928 13.2727787,105.608696 15.4951896,105.637681 C13.7666478,107 11.5732881,107.797101 9.20562158,107.797101 C8.79890587,107.797101 8.39219015,107.768116 8,107.724638 C10.2369364,109.15942 12.9096397,110 15.7711752,110 C25.0965855,110 30.1950575,102.289855 30.1950575,95.6086957 C30.1950575,95.3913043 30.1950575,95.173913 30.180532,94.9565217 C31.1682701,94.2608696 32.0252782,93.3768116 32.7079796,92.3623188" id="Twitter"></path>
                </g>
            </g>
        </g>
    </g>
</svg>