<?xml version="1.0" encoding="UTF-8"?>
<svg width="25px" height="20px" viewBox="0 0 25 20" version="1.1" xmlns="http://www.w3.org/2000/svg" xmlns:xlink="http://www.w3.org/1999/xlink">
    <!-- Generator: Sketch 45.1 (43504) - http://www.bohemiancoding.com/sketch -->
    <title>twitter_logo_highlight</title>
    <desc>Created with Sketch.</desc>
    <defs></defs>
    <g id="Page-1" stroke="none" stroke-width="1" fill="none" fill-rule="evenodd">
        <g id="twitter_logo_highlight" fill-rule="nonzero" fill="#EA994D">
            <path d="M24.70798,2.3623188 C23.792869,2.7681159 22.819657,3.0434783 21.802867,3.1594203 C22.848708,2.5362319 23.647614,1.5362319 24.025278,0.3623188 C23.052066,0.942029 21.962649,1.3623188 20.800604,1.5942029 C19.870968,0.6086957 18.563667,0 17.096586,0 C14.293152,0 12.027165,2.2608696 12.027165,5.057971 C12.027165,5.4492754 12.070741,5.8405797 12.157895,6.2173913 C7.945482,6 4.212413,4 1.714016,0.9275362 C1.278249,1.6811594 1.031315,2.5362319 1.031315,3.4637681 C1.031315,5.2173913 1.9319,6.7681159 3.282777,7.6666667 C2.45482,7.6376812 1.67044,7.4057971 0.987738,7.0289855 L0.987738,7.0869565 C0.987738,9.5362319 2.730806,11.5797101 5.054895,12.0434783 C4.633654,12.1594203 4.183362,12.2173913 3.718544,12.2173913 C3.398981,12.2173913 3.079419,12.1884058 2.759857,12.1304348 C3.398981,14.1449275 5.272779,15.6086957 7.49519,15.6376812 C5.766648,17 3.573288,17.7971014 1.205622,17.7971014 C0.798906,17.7971014 0.39219,17.7681159 0,17.7246377 C2.236936,19.1594203 4.90964,20 7.771175,20 C17.096586,20 22.195058,12.2898551 22.195058,5.6086957 C22.195058,5.3913043 22.195058,5.173913 22.180532,4.9565217 C23.16827,4.2608696 24.025278,3.3768116 24.70798,2.3623188" id="Twitter"></path>
        </g>
    </g>
</svg>