<?xml version="1.0" encoding="UTF-8" standalone="no"?>
<svg width="25px" height="20px" viewBox="0 0 25 20" version="1.1" xmlns="http://www.w3.org/2000/svg" xmlns:xlink="http://www.w3.org/1999/xlink">
    <!-- Generator: Sketch 39.1 (31720) - http://www.bohemiancoding.com/sketch -->
    <title>Twitter</title>
    <desc>Created with Sketch.</desc>
    <defs></defs>
    <g id="DEFAULT---Accommodation" stroke="none" stroke-width="1" fill="none" fill-rule="evenodd">
        <g id="DEFAULT---Accommodation---L-1024+-(1280-max-width)" transform="translate(-690.000000, -2548.000000)" fill="#CB2C30">
            <g id="FOOTER-v8-Copy-2" transform="translate(-375.000000, 2328.000000)">
                <g id="Social-Media" transform="translate(375.000000, 210.000000)">
                    <path d="M714.70798,12.3623188 C713.792869,12.7681159 712.819657,13.0434783 711.802867,13.1594203 C712.848708,12.5362319 713.647614,11.5362319 714.025278,10.3623188 C713.052066,10.942029 711.962649,11.3623188 710.800604,11.5942029 C709.870968,10.6086957 708.563667,10 707.096586,10 C704.293152,10 702.027165,12.2608696 702.027165,15.057971 C702.027165,15.4492754 702.070741,15.8405797 702.157895,16.2173913 C697.945482,16 694.212413,14 691.714016,10.9275362 C691.278249,11.6811594 691.031315,12.5362319 691.031315,13.4637681 C691.031315,15.2173913 691.9319,16.7681159 693.282777,17.6666667 C692.45482,17.6376812 691.67044,17.4057971 690.987738,17.0289855 L690.987738,17.0869565 C690.987738,19.5362319 692.730806,21.5797101 695.054895,22.0434783 C694.633654,22.1594203 694.183362,22.2173913 693.718544,22.2173913 C693.398981,22.2173913 693.079419,22.1884058 692.759857,22.1304348 C693.398981,24.1449275 695.272779,25.6086957 697.49519,25.6376812 C695.766648,27 693.573288,27.7971014 691.205622,27.7971014 C690.798906,27.7971014 690.39219,27.7681159 690,27.7246377 C692.236936,29.1594203 694.90964,30 697.771175,30 C707.096586,30 712.195058,22.2898551 712.195058,15.6086957 C712.195058,15.3913043 712.195058,15.173913 712.180532,14.9565217 C713.16827,14.2608696 714.025278,13.3768116 714.70798,12.3623188" id="Twitter"></path>
                </g>
            </g>
        </g>
    </g>
</svg>