<?xml version="1.0" encoding="UTF-8" standalone="no"?>
<svg width="25px" height="20px" viewBox="0 0 25 20" version="1.1" xmlns="http://www.w3.org/2000/svg" xmlns:xlink="http://www.w3.org/1999/xlink">
    <!-- Generator: Sketch 39.1 (31720) - http://www.bohemiancoding.com/sketch -->
    <title>Twitter</title>
    <desc>Created with Sketch.</desc>
    <defs></defs>
    <g id="DEFAULT---Accommodation" stroke="none" stroke-width="1" fill="none" fill-rule="evenodd" fill-opacity="0.8">
        <g id="DEFAULT---Accommodation---L-1024+-(1280-max-width)" transform="translate(-688.000000, -2604.000000)" fill="#EA994D">
            <g id="FOOTER-Copy" transform="translate(0.000000, 2393.000000)">
                <g id="Footer---L-test-" transform="translate(0.000000, 110.000000)">
                    <g id="Social-Media" transform="translate(688.000000, 101.000000)">
                        <path d="M24.7079796,2.36231884 C23.7928693,2.76811594 22.8196567,3.04347826 21.8028674,3.15942029 C22.8487078,2.53623188 23.6476137,1.53623188 24.0252782,0.362318841 C23.0520656,0.942028986 21.9626486,1.36231884 20.8006037,1.5942029 C19.8709677,0.608695652 18.5636672,0 17.0965855,0 C14.2931522,0 12.0271647,2.26086957 12.0271647,5.05797101 C12.0271647,5.44927536 12.0707414,5.84057971 12.1578947,6.2173913 C7.94548198,6 4.21241275,4 1.71401622,0.927536232 C1.27824939,1.68115942 1.03131485,2.53623188 1.03131485,3.46376812 C1.03131485,5.2173913 1.93189964,6.76811594 3.28277683,7.66666667 C2.45481985,7.63768116 1.67043954,7.4057971 0.987738163,7.02898551 L0.987738163,7.08695652 C0.987738163,9.53623188 2.73080551,11.5797101 5.0548953,12.0434783 C4.63365403,12.1594203 4.18336163,12.2173913 3.71854367,12.2173913 C3.39898132,12.2173913 3.07941898,12.1884058 2.75985663,12.1304348 C3.39898132,14.1449275 5.27277872,15.6086957 7.49518959,15.6376812 C5.7666478,17 3.57328806,17.7971014 1.20562158,17.7971014 C0.798905867,17.7971014 0.392190153,17.7681159 0,17.7246377 C2.23693643,19.1594203 4.90963969,20 7.77117525,20 C17.0965855,20 22.1950575,12.2898551 22.1950575,5.60869565 C22.1950575,5.39130435 22.1950575,5.17391304 22.180532,4.95652174 C23.1682701,4.26086957 24.0252782,3.37681159 24.7079796,2.36231884" id="Twitter"></path>
                    </g>
                </g>
            </g>
        </g>
    </g>
</svg>