<?xml version="1.0" encoding="UTF-8"?>
<svg width="48px" height="20px" viewBox="0 0 48 20" version="1.1" xmlns="http://www.w3.org/2000/svg" xmlns:xlink="http://www.w3.org/1999/xlink">
    <!-- Generator: Sketch 45.1 (43504) - http://www.bohemiancoding.com/sketch -->
    <title>youtube</title>
    <desc>Created with Sketch.</desc>
    <defs></defs>
    <g id="Symbols" stroke="none" stroke-width="1" fill="none" fill-rule="evenodd" opacity="0.8">
        <g id="footer/-large" transform="translate(-676.000000, -40.000000)" fill="#EA994D">
            <g id="social-/-small-print">
                <g transform="translate(0.000000, 20.000000)">
                    <g id="Social-Media">
                        <g id="icons" transform="translate(641.000000, 20.000000)">
                            <g id="youtube" transform="translate(35.000000, 0.000000)">
                                <path d="M17.8095238,16.1139143 L16,16.1139143 L16,15.0662952 C15.314,15.852581 14.7324762,16.2497238 14.0985714,16.2497238 C13.542381,16.2497238 13.1561905,15.9873429 12.9627619,15.5132476 C12.8452381,15.2250571 12.7619048,14.7749619 12.7619048,14.1139143 L12.7619048,6.49486667 L14.5714286,6.49486667 L14.5714286,13.6377238 L14.5714286,14.3043905 C14.613619,14.5717238 14.7271429,14.6693429 14.9572381,14.6693429 C15.3035238,14.6693429 15.6169524,14.3683905 16,13.8282 L16,6.49486667 L17.8095238,6.49486667 L17.8095238,16.1139143 Z" id="Fill-1"></path>
                                <path d="M9.61904762,13.2567714 C9.71428571,14.2091524 9.41885714,14.6817238 8.85695238,14.6817238 C8.29514286,14.6817238 8,14.2091524 8.0952381,13.2567714 L8.0952381,9.44724762 C8,8.49486667 8.2952381,8.04848571 8.85714286,8.04848571 C9.41904762,8.04848571 9.7152381,8.49486667 9.62,9.44724762 L9.61904762,13.2567714 Z M11.4285714,9.63772381 C11.4285714,8.60972381 11.2220952,7.83791429 10.8571429,7.35200952 C10.3750476,6.69410476 9.61904762,6.42477143 8.85714286,6.42477143 C7.9947619,6.42477143 7.33847619,6.69410476 6.85714286,7.35200952 C6.48638095,7.83791429 6.28752381,8.61810476 6.28752381,9.64610476 L6.28571429,13.0662952 C6.28571429,14.0883905 6.46257143,14.7946762 6.83333333,15.2759143 C7.3147619,15.931819 8.0952381,16.2792476 8.85714286,16.2792476 C9.61904762,16.2792476 10.4132381,15.931819 10.8952381,15.2759143 C11.2601905,14.7946762 11.4285714,14.0883905 11.4285714,13.0662952 L11.4285714,9.63772381 Z" id="Fill-3"></path>
                                <path d="M4.28571429,10.875819 L4.28571429,16.1139143 L2.38095238,16.1139143 L2.38095238,10.875819 C2.38095238,10.875819 0.407142857,4.45381905 0,3.25677143 L2,3.25677143 L3.33666667,8.2734381 L4.66666667,3.25677143 L6.66666667,3.25677143 L4.28571429,10.875819 Z" id="Fill-5"></path>
                                <path d="M36.4211333,8.02477143 C36.1373238,8.02477143 35.8120857,8.17458095 35.5238,8.45915238 L35.5218952,14.2349619 C35.810181,14.5232476 36.1373238,14.6693429 36.4211333,14.6693429 C36.9183714,14.6693429 37.1428476,14.3043905 37.1428476,13.3520095 L37.1428476,9.25677143 C37.1428476,8.30439048 36.9183714,8.02477143 36.4211333,8.02477143" id="Fill-7"></path>
                                <path d="M43.5238095,9.16948571 C43.5238095,8.2892 43.2962857,8.02472381 42.7246667,8.02472381 C42.1487619,8.02472381 41.9047619,8.26748571 41.9047619,9.15758095 L41.9047619,10.2109143 L43.5238095,10.2092 L43.5238095,9.16948571 Z" id="Fill-9"></path>
                                <path d="M42.7406952,14.6693429 C43.1651714,14.6693429 43.4126,14.4384857 43.510981,13.9775333 C43.526981,13.8836286 43.5239333,13.4723905 43.5239333,12.780581 L45.3333619,12.780581 L45.3333619,13.0504857 C45.3333619,13.6061048 45.2875524,13.9993429 45.2721238,14.1719143 C45.2139333,14.5542 45.0785048,14.9000095 44.8688857,15.2050571 C44.3919333,15.8961048 43.6843143,16.2366762 42.7834571,16.2366762 C41.8815524,16.2366762 41.194981,15.9121048 40.6964095,15.261819 C40.3301238,14.7856286 40.0952667,14.0776286 40.0952667,13.0662952 L40.0952667,9.7329619 C40.0952667,8.71581905 40.308981,7.92953333 40.6752667,7.44810476 C41.1739333,6.79686667 41.8605048,6.4522 42.7406952,6.4522 C43.6056476,6.4522 44.292219,6.79686667 44.7754571,7.44810476 C45.1359333,7.92953333 45.3363143,8.67353333 45.3363143,9.69077143 L45.3366952,11.6377238 L41.9047905,11.6377238 L41.9047905,13.3480095 C41.8987905,14.2268667 42.1487905,14.6693429 42.7406952,14.6693429 L42.7406952,14.6693429 Z M38.9524095,13.2567714 C38.9524095,14.1369619 38.8770762,14.7581048 38.7619333,15.1615333 C38.5318381,15.8691524 38.0301238,16.2366762 37.3435524,16.2366762 C36.7305048,16.2366762 36.1023143,15.867819 35.526219,15.1550571 L35.5238381,16.1139143 L33.8095524,16.1139143 L33.8095524,3.35200952 L35.5238381,3.35200952 L35.5218381,7.51267619 C36.0787905,6.8274381 36.7092667,6.43734286 37.3435524,6.43734286 C38.0301238,6.43734286 38.4916476,6.83391429 38.7217429,7.54667619 C38.8368857,7.92953333 38.9524095,8.54581905 38.9524095,9.44724762 L38.9524095,13.2567714 Z M32.380981,16.1139143 L30.5714571,16.1139143 L30.5714571,15.0662952 C29.8854571,15.852581 29.3039333,16.2497238 28.6700286,16.2497238 C28.1138381,16.2497238 27.7275524,15.9873429 27.534219,15.5132476 C27.4166952,15.2250571 27.3333619,14.7749619 27.3333619,14.1139143 L27.3333619,6.59010476 L29.1428857,6.59010476 L29.1428857,13.6377238 L29.1428857,14.3043905 C29.1850762,14.5717238 29.2986,14.6693429 29.5286,14.6693429 C29.874981,14.6693429 30.1884095,14.3683905 30.5714571,13.8282 L30.5714571,6.59010476 L32.380981,6.59010476 L32.380981,16.1139143 Z M25.5238381,16.1139143 L23.6190762,16.1139143 L23.6190762,5.16153333 L21.6190762,5.16153333 L21.6190762,3.35400952 L27.6190762,3.35200952 L27.6190762,5.16153333 L25.5238381,5.16153333 L25.5238381,16.1139143 Z M47.4325048,4.29562857 C47.4325048,4.29562857 47.1546,2.34467619 46.3019333,1.4854381 C45.2206,0.357914286 44.008219,0.352295238 43.4524095,0.286390476 C39.4727905,9.52380954e-06 33.5033619,9.52380954e-06 33.5033619,9.52380954e-06 L33.4908857,9.52380954e-06 C33.4908857,9.52380954e-06 27.5211714,9.52380954e-06 23.5416476,0.286390476 C22.9856476,0.352295238 21.7738381,0.357914286 20.6921238,1.4854381 C19.8394571,2.34467619 19.5619333,4.29562857 19.5619333,4.29562857 C19.5619333,4.29562857 19.2775524,6.58648571 19.2775524,8.87762857 L19.2775524,11.0255333 C19.2775524,13.3164857 19.5619333,15.6074381 19.5619333,15.6074381 C19.5619333,15.6074381 19.8394571,17.5582952 20.6921238,18.4174381 C21.7738381,19.5452476 23.1950762,19.5093429 23.8279333,19.6275333 C26.1030762,19.8449619 33.496981,19.9121048 33.496981,19.9121048 C33.496981,19.9121048 39.4727905,19.9031524 43.4524095,19.6168667 C44.008219,19.5508667 45.2206,19.5452476 46.3019333,18.4174381 C47.1546,17.5582952 47.4325048,15.6074381 47.4325048,15.6074381 C47.4325048,15.6074381 47.7165048,13.3164857 47.7165048,11.0255333 L47.7165048,8.87762857 C47.7165048,6.58648571 47.4325048,4.29562857 47.4325048,4.29562857 L47.4325048,4.29562857 Z" id="Fill-11"></path>
                            </g>
                        </g>
                    </g>
                </g>
            </g>
        </g>
    </g>
</svg>