<svg width="217" height="40" viewBox="0 0 217 40" xmlns="http://www.w3.org/2000/svg" xmlns:xlink="http://www.w3.org/1999/xlink"><title>connecting</title><defs><path id="a" d="M0 39.862h216.934V0H0z"/></defs><g fill="none" fill-rule="evenodd"><path d="M3.342 25.974l2.13-.776c-.602-1.643-.93-3.418-.93-5.266 0-3.76 1.357-7.21 3.603-9.884L6.41 8.59c-2.578 3.07-4.134 7.026-4.134 11.342 0 2.12.377 4.158 1.066 6.042z" fill="#636362"/><path d="M8.586 33.45l1.455-1.737c-2.044-1.72-3.637-3.96-4.57-6.52l-2.13.777c1.07 2.935 2.9 5.507 5.246 7.48" fill="#868686"/><path d="M19.915 2.278c-5.418 0-10.27 2.457-13.51 6.315l1.736 1.458c2.825-3.362 7.053-5.503 11.775-5.503 4.717 0 8.947 2.14 11.768 5.5l1.735-1.457c-3.24-3.857-8.088-6.312-13.503-6.312M31.25 33.445l-1.458-1.737c-2.673 2.25-6.12 3.607-9.878 3.607-3.757 0-7.203-1.356-9.876-3.606l-1.455 1.737c3.067 2.58 7.02 4.137 11.33 4.137 4.313 0 8.268-1.56 11.336-4.14" fill="#A7A7A7"/><path d="M35.187 28.75l-1.962-1.133c-.9 1.558-2.066 2.942-3.436 4.092l1.456 1.737c1.57-1.32 2.908-2.91 3.94-4.697" fill="#BCBCBC"/><path d="M35.045 17.256l-2.153.382c.13.745.2 1.51.2 2.294 0 2.4-.644 4.652-1.768 6.593l1.894 1.093c1.31-2.263 2.062-4.888 2.062-7.686 0-.914-.082-1.806-.235-2.676" fill="#C9CAC9"/><path d="M37.285 16.86l-2.233.396c.152.87.234 1.76.234 2.676 0 2.8-.752 5.427-2.063 7.69l1.962 1.133c1.505-2.596 2.367-5.61 2.367-8.823 0-1.05-.093-2.073-.267-3.072" fill="#9C9C9C"/><path d="M1.2 13.12l2.137.778c1.07-2.936 2.9-5.51 5.246-7.482L7.12 4.67C4.47 6.9 2.405 9.807 1.2 13.12" fill="#706E6E"/><path d="M.303 23.4l2.24-.397c-.176-1-.267-2.024-.267-3.07 0-2.122.375-4.155 1.064-6.04l-2.14-.78C.425 15.244 0 17.54 0 19.934c0 1.182.105 2.34.303 3.467" fill="#868686"/><path d="M19.915 39.862h.006l-.002-2.276h-.003c-8.682 0-15.917-6.31-17.373-14.588l-2.24.393c1.64 9.348 9.81 16.472 19.613 16.472" fill="#494948"/><path d="M19.915 0c-4.872 0-9.337 1.76-12.8 4.674L8.578 6.42c3.068-2.585 7.02-4.142 11.335-4.142 5.415 0 10.264 2.455 13.503 6.312l1.745-1.463C31.505 2.772 26.027 0 19.915 0" fill="#868686"/><path d="M19.915 37.586v2.276c7.358 0 13.797-4.016 17.243-9.973l-1.97-1.14c-3.052 5.278-8.757 8.836-15.273 8.836" fill="#706E6E"/><path d="M59.935 9.587c.153.58.2.905.208.95.08-.407.144-.723.198-.95l.762-3.08h1.784l-1.828 6.477h-1.64l-.797-2.764c-.044-.162-.116-.453-.214-.87-.082.336-.147.626-.217.87l-.79 2.764H55.76l-1.83-6.478h1.785l.742 3.1c.08.325.144.65.198.968.064-.335.145-.66.226-.97l.814-3.098h1.422l.815 3.08zM64.266 6.506h3.964V7.93h-2.244V9.05h2.116v1.386h-2.116v1.097h2.244v1.45h-3.964M69.94 6.506h1.766v4.966H73.9v1.512h-3.96M75.663 6.506h1.765v4.966h2.192v1.512h-3.957M93.49 9.76c0-1.052-.707-1.904-1.69-1.904-.997 0-1.695.842-1.695 1.903 0 1.068.66 1.9 1.694 1.9 1.003 0 1.69-.84 1.69-1.9m.76 2.4c-.66.643-1.547.996-2.45.996-.79 0-1.578-.28-2.202-.78-.815-.652-1.258-1.576-1.258-2.617 0-.925.353-1.76 1.014-2.402.653-.635 1.54-.997 2.445-.997.903 0 1.8.363 2.45.998.663.643 1.007 1.485 1.007 2.4 0 .925-.354 1.767-1.006 2.4M102.41 12.984l-.382-2.8c-.053-.39-.1-.87-.135-1.45-.09.572-.227.96-.3 1.215l-.877 3.034H99.54L98.66 9.95c-.073-.255-.21-.644-.297-1.215-.037.58-.093 1.06-.147 1.45l-.38 2.8h-1.64l.998-6.48h1.747l.976 3.344c.063.208.155.49.208.878.045-.362.127-.653.2-.89l.986-3.332h1.748l.995 6.478h-1.647zM105.553 6.506h3.964V7.93h-2.244V9.05h2.12v1.386h-2.12v1.097h2.244v1.45h-3.964M85.795 10.706c-.27.596-.812.997-1.505.997-.595 0-1.066-.28-1.36-.72-.213-.322-.332-.73-.332-1.182 0-.328.068-.634.19-.902.27-.598.815-1 1.502-1 .57 0 1.05.288 1.346.73l1.243-1.08c-.046-.05-.09-.1-.137-.147-.65-.633-1.548-.994-2.453-.994-.903 0-1.792.36-2.443.995-.2.193-.365.403-.505.627-.332.525-.51 1.126-.51 1.774 0 .86.308 1.64.872 2.253.12.128.246.252.387.367.627.498 1.412.78 2.2.78.905 0 1.793-.355 2.453-.998.195-.19.36-.4.5-.624l-1.448-.872zM72.16 30.876l-.662-2.138c-.027-.098-.1-.39-.217-.87-.117.48-.2.772-.226.87l-.65 2.138h1.755zm-1.992-4.058h2.208l2.235 6.48h-1.755l-.326-1.16H70.02l-.335 1.16H67.93l2.238-6.48zM81.865 33.297l-.38-2.8c-.056-.39-.1-.87-.137-1.45-.09.57-.227.96-.3 1.215l-.877 3.035h-1.176l-.875-3.035c-.074-.255-.213-.645-.3-1.215-.038.58-.092 1.06-.148 1.45l-.38 2.8h-1.637l.996-6.48h1.75l.975 3.344c.063.21.155.49.208.88.046-.362.126-.652.2-.888l.986-3.334h1.747l.995 6.48h-1.647zM86.773 29.736c.75 0 1.14-.146 1.14-.77 0-.626-.407-.752-1.12-.752h-.354v1.522h.333zm-1.993 3.56V26.82h1.975c.816 0 1.457.01 1.965.335.57.363.905 1.034.905 1.866 0 .86-.317 1.504-.895 1.847-.447.264-.943.29-1.55.29h-.741v2.14h-1.66zM92.74 26.818v3.516c0 1.15.21 1.65 1.122 1.65 1.078 0 1.124-.672 1.124-2.058v-3.108h1.757v3.85c0 1.957-.826 2.8-2.88 2.8-1.096 0-1.856-.253-2.32-.788-.516-.588-.56-1.35-.56-2.365v-3.497h1.757zM65.85 30.982c-.27.597-.81.997-1.505.997-.594 0-1.065-.28-1.357-.72-.216-.323-.332-.73-.332-1.183 0-.33.063-.634.185-.903.273-.598.82-1 1.505-1 .57 0 1.05.287 1.348.732l1.244-1.083c-.047-.05-.088-.1-.137-.147-.654-.633-1.55-.996-2.455-.996-.903 0-1.79.363-2.443.996-.197.193-.362.403-.504.628-.33.523-.508 1.127-.508 1.773 0 .86.305 1.638.87 2.252.118.128.243.25.386.365.626.498 1.412.78 2.2.78.905 0 1.792-.354 2.454-.998.195-.19.36-.4.5-.625l-1.45-.87zM101.037 29.268c-.59-.154-1.033-.254-1.033-.715 0-.15.087-.436.336-.552.32-.148.694-.045.83.01.183.07.38.203.534.44l.858-.76s-.405-1.015-1.97-1.015c-1.362 0-2.236.898-2.236 2.104 0 1.013.57 1.484 1.738 1.792.736.19 1.088.345 1.088.862 0 .38-.322.67-.807.67-.405 0-.86-.218-1.25-.844-.282.205-1.086.932-1.086.932s.26.523.92.937c.558.35 1.175.35 1.38.35 1.52 0 2.48-.933 2.48-2.282 0-1.197-.634-1.623-1.783-1.93M51.94 16.662h3.966v1.423H53.66v1.123h2.12v1.386h-2.12v1.097h2.246v1.45H51.94M57.665 16.662h1.7l2.443 3.334c.065.082.272.462.59 1.142-.064-.508-.098-.932-.098-1.278v-3.198h1.69v6.478H62.3l-2.447-3.343c-.063-.082-.27-.453-.588-1.132.064.507.1.933.1 1.277v3.198h-1.7v-6.478zM70.437 19.915c0-1.05-.705-1.903-1.693-1.903-.995 0-1.69.842-1.69 1.903 0 1.07.66 1.902 1.69 1.902 1.008 0 1.693-.842 1.693-1.902m.762 2.4c-.663.643-1.55.997-2.456.997-.785 0-1.574-.282-2.197-.778-.816-.655-1.26-1.578-1.26-2.62 0-.923.355-1.757 1.014-2.4.65-.635 1.54-.997 2.444-.997.906 0 1.803.362 2.455.997.658.643 1.003 1.486 1.003 2.4 0 .925-.352 1.767-1.004 2.4M79.31 23.14l-.378-2.8c-.055-.39-.1-.87-.138-1.45-.09.572-.224.962-.297 1.216l-.88 3.034H76.44l-.878-3.034c-.07-.254-.207-.644-.296-1.215-.037.58-.09 1.06-.145 1.45l-.38 2.8h-1.638l.995-6.478h1.748l.977 3.344c.065.208.154.49.207.878.045-.362.128-.653.2-.888l.986-3.334h1.747l.997 6.478h-1.65zM82.5 16.662h3.965v1.423H84.22v1.123h2.12v1.386h-2.12v1.097h2.245v1.45H82.5M50.387 19.473h-3.331v1.284h1.448c-.258.637-.812 1.07-1.53 1.07-.597 0-1.064-.277-1.357-.718-.213-.322-.333-.73-.333-1.18 0-.158.018-.31.05-.457.167-.832.795-1.44 1.64-1.44.57 0 1.042.287 1.342.73l1.24-1.08c-.046-.05-.088-.1-.138-.147-.648-.632-1.543-.992-2.445-.992-.903 0-1.788.36-2.438.992-.55.535-.88 1.198-.977 1.937-.02.15-.035.302-.035.458 0 .858.307 1.632.87 2.245.118.13.243.252.386.367.62.496 1.407.777 2.193.777.902 0 1.787-.355 2.445-.996.652-.63 1.004-1.47 1.004-2.393 0-.155-.013-.307-.035-.457" fill="#000"/><path d="M120.996.527v38.868" stroke="#000" stroke-width="1.583"/><path d="M152.13 10.162h2.055l2.95 4.026c.077.098.33.558.712 1.378-.077-.612-.12-1.126-.12-1.542v-3.862h2.043v7.822h-2.044l-2.95-4.037c-.077-.098-.328-.547-.71-1.367.075.612.12 1.126.12 1.542v3.862h-2.055v-7.822zM161.784 10.162h2.055l2.95 4.026c.076.098.328.558.71 1.378-.076-.612-.12-1.126-.12-1.542v-3.862h2.044v7.822h-2.044l-2.95-4.037c-.077-.098-.33-.547-.712-1.367.077.612.12 1.126.12 1.542v3.862h-2.054v-7.822zM171.438 10.162h4.787v1.718h-2.71v1.356h2.557v1.674h-2.558v1.323h2.71v1.75h-4.786M188.96 12.01h-1.736v-1.848h5.617v1.85h-1.747v5.972h-2.132" fill="#000"/><mask id="b" fill="#fff"><use xlink:href="#a"/></mask><path fill="#000" mask="url(#b)" d="M194.89 17.983h2.154v-7.82h-2.153M199.102 10.162h2.055l2.95 4.026c.077.098.33.558.71 1.378-.075-.612-.12-1.126-.12-1.542v-3.862h2.045v7.822h-2.044l-2.95-4.037c-.077-.098-.328-.547-.71-1.367.075.612.12 1.126.12 1.542v3.862H199.1v-7.822zM212.738 13.466h4.185c.01.164.01.317.01.47 0 2.702-1.53 4.234-4.064 4.234-1.247 0-2.22-.362-3.007-1.16-.743-.755-1.17-1.827-1.17-2.932 0-2.373 1.77-4.09 4.176-4.09 1.518 0 2.71.612 3.518 1.804l-1.847.886c-.436-.6-.983-.897-1.67-.897-1.247 0-2.056.877-2.056 2.386 0 1.5.798 2.395 2.055 2.395 1.102.002 1.878-.61 1.988-1.453h-2.12v-1.64zM148.097 14.094c0-1.27-.854-2.297-2.042-2.297-1.203 0-2.045 1.016-2.045 2.297 0 1.29.798 2.295 2.045 2.295 1.21 0 2.042-1.017 2.042-2.296m.917 2.896c-.797.778-1.868 1.204-2.96 1.204-.952 0-1.903-.34-2.656-.94-.984-.788-1.518-1.904-1.518-3.16 0-1.116.425-2.122 1.223-2.9.788-.765 1.858-1.202 2.952-1.202 1.09 0 2.173.437 2.96 1.203.798.777 1.213 1.794 1.213 2.9 0 1.114-.427 2.13-1.214 2.895M138.542 15.237c-.327.72-.98 1.204-1.816 1.204-.72 0-1.287-.337-1.64-.87-.26-.387-.402-.88-.402-1.426 0-.397.08-.766.228-1.09.328-.72.985-1.206 1.814-1.206.688 0 1.266.346 1.625.88l1.5-1.304c-.054-.058-.105-.12-.164-.177-.785-.765-1.868-1.2-2.96-1.2-1.09 0-2.163.435-2.95 1.2-.24.233-.44.486-.61.756-.4.633-.612 1.36-.612 2.14 0 1.04.37 1.978 1.05 2.72.145.154.297.304.467.443.757.6 1.705.94 2.656.94 1.092 0 2.164-.428 2.96-1.204.236-.23.434-.483.605-.753l-1.748-1.053zM184.034 15.237c-.327.72-.98 1.204-1.817 1.204-.718 0-1.287-.337-1.64-.87-.26-.387-.402-.88-.402-1.426 0-.397.08-.766.228-1.09.33-.72.985-1.206 1.814-1.206.69 0 1.266.346 1.625.88l1.5-1.304c-.054-.058-.106-.12-.165-.177-.784-.765-1.868-1.2-2.96-1.2-1.09 0-2.162.435-2.95 1.2-.238.233-.44.486-.608.756-.4.633-.615 1.36-.615 2.14 0 1.04.37 1.978 1.05 2.72.146.154.297.304.468.443.755.6 1.703.94 2.654.94 1.092 0 2.164-.428 2.96-1.204.236-.23.435-.483.605-.753l-1.748-1.053zM149.27 30.265h2.152v-7.82h-2.153M153.48 22.444h4.788v1.717h-2.71v1.358h2.557v1.673h-2.558v1.325h2.71v1.75h-4.786M160.15 22.444h2.055l2.95 4.025c.077.098.33.557.71 1.378-.076-.613-.12-1.127-.12-1.543v-3.86h2.045v7.82h-2.044l-2.95-4.036c-.077-.1-.33-.55-.712-1.37.077.614.12 1.128.12 1.544v3.86h-2.054v-7.82zM178.985 22.444h4.787v1.717h-2.71v1.358h2.557v1.673h-2.56v1.325h2.712v1.75h-4.787M145.618 27.446c-.327.72-.98 1.203-1.817 1.203-.717 0-1.285-.338-1.638-.87-.26-.39-.403-.88-.403-1.428 0-.396.08-.766.228-1.09.328-.72.984-1.205 1.813-1.205.69 0 1.267.346 1.627.88l1.5-1.305c-.055-.057-.106-.12-.165-.176-.785-.765-1.868-1.2-2.96-1.2-1.09 0-2.163.435-2.95 1.2-.24.232-.44.486-.61.755-.4.635-.613 1.36-.613 2.142 0 1.04.37 1.978 1.05 2.72.145.154.296.304.467.442.755.6 1.703.94 2.654.94 1.094 0 2.165-.427 2.962-1.203.235-.23.434-.483.605-.753l-1.75-1.05zM175.465 27.446c-.327.72-.98 1.203-1.817 1.203-.718 0-1.286-.338-1.64-.87-.26-.39-.402-.88-.402-1.428 0-.396.082-.766.23-1.09.327-.72.984-1.205 1.812-1.205.69 0 1.266.346 1.625.88l1.5-1.305c-.054-.057-.105-.12-.164-.176-.786-.765-1.87-1.2-2.962-1.2-1.09 0-2.162.435-2.948 1.2-.24.232-.44.486-.61.755-.4.635-.614 1.36-.614 2.142 0 1.04.37 1.978 1.05 2.72.146.154.297.304.468.442.755.6 1.703.94 2.654.94 1.093 0 2.164-.427 2.96-1.203.236-.23.435-.483.606-.753l-1.75-1.05zM135.786 25.377c-.71-.186-1.247-.307-1.247-.862 0-.183.105-.527.405-.667.387-.18.837-.055 1.002.01.22.087.46.245.644.533.412-.362 1.036-.917 1.036-.917s-.49-1.225-2.376-1.225c-1.645 0-2.7 1.083-2.7 2.54 0 1.222.69 1.79 2.098 2.162.887.232 1.313.418 1.313 1.04 0 .46-.388.81-.974.81-.488 0-1.037-.263-1.507-1.02-.342.25-1.312 1.126-1.312 1.126s.316.632 1.11 1.13c.675.426 1.42.426 1.667.426 1.834 0 2.99-1.127 2.99-2.756 0-1.444-.763-1.958-2.15-2.33"/></g></svg>