<svg xmlns="http://www.w3.org/2000/svg" width="2000" height="375" viewBox="0 0 2000 375"><style type="text/css">.st0{fill:#FFFFFF;} .st1{fill:#0095C8;} .st2{fill:#0071CE;} .st3{fill:#00BFB3;} .st4{fill:#AA3D7F;} .st5{fill:#007864;} .st6{fill:#CB2C30;} .st7{fill:#DF4661;} .st8{fill:#B521BB;} .st9{fill:#5F259F;}</style><path id="path-1" class="st0" d="M0 0h2000v375h-2000v-375z"/><title>FOOTER POLYGON</title><desc>Created with Sketch.</desc><g id="final-polygon"><path id="Fill-1" class="st1" d="M973.8 116.5l-142.3-5.8-73.9 29.2-60.5-39-129 35.8-21.5 33.9-29.7 46.4 49.7 102.8-41 112.7 82.8-20.7v-.1.1l94.7-54.5 104.7-12.8v-.1l43.6-111.2 3.4-3.2 119-113.4v-.1z"/><path id="Fill-2" class="st2" d="M973.9 116.5l-145.2 90-93.4 26.5 116.3.3 3.4-3.3 118.9-113.5z"/><path id="Fill-3" class="st2" d="M828.7 206.5l2.7-95.8-73.9 29.2 71.2 66.6z"/><path id="Fill-4" class="st2" d="M735.3 233l22.3-93.1-76 19.8 53.7 73.3z"/><path id="Fill-5" class="st2" d="M681.6 159.7l15.5-58.8-129 35.8 113.5 23z"/><path id="Fill-6" class="st2" d="M735.3 233l-32 124.4 104.7-12.8-72.7-111.6z"/><path id="Fill-7" class="st2" d="M681.6 159.7l-64.6 97 72.6-10.3-8-86.7z"/><path id="Fill-8" class="st2" d="M566.6 319.8l-41 112.7 82.8-20.7-41.8-92z"/><path id="Fill-9" class="st2" d="M516.9 217l100.1 39.7-49-120-21.5 33.9-29.6 46.4z"/><path id="Fill-10" class="st2" d="M689.7 246.4l-65.3 62.4 78.8 48.6-13.5-111z"/><path id="Fill-11" class="st2" d="M617 256.6l-50.4 63.2 57.8-11-7.4-52.2z"/><path id="Fill-12" class="st1" d="M1899.7 38.1l28.4 74.7-24.6 106.4 15.9 46.4 112.8-49.2 75.1 60.6-138.6-284.5-69 45.6z"/><path id="Fill-13" class="st2" d="M1884.1 45.7l44 67.1 40.6-120.2-84.6 53.1z"/><path id="Fill-14" class="st2" d="M1903.5 219.2l134.6-84.4-110-22.1-24.6 106.5z"/><path id="Fill-15" class="st2" d="M2032.2 216.5l23.2-45.9-151.9 48.7 128.7-2.8z"/><path id="Fill-16" class="st2" d="M2010.2 129.3l20.3-9.9-30.9-63.5 10.6 73.4z"/><path id="Fill-17" class="st3" d="M1202.3 117.5l-.6-.7 8.5-69.7-124 32-45.8-13.8-66.4 51.2v.1l-118.9 113.4-3.4 3.2-43.6 111.2v.1l93-15.6 79.9 50.4 100.8-36.7 98.3-22.4 35.4-38.4 25-26.3-5.7-43.8-12.4-42.2-15.6-47.9-4.5-4.1z"/><path id="Fill-18" class="st4" d="M1325.8 244.4"/><path id="Fill-19" class="st4" d="M1234.6 211.7"/><path id="Fill-20" class="st4" d="M1179.9 320.1"/><path id="Fill-21" class="st4" d="M465.2 317.4"/><path id="Fill-24" class="st5" d="M1238.9 254.3l-100.2-4.3 41.2 70.1 59-65.8z"/><path id="Fill-25" class="st5" d="M925.9 217.5l-39.3 66.5 120.9-46.7-81.6-19.8 86.7-38.9-.2-.1-38.5-62-122.3 116.8 74.3-15.8z"/><path id="Fill-26" class="st5" d="M1138.7 250l-131.3-12.6 74.1 105.2 57.2-92.6z"/><path id="Fill-27" class="st5" d="M1095.3 196.8l43.4 53.2 95.9-38.3-139.3-14.9z"/><path id="Fill-28" class="st5" d="M1113.9 134.9l-18.6 61.9 106.9-79.3-88.3 17.4z"/><path id="Fill-29" class="st5" d="M1202.2 117.5l8-70.4-124.3 32 116.3 38.4z"/><path id="Fill-30" class="st5" d="M1012.6 178.5l101.3-43.6-73.5-69.6-27.8 113.2z"/><path id="Fill-31" class="st5" d="M1095.3 196.8l-82.7-18.2-5.2 58.8 87.9-40.6z"/><path id="Fill-32" class="st5" d="M1007.4 237.4l-106.4 91.5 79.8 50.3 26.6-141.8z"/><path id="Fill-33" class="st5" d="M901 328.9l-14.4-44.8-78.6 60.3v.1l93-15.6z"/><path id="Fill-34" class="st6" d="M1612.1 243.2l-102.3-34-17-89-2.9 1.6 1-3.3-3.2 2.6 35.2-53.3-129.9-3.3-75.2 63.8h-.1l-107.5-81.2-8.1 70.4 32.5 94.2 4.3 42.6-59 65.8 68.1 22.9 95.7-33.9h.1l164.9 27.5 5-2.5 130.4-63.6-29.2-26.5"/><path id="Fill-35" class="st6" d="M-18 79.1"/><path id="Fill-37" class="st6" d="M-18 79.1l116.6 239.3 68 35.7 47.3-29.5 126.7-221.2 28.1-53-147.4 9-39.7-42.9-49.3-10.6-150.3 73.2z"/><path id="Fill-38" class="st7" d="M98.6 318.4l68 35.7 50.9-112.9-118.9 77.2z"/><path id="Fill-39" class="st7" d="M69.2 258.1l148.3-16.9 56.7-106.4-205 123.3z"/><path id="Fill-40" class="st7" d="M274.2 134.8l-52.9-75.5 81 50.4-28.1 25.1z"/><path id="Fill-41" class="st7" d="M69.2 258.1l152.1-198.8-39.7-42.9-112.4 241.7z"/><path id="Fill-42" class="st7" d="M-18 79.1l48.1 98.7 99.9-50.4-148-48.3z"/><path id="Fill-43" class="st7" d="M97.6 22.8l32.4 104.7 2.3-121.6-34.7 16.9z"/><path id="Fill-44" class="st7" d="M1615 244.1l-105.2-34.9-1 127.4.4-.2-.4.2 106.2-92.5z"/><path id="Fill-45" class="st7" d="M1397.6 192.4l90-71.3-94.6-56.6 4.6 127.9z"/><path id="Fill-46" class="st7" d="M1325.8 244.4l66.3-47.9 5.6-4.2-79.9-64.1 8 116.2z"/><path id="Fill-47" class="st7" d="M1202.2 117.5l32.4 94.2 83.2-83.5-115.6-10.7z"/><path id="Fill-48" class="st7" d="M1325.8 244.4l-91.1-32.7 13.3 131.3 77.8-98.6z"/><path id="Fill-49" class="st7" d="M1343.8 309.2l95.4-75.1-113.3 10.3 17.9 64.8z"/><path id="Fill-50" class="st7" d="M1487.5 121.1l-48.4 113 70.7-25-22.3-88"/><path id="Fill-51" class="st7" d="M1423.8 322.5l15.3-88.2 69.6 102.4-84.9-14.2z"/><path id="Fill-52" class="st8" d="M1715.4 194.4l-12.6-34.6 12.6 34.6zm147.9-180.3l-65.2-16.9-85.1 59.5-9.2 94.3v-.4l9.2-93.9-71.8 60.8-118.3-49.8-35.2 53.3 22.1 88.1 86.6 28.8 18.7 6.1 29.1 26.6 115.8-7.3-26.8-25.6 26.8 25.5 77.3-15.3 82.3 17.5-15.9-46.4 24.6-106.4-65-98.5z"/><path id="Fill-53" class="st9" d="M1852.9 159.4l-139.6 29 150-174.3-10.4 145.3z"/><path id="Fill-54" class="st9" d="M1713.3 188.4l-69.3 82.3 115.8-7.3-46.5-75z"/><path id="Fill-55" class="st9" d="M1713.3 188.4l-.3-131.6-71.9 60.8 72.2 70.8z"/><path id="Fill-56" class="st8" d="M368.7 50.4l-94.5 84.4-56.7 106.4-3.6 83.4 108.8 20.4v.5l61.8 35.3 65.8 51.3 75.3.5 41-112.7-49.7-102.9 29.5-46.4 21.5-33.9-199.2-86.3z"/><path id="Fill-57" class="st9" d="M318.6 283.9l4.1 61.6-108.9-20.9 104.8-40.7z"/><path id="Fill-58" class="st9" d="M300.5 240.9l-86.7 83.7 3.6-83.4 83.1-.3z"/><path id="Fill-59" class="st9" d="M399.3 241.8l-76.6 103.7h.7l141.8-28.1-65.9-75.6z"/><path id="Fill-60" class="st9" d="M399.3 241.8l-98.8-.9 18.1 43h.1l80.6-42.1z"/><path id="Fill-61" class="st9" d="M300.5 240.9l81.8-63.3h.1l2.7-.6 105.9-73.7-122-52.8-.4-.1 13.8 127.1-108.2-42.7 26.3 106.1z"/><path id="Fill-62" class="st9" d="M566.6 319.8l-101.4-2.4 60.4 115.2 41-112.8z"/><path id="Fill-63" class="st9" d="M465.2 317.4l-80.7 63.4 65.8 51.3 14.9-114.7z"/><path id="Fill-64" class="st9" d="M382.5 177.5l134.4 39.5-117.6 24.8 139.9 21.7-74 53.8 51.7-100.3 29.5-46.4 21.5-33.9-185.4 40.8z"/><path id="Fill-65" class="st9" d="M1713.1 56.8l102.7 12.5-17.7-72-85 59.5z"/><path id="Fill-66" class="st9" d="M1615 244.1l-28.8-92.7-76.4 57.8 105.2 34.9z"/><path id="Fill-67" class="st9" d="M1586.1 151.4l-98.5-30.3 35.2-53.3 63.3 83.6z"/><path id="Fill-68" class="st9" d="M1586.1 151.4l55-33.7-7.5 50.1-47.5-16.4z"/><path id="Fill-69" class="st9" d="M1633.6 167.7l-18.6 76.4 98.3-55.7-79.7-20.7z"/><path id="Fill-70" class="st9" d="M1852.9 159.4l75.2-46.6-24.6 106.4-50.6-59.8z"/><path id="Fill-71" class="st9" d="M1903.5 219.2l-66.4 28.9 82.3 17.5-15.9-46.4z"/><path id="Fill-72" class="st9" d="M1759.9 263.4l93.1-104-15.8 88.7-77.3 15.3z"/></g></svg>