<?xml version="1.0" encoding="UTF-8" standalone="no"?>
<svg width="18px" height="18px" viewBox="0 0 18 18" version="1.1" xmlns="http://www.w3.org/2000/svg" xmlns:xlink="http://www.w3.org/1999/xlink">
    <!-- Generator: Sketch 39.1 (31720) - http://www.bohemiancoding.com/sketch -->
    <title>magnifier</title>
    <desc>Created with Sketch.</desc>
    <defs></defs>
    <g id="Symbols" stroke="none" stroke-width="1" fill="none" fill-rule="evenodd">
        <g id="Header---L" transform="translate(-1244.000000, -61.000000)" fill="#CB2C30">
            <g transform="translate(0.000000, -2.000000)" id="magnifier">
                <g transform="translate(1244.000000, 63.000000)">
                    <path d="M9.81838202,12.7680587 C8.89814296,13.2380733 7.85582036,13.5031646 6.75158232,13.5031646 C3.02278619,13.5031646 0,10.4803785 0,6.75158232 C0,3.02278619 3.02278619,0 6.75158232,0 C10.4803785,0 13.5031646,3.02278619 13.5031646,6.75158232 C13.5031646,8.14968241 13.078206,9.44852803 12.3504104,10.5259975 L17.0837319,15.2593189 C17.0837319,15.2593189 17.8794135,16.0550006 17.0837319,16.8506821 L16.2880502,17.6463637 C15.4923687,18.4420453 14.6966871,17.6463637 14.6966871,17.6463637 L9.81838202,12.7680587 L9.81838202,12.7680587 Z M2.25052744,6.75158232 C2.25052744,4.26571817 4.26571817,2.25052744 6.75158232,2.25052744 C9.23744647,2.25052744 11.2526372,4.26571817 11.2526372,6.75158232 C11.2526372,9.23744647 9.23744647,11.2526372 6.75158232,11.2526372 C4.26571817,11.2526372 2.25052744,9.23744647 2.25052744,6.75158232 L2.25052744,6.75158232 Z" id="Shape"></path>
                </g>
            </g>
        </g>
    </g>
</svg>