<?xml version="1.0" encoding="UTF-8" standalone="no"?>
<svg width="80px" height="80px" viewBox="0 0 80 80" version="1.1" xmlns="http://www.w3.org/2000/svg" xmlns:xlink="http://www.w3.org/1999/xlink">
    <!-- Generator: Sketch 39.1 (31720) - http://www.bohemiancoding.com/sketch -->
    <title>Icon - Classroom - grey</title>
    <desc>Created with Sketch.</desc>
    <defs>
        <rect id="path-1" x="0" y="9" width="30" height="10"></rect>
        <mask id="mask-2" maskContentUnits="userSpaceOnUse" maskUnits="objectBoundingBox" x="0" y="0" width="30" height="10" fill="white">
            <use xlink:href="#path-1"></use>
        </mask>
        <rect id="path-3" x="0" y="9" width="30" height="10"></rect>
        <mask id="mask-4" maskContentUnits="userSpaceOnUse" maskUnits="objectBoundingBox" x="0" y="0" width="30" height="10" fill="white">
            <use xlink:href="#path-3"></use>
        </mask>
        <rect id="path-5" x="0" y="9" width="30" height="10"></rect>
        <mask id="mask-6" maskContentUnits="userSpaceOnUse" maskUnits="objectBoundingBox" x="0" y="0" width="30" height="10" fill="white">
            <use xlink:href="#path-5"></use>
        </mask>
        <rect id="path-7" x="-3.55271368e-15" y="9" width="30" height="10"></rect>
        <mask id="mask-8" maskContentUnits="userSpaceOnUse" maskUnits="objectBoundingBox" x="0" y="0" width="30" height="10" fill="white">
            <use xlink:href="#path-7"></use>
        </mask>
        <rect id="path-9" x="0" y="9" width="30" height="10"></rect>
        <mask id="mask-10" maskContentUnits="userSpaceOnUse" maskUnits="objectBoundingBox" x="0" y="0" width="30" height="10" fill="white">
            <use xlink:href="#path-9"></use>
        </mask>
    </defs>
    <g id="Symbols" stroke="none" stroke-width="1" fill="none" fill-rule="evenodd">
        <g id="Icon---Classroom---grey">
            <g id="Group" transform="translate(5.000000, 5.000000)">
                <g id="table-copy-5">
                    <g id="students-copy-3" transform="translate(55.000000, 59.500000) rotate(180.000000) translate(-55.000000, -59.500000) translate(40.000000, 50.000000)">
                        <path d="M4,8 C6.209139,8 8,6.209139 8,4 C8,1.790861 6.209139,0 4,0 C1.790861,0 0,1.790861 0,4 C0,6.209139 1.790861,8 4,8 Z" id="Oval-2-Copy-5" fill="#666666"></path>
                        <circle id="Oval-2-Copy-3" fill="#666666" cx="15" cy="4" r="4"></circle>
                        <circle id="Oval-2-Copy-4" fill="#666666" cx="26" cy="4" r="4"></circle>
                        <use id="table-border-copy-2" stroke="#222222" mask="url(#mask-2)" stroke-width="20" transform="translate(15.000000, 14.000000) rotate(180.000000) translate(-15.000000, -14.000000) " xlink:href="#path-1"></use>
                    </g>
                    <g id="students-copy-2" transform="translate(15.000000, 59.500000) rotate(180.000000) translate(-15.000000, -59.500000) translate(0.000000, 50.000000)">
                        <path d="M4,8 C6.209139,8 8,6.209139 8,4 C8,1.790861 6.209139,0 4,0 C1.790861,0 0,1.790861 0,4 C0,6.209139 1.790861,8 4,8 Z" id="Oval-2-Copy-5" fill="#666666"></path>
                        <circle id="Oval-2-Copy-3" fill="#666666" cx="15" cy="4" r="4"></circle>
                        <circle id="Oval-2-Copy-4" fill="#666666" cx="26" cy="4" r="4"></circle>
                        <use id="table-border-copy-2" stroke="#222222" mask="url(#mask-4)" stroke-width="20" transform="translate(15.000000, 14.000000) rotate(180.000000) translate(-15.000000, -14.000000) " xlink:href="#path-3"></use>
                    </g>
                    <g id="students-copy" transform="translate(55.000000, 35.500000) rotate(180.000000) translate(-55.000000, -35.500000) translate(40.000000, 26.000000)">
                        <path d="M4,8 C6.209139,8 8,6.209139 8,4 C8,1.790861 6.209139,0 4,0 C1.790861,0 0,1.790861 0,4 C0,6.209139 1.790861,8 4,8 Z" id="Oval-2-Copy-5" fill="#666666"></path>
                        <circle id="Oval-2-Copy-3" fill="#666666" cx="15" cy="4" r="4"></circle>
                        <circle id="Oval-2-Copy-4" fill="#666666" cx="26" cy="4" r="4"></circle>
                        <use id="table-border-copy-2" stroke="#222222" mask="url(#mask-6)" stroke-width="20" transform="translate(15.000000, 14.000000) rotate(180.000000) translate(-15.000000, -14.000000) " xlink:href="#path-5"></use>
                    </g>
                    <g id="students" transform="translate(15.000000, 35.500000) rotate(180.000000) translate(-15.000000, -35.500000) translate(0.000000, 26.000000)">
                        <path d="M4,8 C6.209139,8 8,6.209139 8,4 C8,1.790861 6.209139,0 4,0 C1.790861,0 0,1.790861 0,4 C0,6.209139 1.790861,8 4,8 Z" id="Oval-2-Copy-5" fill="#666666"></path>
                        <circle id="Oval-2-Copy-3" fill="#666666" cx="15" cy="4" r="4"></circle>
                        <circle id="Oval-2-Copy-4" fill="#666666" cx="26" cy="4" r="4"></circle>
                        <use id="table-border-copy-2" stroke="#222222" mask="url(#mask-8)" stroke-width="20" transform="translate(15.000000, 14.000000) rotate(180.000000) translate(-15.000000, -14.000000) " xlink:href="#path-7"></use>
                    </g>
                    <g id="teachers" transform="translate(20.000000, 0.000000)">
                        <use id="table-border-copy" stroke="#222222" mask="url(#mask-10)" stroke-width="20" xlink:href="#path-9"></use>
                        <circle id="Oval-2-Copy-4" fill="#666666" cx="21.25" cy="4" r="3.75"></circle>
                        <circle id="Oval-2-Copy-3" fill="#666666" cx="8.75" cy="4" r="3.75"></circle>
                    </g>
                </g>
            </g>
        </g>
    </g>
</svg>