<?xml version="1.0" encoding="UTF-8" standalone="no"?>
<svg width="80px" height="80px" viewBox="0 0 80 80" version="1.1" xmlns="http://www.w3.org/2000/svg" xmlns:xlink="http://www.w3.org/1999/xlink">
    <!-- Generator: Sketch 39.1 (31720) - http://www.bohemiancoding.com/sketch -->
    <title>Icon - Theatre - grey</title>
    <desc>Created with Sketch.</desc>
    <defs>
        <rect id="path-1" x="0" y="9" width="30" height="10"></rect>
        <mask id="mask-2" maskContentUnits="userSpaceOnUse" maskUnits="objectBoundingBox" x="0" y="0" width="30" height="10" fill="white">
            <use xlink:href="#path-1"></use>
        </mask>
    </defs>
    <g id="Symbols" stroke="none" stroke-width="1" fill="none" fill-rule="evenodd">
        <g id="Icon---Theatre---grey">
            <g id="row" transform="translate(40.000000, 59.000000) rotate(180.000000) translate(-40.000000, -59.000000) translate(6.000000, 55.000000)" fill="#666666">
                <circle id="Oval-2-Copy-6" cx="54" cy="4" r="4"></circle>
                <circle id="Oval-2-Copy-11" cx="64" cy="4" r="4"></circle>
                <circle id="Oval-2-Copy-7" cx="44" cy="4" r="4"></circle>
                <circle id="Oval-2-Copy-8" cx="34" cy="4" r="4"></circle>
                <circle id="Oval-2-Copy-9" cx="24" cy="4" r="4"></circle>
                <circle id="Oval-2-Copy-10" cx="14" cy="4" r="4"></circle>
                <circle id="Oval-2-Copy-12" cx="4" cy="4" r="4"></circle>
            </g>
            <g id="row" transform="translate(40.000000, 71.000000) rotate(180.000000) translate(-40.000000, -71.000000) translate(6.000000, 67.000000)" fill="#666666">
                <circle id="Oval-2-Copy-6" cx="54" cy="4" r="4"></circle>
                <circle id="Oval-2-Copy-11" cx="64" cy="4" r="4"></circle>
                <circle id="Oval-2-Copy-7" cx="44" cy="4" r="4"></circle>
                <circle id="Oval-2-Copy-8" cx="34" cy="4" r="4"></circle>
                <circle id="Oval-2-Copy-9" cx="24" cy="4" r="4"></circle>
                <circle id="Oval-2-Copy-10" cx="14" cy="4" r="4"></circle>
                <circle id="Oval-2-Copy-12" cx="4" cy="4" r="4"></circle>
            </g>
            <g id="row" transform="translate(40.000000, 47.000000) rotate(180.000000) translate(-40.000000, -47.000000) translate(6.000000, 43.000000)" fill="#666666">
                <circle id="Oval-2-Copy-6" cx="54" cy="4" r="4"></circle>
                <circle id="Oval-2-Copy-11" cx="64" cy="4" r="4"></circle>
                <circle id="Oval-2-Copy-7" cx="44" cy="4" r="4"></circle>
                <circle id="Oval-2-Copy-8" cx="34" cy="4" r="4"></circle>
                <circle id="Oval-2-Copy-9" cx="24" cy="4" r="4"></circle>
                <circle id="Oval-2-Copy-10" cx="14" cy="4" r="4"></circle>
                <circle id="Oval-2-Copy-12" cx="4" cy="4" r="4"></circle>
            </g>
            <g id="row" transform="translate(40.000000, 35.000000) rotate(180.000000) translate(-40.000000, -35.000000) translate(6.000000, 31.000000)" fill="#666666">
                <circle id="Oval-2-Copy-6" cx="54" cy="4" r="4"></circle>
                <circle id="Oval-2-Copy-11" cx="64" cy="4" r="4"></circle>
                <circle id="Oval-2-Copy-7" cx="44" cy="4" r="4"></circle>
                <circle id="Oval-2-Copy-8" cx="34" cy="4" r="4"></circle>
                <circle id="Oval-2-Copy-9" cx="24" cy="4" r="4"></circle>
                <circle id="Oval-2-Copy-10" cx="14" cy="4" r="4"></circle>
                <circle id="Oval-2-Copy-12" cx="4" cy="4" r="4"></circle>
            </g>
            <g id="stage" transform="translate(25.000000, 5.000000)">
                <use id="table-border-copy" stroke="#222222" mask="url(#mask-2)" stroke-width="20" xlink:href="#path-1"></use>
                <circle id="Oval-2-Copy-4" fill="#666666" cx="21.25" cy="4" r="3.75"></circle>
                <circle id="Oval-2-Copy-3" fill="#666666" cx="8.75" cy="4" r="3.75"></circle>
            </g>
        </g>
    </g>
</svg>